<svg xmlns="http://www.w3.org/2000/svg" width="21" height="21" fill="none" viewBox="0 0 21 21">
    <path fill="#6F6F71" fill-rule="evenodd" d="M15.05 0C18.61 0 21 2.497 21 6.212v8.576C21 18.503 18.61 21 15.05 21H5.948C2.39 21 0 18.503 0 14.788V6.212C0 2.497 2.39 0 5.948 0h9.103zm0 1.575H5.949c-2.656 0-4.373 1.82-4.373 4.637v8.576c0 2.817 1.717 4.637 4.373 4.637h9.102c2.657 0 4.375-1.82 4.375-4.637V6.212c0-2.817-1.717-4.637-4.374-4.637zM10.5 5.128c.434 0 .787.353.787.787v4.133l3.177 1.893c.373.224.495.707.273 1.08-.148.247-.41.385-.677.385-.138 0-.277-.036-.404-.11l-3.56-2.124c-.237-.143-.384-.4-.384-.677v-4.58c0-.434.352-.787.787-.787z" clip-rule="evenodd"/>
</svg>
