<svg xmlns="http://www.w3.org/2000/svg" width="21" height="15" fill="none" viewBox="0 0 21 15">
    <path fill="#6F6F71" d="M16.418 5.918c0 .152-.06.298-.168.405-.107.108-.253.168-.405.168H8.21c-.152 0-.297-.06-.405-.168-.107-.107-.168-.253-.168-.405 0-.152.06-.297.168-.405.108-.107.253-.168.405-.168h7.636c.152 0 .298.06.405.168.108.108.168.253.168.405zM15.846 8.4H8.209c-.152 0-.297.06-.405.168-.107.107-.168.253-.168.405 0 .152.06.297.168.405.108.107.253.167.405.167h7.636c.152 0 .298-.06.405-.167.108-.108.168-.253.168-.405 0-.152-.06-.298-.168-.405-.107-.108-.253-.168-.405-.168zM21 1.336v11.455c0 .557-.222 1.09-.616 1.484-.393.394-.927.615-1.484.616H2.1c-.555 0-1.088-.221-1.481-.613C.226 13.887.003 13.355 0 12.8V3.627c0-.152.06-.297.168-.405.107-.107.253-.167.405-.167.152 0 .297.06.405.167.107.108.167.253.167.405v9.164c0 .253.101.496.28.675.179.179.422.28.675.28.253 0 .496-.101.675-.28.179-.18.28-.422.28-.675V1.336c0-.354.14-.694.391-.944.25-.25.59-.392.945-.392h15.273c.354 0 .694.141.944.392.25.25.392.59.392.944zm-1.145 0c0-.05-.02-.099-.056-.135-.036-.035-.085-.055-.135-.056H4.39c-.05 0-.1.02-.135.056-.036.036-.056.085-.056.135v11.455c0 .332-.078.66-.23.954H18.9c.253 0 .496-.1.675-.28.179-.178.28-.421.28-.674V1.336z"/>
</svg>
