<svg xmlns="http://www.w3.org/2000/svg" width="19" height="21" fill="none" viewBox="0 0 19 21">
    <path fill="#6F6F71" fill-rule="evenodd" d="M11.6 0c.046 0 .09.004.134.011l.145.001c.215 0 .422.088.572.243l5.354 5.579c.142.147.221.344.221.548v9.69c.019 2.652-2.047 4.82-4.703 4.927L4.846 21H4.73C2.14 20.942.064 18.847 0 16.282L0 4.747C.061 2.124 2.227.012 4.831.012h6.637C11.51.003 11.556 0 11.6 0zm-.792 1.597H4.833c-1.752 0-3.206 1.42-3.247 3.169v11.306c-.04 1.81 1.388 3.302 3.18 3.342h8.525c1.764-.073 3.162-1.539 3.15-3.336V7.382h-2.125c-1.935-.004-3.508-1.582-3.508-3.514v-2.27zm.595 11.731c.438 0 .793.355.793.793 0 .438-.355.793-.793.793H5.695c-.438 0-.793-.355-.793-.793 0-.438.355-.793.793-.793h5.708zM9.242 9.362c.437 0 .793.355.793.793 0 .437-.356.793-.793.793H5.694c-.438 0-.793-.356-.793-.793 0-.438.355-.793.793-.793h3.548zm3.152-6.876v1.382c0 1.061.863 1.926 1.924 1.93l1.253-.002-3.177-3.31z" clip-rule="evenodd"/>
</svg>
