<svg xmlns="http://www.w3.org/2000/svg" width="19" height="20" fill="none" viewBox="0 0 19 20">
    <path fill="#fff" fill-rule="evenodd" d="M9.44 0c2.523 0 4.607 1.922 4.864 4.38l.072.002c1.4 0 3.1.93 3.675 3.536l.762 5.894c.273 1.903-.069 3.429-1.018 4.523-.944 1.089-2.438 1.665-4.32 1.665H5.416c-2.068 0-3.51-.507-4.406-1.548-.9-1.044-1.202-2.61-.895-4.655l.75-5.816c.492-2.667 2.292-3.6 3.685-3.6.12-1.109.62-2.164 1.415-2.955C6.878.519 8.136 0 9.42 0h.02zm4.936 5.83H4.55c-.425 0-1.848.171-2.256 2.376l-.745 5.79c-.243 1.625-.055 2.8.557 3.512.606.703 1.689 1.044 3.31 1.044h8.057c1.012 0 2.393-.201 3.227-1.165.662-.763.89-1.9.677-3.38l-.752-5.84c-.32-1.44-1.165-2.338-2.25-2.338zm-2.121 2.687c.4 0 .746.324.746.723 0 .4-.302.724-.702.724h-.044c-.4 0-.724-.324-.724-.724 0-.4.324-.723.724-.723zm-5.627 0c.4 0 .746.324.746.723 0 .4-.303.724-.703.724h-.043c-.4 0-.724-.324-.724-.724 0-.4.324-.723.724-.723zm2.81-7.07h-.015c-.908 0-1.794.367-2.435 1.005-.523.52-.865 1.204-.976 1.93h6.833c-.248-1.659-1.682-2.934-3.408-2.934z" clip-rule="evenodd"/>
</svg>
