<svg xmlns="http://www.w3.org/2000/svg" width="21" height="21" fill="none" viewBox="0 0 21 21">
    <path fill="#6F6F71" d="M16.581 12.937c-.412-.86-1.886-2.052-3.31-3.204-.795-.642-1.546-1.25-2.025-1.728-.12-.121-.299-.16-.457-.103-.295.107-.477.19-.62.253-.22.098-.293.131-.588.161-.13.013-.247.083-.32.192-.619.925-1.26.846-1.687.702-.136-.045-.16-.104-.174-.16-.092-.384.37-1.278.967-1.876 1.422-1.422 2.155-1.779 3.704-1.086 1.757.785 3.517 1.4 3.535 1.407.23.08.477-.042.557-.27.079-.228-.041-.478-.27-.557-.017-.006-1.743-.61-3.465-1.38-2.006-.897-3.107-.306-4.679 1.267-.598.598-1.411 1.81-1.201 2.697.09.378.356.658.751.789.992.327 1.896.014 2.57-.88.278-.043.43-.106.657-.209.082-.036.179-.08.306-.13.501.469 1.176 1.016 1.888 1.59 1.286 1.041 2.745 2.22 3.073 2.903.162.337-.012.557-.13.657-.174.149-.41.196-.54.106-.141-.097-.326-.103-.472-.016-.147.088-.23.253-.21.423.029.278-.226.437-.336.493-.28.141-.572.117-.682.015-.122-.113-.298-.147-.454-.089-.155.059-.264.202-.28.368-.026.287-.239.563-.516.67-.134.051-.328.082-.502-.077-.109-.098-.26-.136-.4-.102-.143.035-.257.139-.307.276-.017.044-.055.149-.464.149-.291 0-.816-.197-1.072-.367-.307-.202-2.233-1.639-3.896-3.032-.234-.197-.638-.618-.995-.991-.317-.331-.606-.631-.755-.757-.187-.158-.462-.134-.617.051-.156.185-.133.462.052.617.135.115.398.392.687.694.39.408.794.83 1.065 1.057 1.63 1.364 3.588 2.837 3.978 3.093.322.212 1.016.51 1.553.51.431 0 .763-.1.993-.293.308.12.658.121.995-.01.398-.154.725-.465.91-.841.346.073.74.022 1.099-.158.35-.177.605-.447.73-.763.349.018.708-.105 1.004-.36.502-.43.64-1.098.35-1.7z"/>
    <path fill="#6F6F71" d="M8.75 5.688H4.813c-.242 0-.438.196-.438.437 0 .242.196.438.438.438H8.75c.242 0 .438-.196.438-.438 0-.241-.196-.438-.438-.438zM17.863 12.006c-.136-.2-.407-.256-.607-.12l-1.28.86c-.2.135-.253.407-.118.607.085.125.223.194.364.194.083 0 .168-.024.243-.075l1.28-.86c.2-.134.253-.406.118-.606zM15.147 14.093c-.313-.247-1.714-1.68-2.58-2.584-.167-.175-.444-.18-.619-.013-.175.167-.18.445-.013.619.225.234 2.209 2.302 2.67 2.666.08.063.176.094.27.094.129 0 .258-.058.345-.168.15-.189.117-.464-.073-.614zM13.4 14.971c-.524-.42-1.841-1.818-2.139-2.142-.164-.179-.44-.189-.618-.026s-.19.44-.027.618c.016.017 1.588 1.714 2.237 2.233.08.064.177.096.273.096.128 0 .255-.057.342-.164.15-.189.12-.465-.068-.615zM11.657 15.852c-.624-.526-1.9-1.885-2.15-2.151-.165-.177-.442-.187-.618-.021-.177.165-.186.441-.021.618.358.384 1.58 1.68 2.225 2.224.082.069.182.103.282.103.124 0 .248-.053.335-.156.155-.185.132-.461-.053-.617z"/>
    <path fill="#6F6F71" d="M5.114 4.932c-.75-.71-3.749-.94-4.65-.994-.124-.006-.24.035-.327.118C.05 4.138 0 4.254 0 4.375v7.875c0 .241.196.437.438.437h2.625c.189 0 .357-.121.415-.302.064-.196 1.572-4.823 1.77-7.098.012-.133-.037-.264-.135-.355zm-2.37 6.88H.874V4.844c1.406.11 2.923.352 3.475.62-.232 1.916-1.281 5.321-1.607 6.348zM20.563 4.813c-3.436 0-5.341.879-5.421.916-.114.053-.199.152-.234.272-.035.12-.017.248.048.355.541.87 2.234 5.706 2.56 6.885.052.19.225.322.422.322h2.625c.241 0 .437-.197.437-.438V5.25c0-.242-.196-.438-.438-.438zm-.438 7.875h-1.86c-.415-1.352-1.64-4.874-2.323-6.33.667-.227 2.101-.616 4.183-.665v6.995z"/>
</svg>
