<svg xmlns="http://www.w3.org/2000/svg" width="18" height="18" fill="none" viewBox="0 0 18 18">
    <path fill="#424242" fill-rule="evenodd" d="M2.053 2.664c.001 0-.042.045-.097.099-.21.204-.646.63-.65 1.52-.008 1.245.811 3.557 4.754 7.498 3.924 3.923 6.232 4.751 7.48 4.751h.018c.89-.004 1.315-.44 1.52-.65.063-.065.113-.112.149-.142.867-.871 1.31-1.52 1.306-1.936-.006-.425-.534-.927-1.264-1.621-.233-.221-.485-.462-.751-.728-.69-.688-1.032-.57-1.784-.306-1.04.365-2.467.86-4.684-1.357-2.22-2.22-1.723-3.644-1.36-4.684.263-.752.383-1.095-.308-1.786-.27-.27-.513-.525-.737-.76-.69-.726-1.187-1.25-1.61-1.257H4.03c-.417 0-1.064.446-1.98 1.362l.004-.003zM13.54 17.837c-2.169 0-4.996-1.726-8.404-5.132C1.716 9.285-.013 6.449 0 4.275c.008-1.435.76-2.17 1.043-2.446.015-.018.066-.068.083-.085C2.374.495 3.216-.01 4.052 0c.972.013 1.664.74 2.54 1.662.216.228.45.476.713.737 1.27 1.27.908 2.307.617 3.139-.316.907-.59 1.69 1.05 3.331 1.643 1.641 2.427 1.367 3.33 1.048.833-.29 1.867-.654 3.139.616.258.257.502.49.727.705.926.88 1.657 1.575 1.67 2.55.01.83-.495 1.677-1.74 2.924l-.553-.375.467.456c-.276.283-1.01 1.037-2.447 1.044h-.024z" clip-rule="evenodd"/>
</svg>
