<svg xmlns="http://www.w3.org/2000/svg" width="12" height="10" fill="none" viewBox="0 0 12 10">
    <path fill="#6F6F71" d="M7.825.383c.32.127.548.358.751.695l.067.117.249.477.008.013.007.012.022.029c.113.123.302.198.428.198 1.146 0 2.083.9 2.14 2.032l.003.11v3.188c0 1.47-1.16 2.668-2.615 2.73l-.118.003H3.233c-1.47 0-2.668-1.16-2.73-2.615L.5 7.254V4.066c0-1.183.96-2.142 2.143-2.142.125 0 .315-.075.428-.198l.004-.005.005-.007.029-.043.248-.476c.22-.402.461-.67.818-.812.654-.26 2.996-.26 3.65 0zm-3.345.766c-.122.049-.232.16-.35.355l-.05.089-.212.409-.052.094c-.044.073-.087.134-.137.188-.253.275-.617.434-.94.46l-.096.005-.09.003c-.656.044-1.18.568-1.225 1.224l-.003.09v3.188c0 1.018.798 1.85 1.804 1.905l.104.003h5.534c1.018 0 1.85-.799 1.905-1.804l.003-.104V4.066c0-.697-.542-1.268-1.228-1.314l-.09-.003-.096-.004c-.324-.027-.687-.186-.94-.462-.05-.053-.093-.114-.136-.185l-.01-.018-.013-.022-.063-.12-.179-.345c-.12-.219-.23-.352-.349-.42l-.052-.024-.065-.022C6.888.967 4.919.975 4.48 1.15zM6 3.597c1.193 0 2.16.967 2.16 2.161S7.194 7.919 6 7.919c-1.194 0-2.161-.967-2.161-2.161s.967-2.16 2.16-2.16zm0 .825c-.738 0-1.336.598-1.336 1.336 0 .738.598 1.336 1.336 1.336.738 0 1.336-.598 1.336-1.336 0-.738-.598-1.336-1.336-1.336zm3.027-1.21c.304 0 .55.247.55.55 0 .283-.212.515-.485.547l-.065.004c-.308 0-.555-.247-.555-.55 0-.282.213-.515.486-.547l.07-.003z"/>
</svg>
