<svg xmlns="http://www.w3.org/2000/svg" width="20" height="20" fill="none" viewBox="0 0 20 20">
    <path fill="#fff" fill-rule="evenodd" d="M10.001 0c2.674 0 5.186 1.04 7.073 2.927 3.9 3.901 3.9 10.247 0 14.148C15.162 18.988 12.587 20 9.979 20c-1.422 0-2.853-.3-4.192-.92-.394-.158-.764-.307-1.029-.307-.305.002-.716.143-1.112.28-.813.279-1.826.627-2.575-.12-.746-.747-.402-1.756-.124-2.568.136-.4.277-.814.277-1.126 0-.257-.124-.585-.314-1.056-1.742-3.764-.937-8.3 2.02-11.255C4.817 1.04 7.328 0 10 0zm.001 1.396c-2.3 0-4.462.895-6.086 2.52C1.372 6.458.68 10.36 2.192 13.63c.217.539.428 1.063.428 1.609 0 .544-.187 1.092-.352 1.576-.136.398-.341 1-.21 1.131.13.134.735-.077 1.134-.214.48-.163 1.023-.351 1.561-.355.54 0 1.049.205 1.588.422 3.3 1.526 7.204.831 9.747-1.71 3.355-3.358 3.355-8.82 0-12.174-1.625-1.625-3.786-2.52-6.086-2.52zm3.673 8.06c.513 0 .93.416.93.93 0 .515-.417.931-.93.931-.514 0-.934-.416-.934-.93 0-.515.412-.93.925-.93h.009zm-3.73 0c.513 0 .93.416.93.93 0 .515-.417.931-.93.931-.514 0-.935-.416-.935-.93 0-.515.412-.93.926-.93h.009zm-3.73 0c.513 0 .93.416.93.93 0 .515-.417.931-.93.931-.514 0-.935-.416-.935-.93 0-.515.412-.93.926-.93h.008z" clip-rule="evenodd"/>
</svg>
