<svg width="16" height="16" viewBox="0 0 16 16" fill="none" xmlns="http://www.w3.org/2000/svg">
    <path d="M3.742 14.489a2.8 2.8 0 0 1-1.964-.805l-.058-.057a2.755 2.755 0 0 1-.831-1.974 3.009 3.009 0 0 1 .889-2.142l6.888-6.813a3.853 3.853 0 0 1 5.4-.156 3.556 3.556 0 0 1 1.045 2.542 4.001 4.001 0 0 1-1.2 2.827L7.72 14.044a.445.445 0 1 1-.61-.63l6.174-6.134a3.11 3.11 0 0 0 .938-2.196 2.667 2.667 0 0 0-.782-1.91 2.964 2.964 0 0 0-4.151.155l-6.867 6.813a2.124 2.124 0 0 0-.644 1.511 1.871 1.871 0 0 0 .55 1.334l.058.057a2.062 2.062 0 0 0 2.89-.093l5.933-5.867a1.201 1.201 0 0 0 .268-1.266 1.045 1.045 0 0 0-.228-.342 1.16 1.16 0 0 0-1.627.057L5.533 9.587a.445.445 0 0 1-.627-.631l4.107-4.067a2.053 2.053 0 0 1 2.88-.058 1.924 1.924 0 0 1 .551 1.391 2.079 2.079 0 0 1-.626 1.485L5.902 13.59a3.071 3.071 0 0 1-2.16.898z" fill="#979797"/>
</svg>
