<svg xmlns="http://www.w3.org/2000/svg" width="16" height="16" fill="none" viewBox="0 0 16 16">
    <path fill="#6F6F71" d="M8 0C3.589 0 0 3.589 0 8s3.589 8 8 8 8-3.589 8-8-3.589-8-8-8zm2.896 10.027c.06.056.108.124.14.2.034.075.051.156.052.238.001.082-.014.163-.045.24-.031.076-.077.145-.135.203-.058.058-.127.104-.204.135-.076.03-.157.046-.24.045-.081-.001-.162-.018-.238-.051-.075-.033-.143-.08-.2-.14L8 8.87l-2.027 2.027c-.116.11-.27.17-.431.169-.16-.002-.314-.067-.428-.18-.113-.114-.178-.267-.18-.428-.002-.16.059-.315.17-.431L7.13 8 5.103 5.973c-.11-.116-.17-.27-.169-.431.002-.16.067-.314.18-.428.114-.113.267-.178.428-.18.16-.002.315.059.431.17L8 7.13l2.027-2.027c.116-.11.27-.17.431-.169.16.002.314.067.428.18.113.114.178.267.18.428.002.16-.059.315-.17.431L8.87 8l2.027 2.027z"/>
</svg>
