<svg xmlns="http://www.w3.org/2000/svg" width="22" height="21" fill="none" viewBox="0 0 22 21">
    <path fill="#6F6F71" fill-rule="evenodd" d="M4.77 0c1.145.016 1.96.873 2.992 1.958.255.267.53.56.839.867 1.494 1.495 1.07 2.715.726 3.695-.373 1.068-.696 1.99 1.236 3.922 1.932 1.932 2.853 1.61 3.92 1.233.981-.342 2.198-.77 3.695.725.305.305.592.577.858.83 1.089 1.037 1.95 1.855 1.964 3.003.01.977-.583 1.975-2.05 3.441l-.65-.44.55.536c-.324.333-1.188 1.22-2.879 1.23h-.03c-2.553 0-5.882-2.032-9.893-6.043C2.02 10.93-.015 7.592 0 5.034c.01-1.69.895-2.556 1.228-2.88l.029-.031.069-.07C2.796.583 3.806-.02 4.77.001zm-.019 1.537h-.008c-.46 0-1.159.461-2.133 1.407l-.196.193h.003l-.046.047-.068.069c-.248.24-.761.742-.766 1.79-.008 1.465.955 4.187 5.597 8.827 4.619 4.618 7.336 5.594 8.806 5.594h.022c1.048-.007 1.548-.52 1.788-.767.073-.075.133-.13.174-.165 1.022-1.027 1.544-1.79 1.54-2.28-.007-.5-.629-1.09-1.488-1.91-.274-.258-.57-.542-.884-.856-.814-.81-1.214-.672-2.1-.36-1.224.429-2.901 1.017-5.514-1.598-2.615-2.613-2.029-4.29-1.601-5.515.309-.886.45-1.288-.362-2.101-.318-.318-.603-.62-.867-.896-.813-.854-1.4-1.472-1.897-1.479zm8.818 2.108c2.132.414 3.778 2.059 4.193 4.191.08.418-.19.82-.607.902-.05.01-.1.014-.148.014-.36 0-.681-.254-.753-.62-.295-1.517-1.464-2.685-2.978-2.98-.417-.08-.688-.483-.607-.9.08-.417.49-.69.9-.607zM13.508.006c4.177.464 7.421 3.704 7.89 7.88.046.423-.257.803-.678.85-.028.003-.058.005-.087.005-.386 0-.718-.29-.762-.682-.388-3.458-3.074-6.142-6.533-6.526-.421-.047-.726-.426-.678-.848.046-.421.421-.732.848-.679z" clip-rule="evenodd"/>
</svg>
