<svg width="17" height="17" fill="none" xmlns="http://www.w3.org/2000/svg">
    <path d="M15.14 2.656H1.86C.833 2.656 0 3.49 0 4.516v7.968c0 1.026.834 1.86 1.86 1.86h13.28c1.026 0 1.86-.834 1.86-1.86V4.516c0-1.026-.834-1.86-1.86-1.86zM1.86 3.72h13.28c.44 0 .797.357.797.797v1.062H1.063V4.516c0-.44.357-.797.796-.797zm13.28 9.562H1.86a.798.798 0 0 1-.798-.797V6.641h14.876v5.843c0 .44-.358.797-.797.797z" fill="#979797"/>
    <path d="M3.719 11.688h-.531a.531.531 0 0 1-.532-.532v-.531c0-.293.238-.531.531-.531h.532c.293 0 .531.238.531.531v.531a.531.531 0 0 1-.531.531z" fill="#979797"/>
</svg>
