<svg xmlns="http://www.w3.org/2000/svg" width="13" height="15" fill="none" viewBox="0 0 13 15">
    <path fill="#F12711" fill-rule="evenodd" d="M11.237 5.04c.283.025.494.296.472.606-.004.05-.376 5.084-.59 7.196-.133 1.31-.925 2.107-2.12 2.131-.913.017-1.795.027-2.657.027-.93 0-1.836-.011-2.732-.031-1.147-.025-1.94-.838-2.07-2.122-.216-2.13-.586-7.15-.589-7.201-.023-.31.188-.581.471-.606.28-.008.532.206.554.515.002.033.154 2.083.318 4.111l.033.405c.083 1.009.167 1.977.236 2.652.073.73.433 1.106 1.068 1.12 1.715.04 3.464.043 5.35.005.675-.014 1.04-.383 1.115-1.13.213-2.096.583-7.112.587-7.163.023-.309.273-.525.554-.515zM7.78 0c.63 0 1.183.464 1.346 1.13l.174.945c.056.31.305.537.593.542h2.25c.284 0 .515.252.515.562 0 .31-.23.563-.514.563H.515C.23 3.742 0 3.49 0 3.179c0-.31.23-.562.514-.562l2.25-.001.07-.005c.258-.036.472-.25.525-.536l.166-.912C3.695.464 4.248 0 4.878 0H7.78zm0 1.125H4.878c-.165 0-.31.12-.351.294l-.16.878c-.02.11-.05.218-.088.32h4.1c-.037-.102-.067-.21-.087-.32l-.167-.912c-.035-.14-.18-.26-.344-.26z" clip-rule="evenodd"/>
</svg>
