<svg xmlns="http://www.w3.org/2000/svg" width="20" height="23" fill="none" viewBox="0 0 20 23">
    <path fill="#F12711" fill-rule="evenodd" d="M17.204 7.716c.434.04.757.454.723.928-.007.078-.576 7.784-.904 11.017-.203 2.006-1.415 3.226-3.244 3.263-1.4.027-2.75.041-4.07.041-1.423 0-2.81-.017-4.182-.048-1.756-.038-2.97-1.282-3.17-3.248-.33-3.261-.896-10.948-.901-11.025-.036-.474.288-.89.721-.928.428-.012.814.316.849.79.003.049.234 3.188.487 6.294l.05.62c.127 1.543.256 3.027.36 4.06.113 1.117.664 1.693 1.636 1.715 2.625.06 5.304.064 8.192.007 1.033-.022 1.591-.587 1.707-1.73.325-3.21.892-10.889.899-10.967.034-.473.418-.804.847-.789zM11.913 0c.964 0 1.811.71 2.06 1.73l.267 1.447c.086.475.467.822.908.83h3.446c.434 0 .787.385.787.86 0 .476-.353.862-.787.862h-3.431l-.026-.001H.788c-.435 0-.788-.385-.788-.86 0-.476.353-.862.788-.862h3.445l.106-.008c.395-.056.723-.384.803-.82l.255-1.397C5.657.711 6.505 0 7.469 0h4.445zm0 1.722H7.468c-.252 0-.473.185-.537.45l-.245 1.344c-.031.17-.077.334-.134.49h6.278c-.058-.156-.104-.32-.135-.49L12.44 2.12c-.054-.213-.275-.398-.527-.398z" clip-rule="evenodd"/>
</svg>
