<svg width="12" height="12" fill="none"
    xmlns="http://www.w3.org/2000/svg">
    <path d="M.35 3.842c-.246.314-.364.65-.349.996.015.382.186.68.327.863-.164.407-.226 1.047.318 1.544.4.364 1.077.527 2.015.481.66-.03 1.212-.153 1.235-.158h.002c.126-.022.259-.05.394-.08.01.16-.017.56-.313 1.458-.352 1.07-.332 1.887.065 2.434.417.575 1.082.62 1.277.62a.63.63 0 0 0 .485-.22c.278-.324.245-.922.21-1.198.332-.888 1.26-3.066 2.046-3.671a.27.27 0 0 0 .04-.035c.23-.244.386-.507.492-.738.148.08.316.125.496.125h1.531c.577 0 1.044-.469 1.044-1.043V1.142c0-.577-.47-1.044-1.044-1.044h-1.53c-.224 0-.432.07-.603.19l-.59-.07A25.265 25.265 0 0 0 4.553.035C4.255.013 3.973 0 3.713 0c-.45 0-.84.035-1.167.105-.768.164-1.292.49-1.559.969-.203.366-.203.73-.17.961-.5.452-.587.951-.57 1.303.01.203.055.376.103.504zM10.621.775c.203 0 .367.166.367.367v4.08a.367.367 0 0 1-.367.366h-1.53a.367.367 0 0 1-.367-.366V1.144c0-.203.166-.366.366-.366h1.531V.775zM.993 4.135a.337.337 0 0 0 .045-.409c0-.002-.103-.178-.116-.419-.017-.328.14-.62.472-.868a.342.342 0 0 0 .115-.386c0-.003-.107-.334.068-.648.168-.3.542-.517 1.11-.637C3.14.67 3.756.652 4.515.713h.035A24.77 24.77 0 0 1 7.813.89h.003l.253.03c-.015.07-.023.145-.023.22v4.081c0 .108.018.213.048.311-.045.168-.17.542-.467.861-1.126.893-2.228 3.907-2.276 4.038a.318.318 0 0 0-.015.168c.043.28.028.625-.032.728-.133-.003-.492-.04-.708-.34-.256-.353-.246-.986.03-1.824.422-1.277.457-1.95.123-2.246a.547.547 0 0 0-.547-.097 7.086 7.086 0 0 1-.437.087l-.032.008c-.77.168-2.15.271-2.63-.166-.407-.371-.118-.863-.085-.916a.336.336 0 0 0-.06-.436c-.003-.003-.267-.251-.28-.585-.01-.223.096-.452.315-.677z" fill="#6F6F71"/>
</svg>
