<svg xmlns="http://www.w3.org/2000/svg" width="23" height="21" fill="none" viewBox="0 0 23 21">
    <path fill="#6F6F71" fill-rule="evenodd" d="M6.1 5.379c.47 0 .852.382.852.852s-.381.853-.852.853H5.03c-1.834 0-3.325 1.49-3.325 3.323v5.552c0 1.84 1.496 3.336 3.336 3.336h12.661c1.832 0 3.325-1.492 3.325-3.324V10.42c0-1.84-1.497-3.336-3.335-3.336h-1.06c-.47 0-.852-.382-.852-.853 0-.47.382-.852.853-.852h1.059c2.779 0 5.04 2.262 5.04 5.04v5.552c0 2.773-2.258 5.029-5.03 5.029H5.041C2.26 21 0 18.74 0 15.96v-5.553C0 7.634 2.256 5.38 5.03 5.38H6.1zM11.367 0c.47 0 .852.382.852.852v11.623l1.858-1.866c.332-.334.871-.334 1.205-.002.333.331.334.871.002 1.206l-3.306 3.319c-.032.033-.067.064-.105.091l.097-.084c-.036.037-.076.07-.118.1-.026.018-.052.034-.08.049l-.04.02c-.025.012-.05.023-.076.032l-.04.013c-.031.01-.064.018-.098.024l-.021.003c-.027.005-.056.008-.085.01h-.045l-.046-.003-.07-.004-.015-.002.13.01c-.05 0-.1-.005-.15-.014-.034-.006-.067-.014-.099-.024l-.038-.012c-.026-.01-.052-.02-.077-.032l-.045-.023-.061-.037-.04-.029c-.033-.024-.063-.05-.092-.08l-3.315-3.328c-.332-.334-.33-.874.002-1.205.334-.332.873-.332 1.205.002l1.857 1.866.001-11.623c0-.47.382-.852.853-.852z" clip-rule="evenodd"/>
</svg>
