<svg xmlns="http://www.w3.org/2000/svg" width="17" height="15" fill="none" viewBox="0 0 17 15">
    <path fill="#fff" fill-rule="evenodd" d="M4.357 3.842c.336 0 .609.273.609.609 0 .336-.273.609-.609.609h-.764c-1.31 0-2.375 1.064-2.375 2.374v3.965c0 1.315 1.068 2.383 2.383 2.383h9.043c1.31 0 2.375-1.066 2.375-2.374V7.443c0-1.315-1.07-2.383-2.382-2.383h-.757c-.336 0-.608-.273-.608-.61 0-.335.272-.608.608-.608h.757c1.985 0 3.6 1.616 3.6 3.6v3.966c0 1.98-1.612 3.592-3.593 3.592H3.601C1.616 15 0 13.385 0 11.4V7.433c0-1.981 1.612-3.592 3.593-3.592h.764zM8.12 0c.336 0 .609.273.609.609V8.91l1.327-1.333c.237-.239.622-.239.86-.002.239.237.24.623.003.861L8.556 10.81c-.023.023-.048.045-.075.065l.07-.06c-.027.026-.055.05-.086.071-.018.013-.037.024-.056.035l-.029.014c-.018.009-.036.017-.054.023l-.029.01c-.022.007-.046.012-.07.017l-.015.002-.06.006-.033.001-.032-.002-.05-.003-.011-.002.093.007c-.036 0-.072-.003-.107-.01-.025-.004-.048-.01-.071-.016l-.027-.01c-.019-.006-.037-.014-.055-.022-.011-.005-.022-.01-.033-.017l-.043-.026-.029-.02c-.023-.018-.045-.037-.065-.057l-.001-.001-2.367-2.377c-.237-.238-.237-.624.001-.86.239-.238.624-.238.86 0L7.51 8.912V.609c0-.336.273-.609.61-.609z" clip-rule="evenodd"/>
</svg>
