<svg xmlns="http://www.w3.org/2000/svg" width="15" height="15" fill="none" viewBox="0 0 15 15">
    <path fill="#6F6F71" fill-rule="evenodd" d="M6.99.027c.305 0 .553.247.553.552 0 .305-.248.552-.553.552H4.237c-1.903 0-3.132 1.304-3.132 3.321v6.123c0 2.017 1.229 3.32 3.132 3.32h6.498c1.903 0 3.133-1.303 3.133-3.32V7.608c0-.304.247-.552.552-.552.305 0 .553.248.553.552v2.967c0 2.647-1.704 4.425-4.238 4.425H4.237C1.703 15 0 13.222 0 10.575V4.452C0 1.805 1.703.027 4.237.027H6.99zm6.414.647l.896.896c.437.436.677 1.016.677 1.633s-.24 1.196-.677 1.631l-5.53 5.53c-.405.406-.946.63-1.52.63H4.49c-.149 0-.291-.06-.395-.168-.104-.106-.16-.25-.157-.399l.07-2.783c.013-.554.236-1.074.628-1.467L10.142.674c.9-.899 2.363-.899 3.263 0zM9.688 2.689l-4.27 4.27c-.19.19-.299.444-.305.712L5.058 9.89H7.25c.28 0 .542-.108.74-.307l4.295-4.296L9.688 2.69zm1.234-1.234l-.454.452 2.598 2.599.454-.453c.227-.227.352-.53.352-.85 0-.322-.125-.625-.352-.852l-.896-.896c-.47-.467-1.232-.467-1.702 0z" clip-rule="evenodd"/>
</svg>
