<svg width="256" height="163" viewBox="0 0 256 163" fill="none" xmlns="http://www.w3.org/2000/svg">
    <g filter="url(#a)">
        <path d="M51.9 21.543 4.002 53.584l47.18 70.53L99.08 92.073 51.9 21.543z" fill="#fff"/>
    </g>
    <path d="m74.33 88.737-.543 3.364-23.812-3.432.542-3.364 23.812 3.432z" fill="#E0E0E0"/>
    <path d="m62.338 76.736 3.415.491-3.787 23.446-3.42-.496 3.792-23.44zM40.424 46.94c.034.046-4.764 3.32-10.72 7.3-5.954 3.978-10.808 7.171-10.843 7.12-.034-.051 4.765-3.322 10.72-7.304 5.955-3.983 10.788-7.168 10.843-7.117zM58.021 42.516c.034.051-7.949 5.447-17.827 12.056-9.879 6.608-17.93 11.923-17.956 11.876-.025-.047 7.94-5.451 17.832-12.06C49.96 47.78 57.987 42.465 58.02 42.516zM61.55 47.792c.035.052-7.948 5.452-17.827 12.06-9.878 6.609-17.93 11.924-17.955 11.872-.026-.05 7.949-5.447 17.831-12.06 9.883-6.612 17.917-11.923 17.951-11.872zM65.081 53.074c.034.05-7.949 5.451-17.827 12.055-9.878 6.604-17.93 11.928-17.93 11.877 0-.052 7.945-5.452 17.828-12.06 9.882-6.609 17.895-11.924 17.93-11.872zM68.599 58.355c.034.051-7.949 5.447-17.828 12.056-9.878 6.608-17.93 11.923-17.95 11.872-.022-.052 7.957-5.448 17.848-12.056 9.891-6.609 17.93-11.923 17.93-11.872z" fill="#E0E0E0"/>
    <g filter="url(#b)">
        <path d="M212.067 68.803 171.84 95.712l39.622 59.232 40.227-26.91-39.622-59.231z" fill="#fff"/>
    </g>
    <path d="m230.906 125.245-.457 2.826-20-2.882.461-2.826 19.996 2.882z" fill="#E0E0E0"/>
    <path d="m220.837 115.166 2.869.414-3.181 19.689-2.873-.414 3.185-19.689zM202.416 90.163c.034.05-3.991 2.804-8.994 6.147-5.004 3.343-9.085 6.015-9.119 5.977-.034-.039 3.996-2.8 8.995-6.148 4.999-3.347 9.084-6.049 9.118-5.976zM217.208 86.427c.034.051-6.664 4.594-14.942 10.14-8.277 5.544-15.052 10.01-15.086 9.959-.034-.052 6.664-4.594 14.941-10.144 8.278-5.55 15.04-10.006 15.087-9.955zM220.175 90.859c.034.051-6.664 4.593-14.942 10.143-8.277 5.55-15.052 10.006-15.086 9.955-.035-.051 6.642-4.572 14.941-10.122s15.061-10.023 15.087-9.976zM223.138 95.285c.034.052-6.669 4.594-14.942 10.144-8.273 5.549-15.052 10.006-15.086 9.955-.035-.051 6.663-4.589 14.941-10.143s15.057-9.998 15.087-9.956zM226.126 99.73c.034.051-6.664 4.589-14.942 10.139-8.277 5.549-15.052 10.006-15.086 9.959-.034-.047 6.664-4.593 14.941-10.143 8.278-5.549 15.031-10.006 15.087-9.955z" fill="#E0E0E0"/>
    <g filter="url(#c)">
        <path d="M148.426 24.138 104.533.662 69.966 65.293l43.892 23.476 34.568-64.63z" fill="#fff"/>
    </g>
    <path d="m106.347 68.548-2.783.952-7.07-19.539 2.784-.956 7.069 19.543z" fill="#E0E0E0"/>
    <path d="m110.614 54.53 1.016 2.804-19.407 6.647-1.016-2.805 19.407-6.647zM124.404 25.7c-.034.065-4.482-2.249-9.943-5.165-5.46-2.915-9.852-5.336-9.818-5.4.034-.064 4.487 2.25 9.947 5.166 5.46 2.915 9.848 5.332 9.814 5.4zM134.94 37.325c-.034.064-7.402-3.812-16.457-8.653-9.054-4.841-16.363-8.82-16.329-8.884.035-.064 7.399 3.808 16.453 8.653 9.055 4.845 16.367 8.82 16.333 8.884zM132.352 42.162c-.034.064-7.402-3.808-16.457-8.65-9.054-4.84-16.363-8.823-16.328-8.887.034-.064 7.398 3.812 16.452 8.653 9.055 4.841 16.368 8.82 16.333 8.884zM129.766 46.999c-.034.064-7.402-3.808-16.456-8.65-9.055-4.84-16.364-8.806-16.33-8.883.035-.077 7.399 3.808 16.453 8.649 9.055 4.841 16.368 8.82 16.333 8.884zM127.179 51.835c-.035.064-7.403-3.808-16.457-8.649-9.055-4.84-16.368-8.82-16.33-8.883.04-.064 7.399 3.808 16.453 8.649 9.055 4.84 16.368 8.82 16.334 8.883z" fill="#E0E0E0"/>
    <path d="m85.676 69.475-15.113 77.61-1.963 10.16 100.748-.486c4.525-.022 8.538-4.039 9.985-10.007l17.87-73.269c1.106-4.53-1.319-9.242-4.751-9.238l-101.995.107c-2.22-.004-4.21 2.096-4.781 5.123z" fill="#E8505B"/>
    <path opacity=".5" d="m85.676 69.475-15.113 77.61-1.963 10.16 100.748-.486c4.525-.022 8.538-4.039 9.985-10.007l17.87-73.269c1.106-4.53-1.319-9.242-4.751-9.238l-101.995.107c-2.22-.004-4.21 2.096-4.781 5.123z" fill="#000"/>
    <path d="m159.695 141.817-10.672-85.982c-.427-3.522-3.24-6.151-6.557-6.139l-23.394.073a6.404 6.404 0 0 0-4.624 2.049L103.349 63.63l-65.06.35c-3.974.022-7.03 3.787-6.506 8.013l9.909 79.468c.427 3.517 3.24 6.143 6.548 6.139l113.406-.227c12.628.261 13.836-3.466 13.836-3.466-14.497 3.206-15.787-12.069-15.787-12.09z" fill="#E8505B"/>
    <g opacity=".5" fill="#fff">
        <path opacity=".5" d="m110.795 124.621-3.825 4.107-29.456-26.502 3.825-4.107 29.456 26.502z"/>
        <path opacity=".5" d="m105.369 97.21 4.226 3.804-26.651 28.623-4.231-3.803 26.656-28.624z"/>
    </g>
    <defs>
        <filter id="a" x=".002" y="21.543" width="103.078" height="110.57" filterUnits="userSpaceOnUse" color-interpolation-filters="sRGB">
            <feFlood flood-opacity="0" result="BackgroundImageFix"/>
            <feColorMatrix in="SourceAlpha" values="0 0 0 0 0 0 0 0 0 0 0 0 0 0 0 0 0 0 127 0" result="hardAlpha"/>
            <feOffset dy="4"/>
            <feGaussianBlur stdDeviation="2"/>
            <feColorMatrix values="0 0 0 0 0 0 0 0 0 0 0 0 0 0 0 0 0 0 0.05 0"/>
            <feBlend in2="BackgroundImageFix" result="effect1_dropShadow_3670_5280"/>
            <feBlend in="SourceGraphic" in2="effect1_dropShadow_3670_5280" result="shape"/>
        </filter>
        <filter id="b" x="167.84" y="68.803" width="87.85" height="94.141" filterUnits="userSpaceOnUse" color-interpolation-filters="sRGB">
            <feFlood flood-opacity="0" result="BackgroundImageFix"/>
            <feColorMatrix in="SourceAlpha" values="0 0 0 0 0 0 0 0 0 0 0 0 0 0 0 0 0 0 127 0" result="hardAlpha"/>
            <feOffset dy="4"/>
            <feGaussianBlur stdDeviation="2"/>
            <feColorMatrix values="0 0 0 0 0 0 0 0 0 0 0 0 0 0 0 0 0 0 0.05 0"/>
            <feBlend in2="BackgroundImageFix" result="effect1_dropShadow_3670_5280"/>
            <feBlend in="SourceGraphic" in2="effect1_dropShadow_3670_5280" result="shape"/>
        </filter>
        <filter id="c" x="65.965" y=".662" width="86.461" height="96.106" filterUnits="userSpaceOnUse" color-interpolation-filters="sRGB">
            <feFlood flood-opacity="0" result="BackgroundImageFix"/>
            <feColorMatrix in="SourceAlpha" values="0 0 0 0 0 0 0 0 0 0 0 0 0 0 0 0 0 0 127 0" result="hardAlpha"/>
            <feOffset dy="4"/>
            <feGaussianBlur stdDeviation="2"/>
            <feColorMatrix values="0 0 0 0 0 0 0 0 0 0 0 0 0 0 0 0 0 0 0.05 0"/>
            <feBlend in2="BackgroundImageFix" result="effect1_dropShadow_3670_5280"/>
            <feBlend in="SourceGraphic" in2="effect1_dropShadow_3670_5280" result="shape"/>
        </filter>
    </defs>
</svg>
