<svg xmlns="http://www.w3.org/2000/svg" width="14" height="15" fill="none" viewBox="0 0 14 15">
    <path fill="#6F6F71" fill-rule="evenodd" d="M10.54 0c1.829 0 3.319 1.489 3.319 3.319v8.354c0 1.835-1.494 3.327-3.328 3.327H6.868c-1.83 0-3.318-1.489-3.318-3.319v-.706c0-.31.252-.563.562-.563.31 0 .563.252.563.563v.706c0 1.21.984 2.194 2.193 2.194h3.663c1.215 0 2.202-.987 2.202-2.202V3.319c0-1.21-.984-2.194-2.193-2.194H6.876c-1.214 0-2.201.987-2.201 2.2v.7c0 .31-.252.563-.563.563-.31 0-.562-.252-.562-.563v-.7C3.55 1.492 5.042 0 6.876 0h3.664zM7.794 4.915l2.197 2.187c.018.018.034.037.05.057l-.05-.057c.03.03.056.062.078.097l.015.026c.008.013.016.028.022.042l.012.031c.007.014.012.029.016.044l.008.035c.004.014.007.029.009.043 0 .007 0 .014.002.02.003.02.004.04.004.06l-.006.06v.02l.006-.08c0 .042-.005.083-.014.123l-.01.035c-.003.015-.008.03-.014.044l-.014.03c-.005.015-.013.03-.02.044l-.016.025c-.009.014-.018.028-.028.04l-.02.024-.03.033-2.197 2.187c-.11.109-.253.164-.397.164-.144 0-.288-.055-.398-.166-.22-.22-.218-.576.002-.795l1.23-1.226H.563C.252 8.063 0 7.811 0 7.5c0-.31.252-.563.563-.563H8.23l-1.23-1.226c-.22-.219-.222-.574-.002-.795.22-.22.575-.22.795-.001z" clip-rule="evenodd"/>
</svg>
