<svg xmlns="http://www.w3.org/2000/svg" width="18" height="20" fill="none" viewBox="0 0 18 20">
    <path fill="#6F6F71" d="M5.204 2.324c.18-.084.387-.093.574-.025.187.068.339.208.423.388.084.18.093.387.025.574-.068.187-.208.339-.388.423-1.297.604-2.394 1.566-3.162 2.773-.769 1.206-1.177 2.607-1.176 4.038 0 4.148 3.358 7.51 7.499 7.51s7.499-3.362 7.499-7.51c0-1.428-.406-2.826-1.171-4.031-.766-1.205-1.86-2.167-3.152-2.773-.09-.041-.17-.1-.237-.173-.067-.073-.119-.158-.153-.25-.034-.094-.049-.192-.044-.291.004-.099.028-.196.07-.285.042-.09.101-.17.174-.237.073-.066.159-.117.252-.15.093-.034.192-.049.29-.044.099.005.196.03.285.072 1.55.727 2.862 1.88 3.78 3.326.92 1.446 1.407 3.123 1.406 4.836 0 4.976-4.029 9.01-9 9.01C4.029 19.504 0 15.47 0 10.494 0 8.778.489 7.098 1.41 5.65 2.334 4.203 3.65 3.05 5.205 2.324zM9 0c.181 0 .356.066.493.185s.225.283.25.463L9.75.75v7.5c0 .19-.072.373-.202.512s-.307.223-.497.236c-.19.013-.377-.047-.524-.166-.148-.12-.244-.292-.27-.48L8.25 8.25V.75c0-.199.079-.39.22-.53C8.61.079 8.8 0 9 0z"/>
</svg>
