<svg xmlns="http://www.w3.org/2000/svg" width="15" height="12" fill="none" viewBox="0 0 15 12">
    <path fill="#979797" fill-rule="evenodd" d="M7.453 0c3.082.002 5.85 2.162 7.404 5.78.06.14.06.3 0 .44-1.554 3.618-4.322 5.778-7.404 5.78H7.45c-3.082-.002-5.85-2.162-7.404-5.78-.06-.14-.06-.3 0-.44C1.6 2.161 4.368.001 7.45 0h.004zm-.002 1.118C4.89 1.118 2.556 2.938 1.17 6c1.386 3.061 3.72 4.882 6.28 4.882 2.562 0 4.896-1.82 6.282-4.882-1.386-3.061-3.72-4.882-6.281-4.882zm0 1.967c1.607 0 2.915 1.308 2.915 2.915S9.058 8.914 7.45 8.914C5.843 8.914 4.537 7.607 4.537 6c0-1.607 1.306-2.915 2.914-2.915zm0 1.118c-.991 0-1.797.806-1.797 1.797 0 .99.806 1.796 1.797 1.796.99 0 1.797-.806 1.797-1.796S8.442 4.203 7.45 4.203z" clip-rule="evenodd"/>
</svg>
