<svg xmlns="http://www.w3.org/2000/svg" width="20" height="16" fill="none" viewBox="0 0 20 16">
    <path fill="#424242" fill-rule="evenodd" d="M9.938 0c4.109.003 7.798 2.883 9.87 7.705.082.188.082.4 0 .589-2.07 4.823-5.761 7.703-9.87 7.706h-.006c-4.11-.003-7.8-2.883-9.872-7.706-.08-.188-.08-.4 0-.589C2.133 2.883 5.824.003 9.932 0h.006zm-.003 1.49C6.52 1.491 3.407 3.918 1.56 8c1.847 4.082 4.96 6.509 8.375 6.51 3.414-.001 6.527-2.428 8.375-6.51-1.848-4.082-4.96-6.509-8.375-6.51zm0 2.624c2.142 0 3.886 1.743 3.886 3.886 0 2.142-1.744 3.885-3.887 3.885S6.05 10.142 6.05 8c0-2.143 1.742-3.886 3.885-3.886zm0 1.49C8.612 5.604 7.538 6.679 7.538 8c0 1.32 1.074 2.395 2.395 2.395 1.322 0 2.397-1.074 2.397-2.395s-1.075-2.396-2.397-2.396z" clip-rule="evenodd"/>
</svg>
