<svg xmlns="http://www.w3.org/2000/svg" width="19" height="16" fill="none" viewBox="0 0 19 16">
    <path fill="#424242" fill-rule="evenodd" d="M17.06.204c.27.27.27.71 0 .982L2.447 15.796c-.135.136-.313.204-.49.204-.178 0-.356-.068-.491-.204-.272-.271-.272-.71 0-.982l1.826-1.825C1.983 11.791.873 10.176.057 8.275c-.076-.176-.076-.374 0-.55.946-2.189 2.278-4.001 3.852-5.24C6.96.071 10.97-.057 14.143 2.138L16.077.204c.272-.272.71-.272.982 0zm-.344 4.465c.671.89 1.26 1.92 1.752 3.055.077.176.077.376 0 .551-1.942 4.499-5.383 7.184-9.205 7.184-.868 0-1.731-.14-2.565-.418-.364-.121-.561-.515-.44-.879.121-.365.513-.558.879-.44.692.231 1.407.348 2.126.348 3.175 0 6.077-2.262 7.808-6.07-.422-.925-.914-1.764-1.464-2.495-.23-.307-.17-.743.137-.974.305-.23.742-.168.972.138zM4.77 3.576C3.44 4.623 2.298 6.148 1.455 8.002c.735 1.623 1.7 2.992 2.822 4.003l1.98-1.98c-.403-.593-.62-1.292-.62-2.023 0-2.001 1.627-3.629 3.626-3.629.725 0 1.434.221 2.025.62l1.854-1.853c-2.643-1.709-5.859-1.553-8.372.436zm7.491 4.262c.378.067.63.428.562.806-.266 1.476-1.435 2.647-2.91 2.915-.041.008-.084.011-.125.011-.329 0-.621-.235-.682-.57-.069-.377.181-.74.56-.808.907-.165 1.626-.885 1.789-1.794.068-.377.43-.625.806-.56zM9.263 5.763c-1.233 0-2.236 1.004-2.236 2.239 0 .357.084.701.242 1.01l3.006-3.006c-.31-.158-.657-.243-1.012-.243z" clip-rule="evenodd"/>
</svg>
