<svg xmlns="http://www.w3.org/2000/svg" width="22" height="22" fill="none" viewBox="0 0 22 22">
    <path fill="#6F6F71" d="M11 0C4.925 0 0 4.925 0 11s4.925 11 11 11 11-4.925 11-11S17.075 0 11 0zm0 20.134c-5.043 0-9.134-4.09-9.134-9.134 0-5.043 4.09-9.134 9.134-9.134 5.043 0 9.134 4.09 9.134 9.134 0 5.043-4.09 9.134-9.134 9.134z"/>
    <path fill="#6F6F71" d="M13.792 6.067c-.75-.69-1.74-1.067-2.79-1.067C9.95 5 8.96 5.38 8.21 6.067 7.43 6.782 7 7.744 7 8.774v.2c0 .115.09.21.2.21h1.2c.11 0 .2-.095.2-.21v-.2c0-1.156 1.078-2.097 2.401-2.097 1.323 0 2.401.941 2.401 2.097 0 .815-.55 1.562-1.403 1.906-.53.212-.98.584-1.303 1.072-.328.498-.498 1.095-.498 1.7v.564c0 .116.09.21.2.21h1.2c.111 0 .201-.095.201-.21v-.595c.001-.254.076-.502.213-.712.138-.21.333-.37.56-.462C14.047 11.652 15 10.289 15 8.774c.002-1.03-.428-1.992-1.208-2.707zm-3.791 10.885c0 .278.105.544.293.74.188.198.442.308.707.308.266 0 .52-.11.708-.307.187-.197.293-.463.293-.741 0-.278-.106-.545-.293-.742-.188-.196-.442-.307-.708-.307-.265 0-.52.11-.707.307-.188.197-.293.464-.293.742z"/>
</svg>
