<svg width="18" height="16" viewBox="0 0 18 16" fill="none" xmlns="http://www.w3.org/2000/svg">
    <path fill-rule="evenodd" clip-rule="evenodd" d="M14.478 9.77a3.127 3.127 0 0 1 3.132 3.114A3.127 3.127 0 0 1 14.478 16c-1.727 0-3.133-1.398-3.133-3.116 0-1.717 1.406-3.115 3.133-3.115zm0 1.508c-.895 0-1.624.721-1.624 1.606 0 .887.729 1.607 1.624 1.607.895 0 1.623-.72 1.623-1.607 0-.885-.728-1.606-1.623-1.606zm-7.353.89a.755.755 0 0 1 0 1.51H.785a.755.755 0 0 1 0-1.51h6.34zM3.133 0a3.128 3.128 0 0 1 3.132 3.116c0 1.718-1.405 3.115-3.132 3.115S0 4.834 0 3.116A3.129 3.129 0 0 1 3.133 0zm0 1.51c-.895 0-1.624.72-1.624 1.606 0 .886.729 1.606 1.624 1.606.895 0 1.623-.72 1.623-1.606 0-.886-.728-1.607-1.623-1.607zm13.16.906a.755.755 0 0 1 0 1.509h-6.34a.755.755 0 0 1 0-1.51h6.34z" fill="#fff"/>
</svg>
