<svg width="24" height="20" fill="none"
    xmlns="http://www.w3.org/2000/svg">
    <path fill-rule="evenodd" clip-rule="evenodd" d="M3.593 15.222a3.183 3.183 0 0 0 3.18 3.179H8.09a.8.8 0 0 1 0 1.599H6.773a4.784 4.784 0 0 1-4.78-4.778v-3.544H.8a.8.8 0 0 1 0-1.599h22.387a.8.8 0 0 1 0 1.6l-1.194-.001v3.544A4.784 4.784 0 0 1 17.213 20H15.93a.8.8 0 0 1 0-1.6h1.285a3.183 3.183 0 0 0 3.18-3.178v-3.544H3.592v3.544zM17.213 0a4.784 4.784 0 0 1 4.78 4.777v1.614a.8.8 0 0 1-1.6 0V4.777a3.183 3.183 0 0 0-3.18-3.178H15.93a.8.8 0 0 1 0-1.599h1.285zM8.09 0a.8.8 0 0 1 0 1.6H6.773a3.183 3.183 0 0 0-3.18 3.177v1.614a.8.8 0 0 1-1.6 0V4.777A4.784 4.784 0 0 1 6.774 0H8.09z" fill="#fff"/>
</svg>
