<svg width="16" height="15" viewBox="0 0 16 15" fill="none"
    xmlns="http://www.w3.org/2000/svg">
    <path d="M0.5 1.72266C0.5 1.59005 0.552678 1.46287 0.646447 1.3691C0.740215 1.27533 0.867392 1.22266 1 1.22266H15C15.1326 1.22266 15.2598 1.27533 15.3536 1.3691C15.4473 1.46287 15.5 1.59005 15.5 1.72266C15.5 1.85527 15.4473 1.98244 15.3536 2.07621C15.2598 2.16998 15.1326 2.22266 15 2.22266H1C0.867392 2.22266 0.740215 2.16998 0.646447 2.07621C0.552678 1.98244 0.5 1.85526 0.5 1.72266Z" fill="#061DDB" stroke="#6F6F71"/>
    <path d="M0.5 13.7227C0.5 13.59 0.552679 13.4629 0.646447 13.3691C0.740214 13.2753 0.867391 13.2227 1 13.2227H15C15.1326 13.2227 15.2598 13.2753 15.3536 13.3691C15.4473 13.4629 15.5 13.59 15.5 13.7227C15.5 13.8553 15.4473 13.9824 15.3536 14.0762C15.2598 14.17 15.1326 14.2227 15 14.2227H1C0.867391 14.2227 0.740214 14.17 0.646447 14.0762C0.552679 13.9824 0.5 13.8553 0.5 13.7227Z" fill="#061DDB" stroke="#6F6F71"/>
    <path d="M6.64645 7.3691C6.74022 7.27533 6.86739 7.22266 7 7.22266H15C15.1326 7.22266 15.2598 7.27533 15.3536 7.3691C15.4473 7.46287 15.5 7.59005 15.5 7.72266C15.5 7.85527 15.4473 7.98244 15.3536 8.07621C15.2598 8.16998 15.1326 8.22266 15 8.22266H7C6.86739 8.22266 6.74022 8.16998 6.64645 8.07621C6.55268 7.98244 6.5 7.85526 6.5 7.72266C6.5 7.59005 6.55268 7.46287 6.64645 7.3691Z" fill="#061DDB" stroke="#6F6F71"/>
</svg>
