<svg width="21" height="22" fill="none"
    xmlns="http://www.w3.org/2000/svg">
    <path d="M16.758 14.266a3.864 3.864 0 0 0-3.11 1.571l-6.07-3.102a3.856 3.856 0 0 0-.126-2.54l6.362-3.823a3.86 3.86 0 0 0 2.944 1.362 3.872 3.872 0 0 0 3.867-3.867A3.872 3.872 0 0 0 16.758 0a3.872 3.872 0 0 0-3.606 5.265L6.774 9.097a3.86 3.86 0 0 0-2.907-1.32A3.872 3.872 0 0 0 0 11.645a3.865 3.865 0 0 0 7.012 2.249l6.052 3.092A3.872 3.872 0 0 0 16.758 22a3.872 3.872 0 0 0 3.867-3.867 3.872 3.872 0 0 0-3.867-3.867zm0-12.977a2.581 2.581 0 0 1 2.578 2.578 2.581 2.581 0 0 1-2.578 2.578 2.581 2.581 0 0 1-2.578-2.578 2.581 2.581 0 0 1 2.578-2.578zM3.868 14.223a2.581 2.581 0 0 1-2.579-2.579 2.581 2.581 0 0 1 2.578-2.578 2.581 2.581 0 0 1 2.578 2.579 2.581 2.581 0 0 1-2.578 2.578zm12.89 6.488a2.581 2.581 0 0 1-2.578-2.578 2.581 2.581 0 0 1 2.578-2.578 2.581 2.581 0 0 1 2.578 2.578 2.581 2.581 0 0 1-2.578 2.578z" fill="#6F6F71"/>
</svg>
