<svg width="19" height="15" viewBox="0 0 19 15" fill="none"
    xmlns="http://www.w3.org/2000/svg">
    <path d="M0.956612 7.04921L1.39236 7.29441C1.39578 7.28834 1.39905 7.28288 1.40227 7.2778C1.40344 7.27595 1.4046 7.27416 1.40577 7.2724L1.40614 7.27183C1.40862 7.26807 1.41193 7.26333 1.41568 7.25829L1.4188 7.2541C1.41916 7.25363 1.41953 7.25316 1.41989 7.25269C1.42646 7.24419 1.43345 7.23602 1.44083 7.2282L1.44772 7.22134L8.10188 0.594684C8.22902 0.468068 8.43473 0.468494 8.56135 0.595636C8.67268 0.707434 8.68599 0.880821 8.60059 1.00669L8.54739 1.06806L3.32388 6.27132L2.46637 7.1255L3.67672 7.12556L18.1751 7.12622H18.1751C18.3545 7.12622 18.5 7.27168 18.5 7.45111C18.5 7.6107 18.3845 7.7441 18.2327 7.771L18.1583 7.77601L3.67457 7.77535L2.46388 7.77529L3.32172 8.62962L8.56034 13.8468L8.56038 13.8469C8.68753 13.9735 8.68797 14.1792 8.56137 14.3063C8.45004 14.4182 8.27671 14.4322 8.15048 14.3473L8.08891 14.2944L1.44774 7.68178C1.43195 7.66606 1.41839 7.6495 1.40686 7.63236C1.40058 7.62198 1.39668 7.61541 1.39349 7.60974L1.38975 7.60307L1.3869 7.59835C1.38683 7.59822 1.38675 7.59807 1.38667 7.5979C1.3814 7.58646 1.3775 7.57738 1.37459 7.56996L1.37467 7.56993L1.37114 7.56144C1.37082 7.56065 1.37003 7.55869 1.36862 7.55444C1.36551 7.5442 1.36301 7.53502 1.36115 7.52721L1.3612 7.52719L1.3594 7.52011C1.35908 7.51884 1.35855 7.51663 1.35778 7.51257C1.35604 7.50211 1.35477 7.49265 1.35394 7.48429L1.35398 7.48429L1.35326 7.47785C1.35303 7.47581 1.35276 7.47285 1.35254 7.46866L1.35242 7.46015L1.3547 7.41103C1.35554 7.40409 1.3566 7.39726 1.35786 7.39054L1.35833 7.38794C1.35878 7.38547 1.35955 7.38166 1.36071 7.37671L0.873857 7.26279M0.956612 7.04921L1.39303 7.29322C1.39045 7.29783 1.38846 7.30167 1.38723 7.30416L1.38618 7.30627C1.38176 7.31511 1.37755 7.32453 1.37342 7.33518L0.907337 7.15416M0.956612 7.04921C0.950333 7.06044 0.944336 7.07179 0.93898 7.08263C0.927454 7.10568 0.916977 7.12934 0.907337 7.15416M0.956612 7.04921C0.966921 7.03089 0.977541 7.01348 0.98877 6.99651C0.996693 6.9845 1.00547 6.972 1.01463 6.95969M0.907337 7.15416L1.37382 7.33415C1.37184 7.33926 1.37028 7.34371 1.36931 7.34666L1.36874 7.34839C1.36576 7.35736 1.36302 7.36692 1.36049 7.37761L0.873857 7.26279M0.907337 7.15416C0.902571 7.16651 0.898113 7.17896 0.894287 7.1906C0.88649 7.21405 0.879717 7.23796 0.873857 7.26279M0.873857 7.26279C0.871037 7.27485 0.868488 7.28695 0.86635 7.29875L1.40925 7.25602L1.40096 7.26244L1.39997 7.26321L1.37381 7.22942L1.01463 6.95969M1.01463 6.95969L1.36962 7.224L1.02177 6.95019L1.01463 6.95969Z" fill="#061DDB" stroke="#6F6F71"/>
</svg>
