<svg width="24" height="21" viewBox="0 0 24 21" fill="none"
    xmlns="http://www.w3.org/2000/svg">
    <path fill-rule="evenodd" clip-rule="evenodd" d="M16.8635 0C20.4497 0 23.1538 2.926 23.1538 6.80615V14.2025C23.1538 16.1883 22.4517 17.9825 21.1755 19.2554C20.0308 20.3958 18.5457 21 16.8808 21H6.26985C4.60815 21 3.12415 20.3969 1.97831 19.2554C0.702154 17.9825 0 16.1883 0 14.2025V6.80615C0 2.926 2.70415 0 6.29031 0H16.8635ZM16.8635 1.61538H6.29031C3.58185 1.61538 1.61538 3.79831 1.61538 6.80615V14.2025C1.61538 15.7565 2.14954 17.1446 3.11877 18.1106C3.95446 18.9452 5.04539 19.3846 6.27308 19.3846H16.8635C16.8657 19.3825 16.8743 19.3846 16.8808 19.3846C18.1095 19.3846 19.1994 18.9452 20.0351 18.1106C21.0054 17.1446 21.5385 15.7565 21.5385 14.2025V6.80615C21.5385 3.79831 19.572 1.61538 16.8635 1.61538ZM18.5608 6.60025C18.8418 6.94594 18.7891 7.45425 18.4434 7.7364L13.6575 11.6262C13.0523 12.1066 12.3286 12.3467 11.606 12.3467C10.8855 12.3467 10.1672 12.1087 9.56631 11.6327L4.73631 7.73855C4.38846 7.45855 4.33462 6.94917 4.61354 6.6024C4.89462 6.25671 5.40292 6.20178 5.74969 6.48071L10.5754 10.3706C11.1817 10.8509 12.0357 10.8509 12.6463 10.3662L17.4235 6.48286C17.7703 6.19963 18.2786 6.25348 18.5608 6.60025Z" fill="#6F6F71"/>
</svg>
