<svg width="15" height="17" fill="none"
    xmlns="http://www.w3.org/2000/svg">
    <path fill-rule="evenodd" clip-rule="evenodd" d="M7.118 0a4.509 4.509 0 0 1 4.258 3.032.637.637 0 1 1-1.205.416 3.234 3.234 0 0 0-3.055-2.173h-.012A3.235 3.235 0 0 0 3.87 4.491v1.14l6.486.002a3.866 3.866 0 0 1 3.86 3.86v3.646A3.866 3.866 0 0 1 10.357 17H3.861A3.865 3.865 0 0 1 0 13.139V9.494a3.868 3.868 0 0 1 2.594-3.648v-1.34C2.607 2.008 4.626 0 7.102 0h.017zm3.238 6.907H3.861a2.589 2.589 0 0 0-2.586 2.587v3.645a2.589 2.589 0 0 0 2.586 2.586h6.495a2.59 2.59 0 0 0 2.586-2.586V9.494a2.59 2.59 0 0 0-2.586-2.587zM7.109 9.734c.351 0 .637.286.637.638v1.888a.638.638 0 0 1-1.275 0v-1.888c0-.352.286-.638.638-.638z" fill="#6F6F71"/>
</svg>
