<svg xmlns="http://www.w3.org/2000/svg" width="21" height="21" fill="none" viewBox="0 0 21 21">
    <path fill="#fff" fill-rule="evenodd" d="M10.5 0c4.863 0 8.82 3.987 8.82 8.887 0 6.025-6.902 11.96-8.82 11.96-1.918 0-8.82-5.935-8.82-11.96C1.68 3.987 5.636 0 10.5 0zm0 1.604c-3.98 0-7.217 3.268-7.217 7.283 0 5.11 6.013 10.087 7.217 10.352 1.204-.266 7.216-5.244 7.216-10.352 0-4.015-3.237-7.283-7.216-7.283zm0 3.741c1.917 0 3.475 1.56 3.475 3.476s-1.558 3.473-3.474 3.473c-1.916 0-3.475-1.557-3.475-3.473 0-1.917 1.559-3.476 3.475-3.476zm0 1.604c-1.03 0-1.87.84-1.87 1.872s.84 1.87 1.87 1.87c1.032 0 1.872-.838 1.872-1.87 0-1.033-.84-1.872-1.871-1.872z" clip-rule="evenodd"/>
</svg>
