<svg width="17" height="22" viewBox="0 0 17 22" fill="none"
    xmlns="http://www.w3.org/2000/svg">
    <path fill-rule="evenodd" clip-rule="evenodd" d="M16.7405 18.0944C16.7405 21.5778 11.9635 21.9805 8.3713 21.9805L8.11423 21.9802C5.82557 21.9747 0 21.8302 0 18.0733C0 14.661 4.58498 14.205 8.14987 14.1878L8.62835 14.1875C10.9169 14.193 16.7405 14.3375 16.7405 18.0944ZM8.3713 15.7725C3.86807 15.7725 1.58527 16.5462 1.58527 18.0733C1.58527 19.6142 3.86807 20.3952 8.3713 20.3952C12.8735 20.3952 15.1552 19.6216 15.1552 18.0944C15.1552 16.5536 12.8735 15.7725 8.3713 15.7725ZM8.3713 0.980469C11.4657 0.980469 13.9821 3.49788 13.9821 6.59233C13.9821 9.68679 11.4657 12.2031 8.3713 12.2031H8.33748C5.24937 12.1936 2.74781 9.67516 2.75834 6.58916C2.75834 3.49788 5.27579 0.980469 8.3713 0.980469ZM8.3713 2.48965C6.10858 2.48965 4.26753 4.32962 4.26753 6.59233C4.26016 8.84765 6.08745 10.6866 8.34065 10.695L8.3713 11.4496V10.695C10.633 10.695 12.4729 8.85399 12.4729 6.59233C12.4729 4.32962 10.633 2.48965 8.3713 2.48965Z" fill="#6F6F71"/>
</svg>
