<svg width="18" height="18" viewBox="0 0 18 18" fill="none"
    xmlns="http://www.w3.org/2000/svg">
    <path fill-rule="evenodd" clip-rule="evenodd" d="M2.05272 2.66365C2.05446 2.66365 2.01096 2.7089 1.95614 2.76284C1.74557 2.96732 1.30965 3.3928 1.30526 4.28291C1.29834 5.52803 2.11711 7.8399 6.05955 11.7815C9.98372 15.7039 12.2921 16.5322 13.5398 16.5322H13.5581C14.4482 16.5279 14.8728 16.0911 15.0782 15.8814C15.1408 15.817 15.1913 15.77 15.227 15.7404C16.0936 14.8686 16.5373 14.2195 16.533 13.8036C16.5269 13.379 15.9987 12.8769 15.2687 12.1826C15.0364 11.9616 14.7841 11.7214 14.5178 11.4552C13.8278 10.7669 13.4859 10.8844 12.7341 11.1489C11.6943 11.5135 10.2674 12.0094 8.05035 9.79154C5.82984 7.57278 6.32667 6.14755 6.69037 5.10777C6.95315 4.356 7.07322 4.01318 6.38236 3.32232C6.11176 3.05259 5.869 2.79678 5.64538 2.56185C4.95539 1.83618 4.45769 1.31151 4.03569 1.30542H4.02873C3.61195 1.30542 2.96459 1.75091 2.04837 2.66713C2.05098 2.66452 2.05185 2.66365 2.05272 2.66365ZM13.5407 17.8374C11.3724 17.8374 8.54544 16.1111 5.13724 12.7046C1.71599 9.28427 -0.0129057 6.4486 7.25253e-05 4.27595C0.0079768 2.84028 0.760617 2.10504 1.0434 1.82922C1.05819 1.81095 1.10866 1.76135 1.12606 1.74395C2.37379 0.495352 3.21518 -0.00930795 4.05222 0.000129765C5.02413 0.0133147 5.71586 0.740722 6.59118 1.66216C6.80784 1.89013 7.04277 2.13811 7.30467 2.39914C8.57502 3.66949 8.21306 4.70578 7.92244 5.5376C7.60572 6.44512 7.33164 7.22822 8.97266 8.86923C10.6154 10.5102 11.3985 10.2362 12.3025 9.91684C13.1352 9.62622 14.1689 9.26252 15.441 10.5329C15.6986 10.7904 15.9431 11.0227 16.1684 11.2377C17.0942 12.1173 17.8251 12.8125 17.8374 13.7871C17.8477 14.618 17.3431 15.4646 16.0971 16.7115L15.5454 16.3373L16.0118 16.7933C15.736 17.0761 15.0016 17.8296 13.5651 17.8374H13.5407Z" fill="#6F6F71"/>
</svg>
