<svg width="13" height="12" fill="none"
    xmlns="http://www.w3.org/2000/svg">
    <path fill-rule="evenodd" clip-rule="evenodd" d="M6.075.617A4.09 4.09 0 0 1 9.429.193c2.41.777 3.157 3.403 2.488 5.493-1.032 3.282-5.44 5.73-5.627 5.833a.44.44 0 0 1-.427.002c-.185-.102-4.561-2.514-5.628-5.834C-.436 3.595.31.968 2.716.192a3.994 3.994 0 0 1 3.358.424zM2.99 1.04C1.043 1.668.554 3.763 1.083 5.415c.832 2.589 4.12 4.682 4.993 5.2.877-.523 4.188-2.64 4.993-5.198.53-1.653.038-3.748-1.912-4.376-.945-.304-2.047-.12-2.808.47a.445.445 0 0 1-.54.003 3.106 3.106 0 0 0-2.819-.473zm5.597 1.178a2.092 2.092 0 0 1 1.445 1.825.445.445 0 0 1-.888.073c-.039-.488-.365-.9-.83-1.05a.445.445 0 0 1 .273-.848z" fill="#424242"/>
</svg>
