<svg width="26" height="22" fill="none"
    xmlns="http://www.w3.org/2000/svg">
    <path d="M4.714 2.357A2.357 2.357 0 0 1 7.071 0h11a2.357 2.357 0 0 1 2.358 2.357v.786h.785a3.928 3.928 0 0 1 3.929 3.928v7.858a2.357 2.357 0 0 1-2.357 2.357h-2.357v2.357A2.357 2.357 0 0 1 18.07 22h-11a2.357 2.357 0 0 1-2.357-2.357v-2.357H2.357A2.357 2.357 0 0 1 0 14.929V7.07a3.929 3.929 0 0 1 3.929-3.928h.785v-.786zm1.572.786h12.571v-.786a.785.785 0 0 0-.786-.786h-11a.786.786 0 0 0-.785.786v.786zM4.714 15.714v-2.357A2.357 2.357 0 0 1 7.071 11h11a2.357 2.357 0 0 1 2.358 2.357v2.357h2.357a.786.786 0 0 0 .785-.785V7.07a2.357 2.357 0 0 0-2.357-2.357H3.93A2.357 2.357 0 0 0 1.57 7.071v7.858a.786.786 0 0 0 .786.785h2.357zm2.357-3.143a.786.786 0 0 0-.785.786v6.286a.786.786 0 0 0 .785.786h11a.785.785 0 0 0 .786-.786v-6.286a.785.785 0 0 0-.786-.786h-11z" fill="#6F6F71"/>
</svg>
