<svg width="23" height="22" viewBox="0 0 23 22" fill="none"
    xmlns="http://www.w3.org/2000/svg">
    <path fill-rule="evenodd" clip-rule="evenodd" d="M8.36639 14.1571C11.9578 14.1571 16.7328 14.5615 16.7328 18.0604C16.7328 21.7461 11.1689 21.9672 8.7823 21.9805L7.91579 21.9805C5.37109 21.9673 0 21.7474 0 18.0824C0 14.3926 5.56388 14.1712 7.95049 14.1579L8.23723 14.1571C8.28192 14.1571 8.325 14.1571 8.36639 14.1571ZM8.36639 15.8101C5.30393 15.8101 1.653 16.2035 1.653 18.0824C1.653 19.5723 3.91211 20.3283 8.36639 20.3283C12.8207 20.3283 15.0798 19.5646 15.0798 18.0604C15.0798 16.5672 12.8207 15.8101 8.36639 15.8101ZM18.4108 13.6424C21.3928 14.0887 22.0177 15.4695 22.0177 16.5483C22.0177 17.3517 21.6705 18.4394 20.0142 19.0664C19.9183 19.1028 19.8192 19.1204 19.7211 19.1204C19.3872 19.1204 19.0731 18.9165 18.9486 18.587C18.7866 18.1606 19.0015 17.6823 19.428 17.5214C20.3647 17.1666 20.3647 16.7335 20.3647 16.5483C20.3647 15.9235 19.6252 15.4959 18.1673 15.2788C17.7154 15.2105 17.4036 14.7895 17.4708 14.3388C17.5391 13.887 17.9678 13.5839 18.4108 13.6424ZM8.36639 0.980469C11.4862 0.980469 14.0252 3.51948 14.0252 6.63925C14.0318 8.14238 13.4488 9.56175 12.3865 10.6307C11.3264 11.7007 9.9103 12.2925 8.40386 12.298H8.36639C5.24553 12.298 2.70652 9.75901 2.70652 6.63925C2.70652 3.51948 5.24553 0.980469 8.36639 0.980469ZM16.1769 2.2189C18.3424 2.57374 19.9138 4.42621 19.9138 6.6225C19.9094 8.83201 18.2597 10.7297 16.0756 11.036C16.037 11.0415 15.9984 11.0437 15.9598 11.0437C15.5543 11.0437 15.2006 10.7451 15.1422 10.3318C15.0793 9.88001 15.3934 9.46125 15.8452 9.39844C17.2205 9.20559 18.2586 8.01212 18.2608 6.62139C18.2608 5.23948 17.2712 4.07357 15.9103 3.85096C15.4595 3.77603 15.1543 3.35176 15.2281 2.90104C15.302 2.45032 15.7284 2.14727 16.1769 2.2189ZM8.36639 2.63347C6.15688 2.63347 4.35952 4.43084 4.35952 6.63925C4.35952 8.84766 6.15688 10.645 8.36639 10.645H8.40056C9.46289 10.6406 10.4635 10.223 11.214 9.46588C11.9655 8.71101 12.3766 7.70709 12.3722 6.64255C12.3722 4.43084 10.5748 2.63347 8.36639 2.63347Z" fill="#6F6F71"/>
</svg>
