<svg width="14" height="16" viewBox="0 0 14 16" fill="none"
    xmlns="http://www.w3.org/2000/svg">
    <path d="M7 0C7.13261 0 7.25979 0.0526785 7.35355 0.146447C7.44732 0.240215 7.5 0.367392 7.5 0.5V2H8.5C8.89782 2 9.27936 2.15804 9.56066 2.43934C9.84196 2.72064 10 3.10218 10 3.5V7H12.5C12.8978 7 13.2794 7.15804 13.5607 7.43934C13.842 7.72064 14 8.10218 14 8.5V14.5C14 14.8978 13.842 15.2794 13.5607 15.5607C13.2794 15.842 12.8978 16 12.5 16H1.5C1.10218 16 0.720644 15.842 0.43934 15.5607C0.158035 15.2794 0 14.8978 0 14.5V8.316C1.4767e-05 8.05704 0.0670729 7.80249 0.194648 7.57713C0.322222 7.35177 0.505968 7.16328 0.728 7.03L3.728 5.23C3.8142 5.17788 3.9053 5.13433 4 5.1V3.5C4 3.10218 4.15804 2.72064 4.43934 2.43934C4.72064 2.15804 5.10218 2 5.5 2H6.5V0.5C6.5 0.367392 6.55268 0.240215 6.64645 0.146447C6.74021 0.0526785 6.86739 0 7 0ZM5 5.101C5.563 5.303 6 5.833 6 6.516V15H8V8.5C7.99984 8.18967 8.09593 7.88694 8.27503 7.63351C8.45413 7.38008 8.70742 7.18844 9 7.085V3.501C9 3.36839 8.94732 3.24121 8.85355 3.14745C8.75979 3.05368 8.63261 3.001 8.5 3.001H5.5C5.36739 3.001 5.24021 3.05368 5.14645 3.14745C5.05268 3.24121 5 3.36839 5 3.501V5.101ZM9.5 8C9.36739 8 9.24021 8.05268 9.14645 8.14645C9.05268 8.24021 9 8.36739 9 8.5V15H12.5C12.6326 15 12.7598 14.9473 12.8536 14.8536C12.9473 14.7598 13 14.6326 13 14.5V8.5C13 8.36739 12.9473 8.24021 12.8536 8.14645C12.7598 8.05268 12.6326 8 12.5 8H9.5ZM4.243 6.087L1.243 7.887C1.16873 7.9315 1.10729 7.99452 1.0647 8.0699C1.0221 8.14528 0.999809 8.23042 1 8.317V14.5C1 14.6326 1.05268 14.7598 1.14645 14.8536C1.24021 14.9473 1.36739 15 1.5 15H5V6.516C5.00002 6.42753 4.97657 6.34065 4.93203 6.26421C4.8875 6.18777 4.82349 6.12451 4.74652 6.08089C4.66956 6.03728 4.5824 6.01486 4.49394 6.01593C4.40548 6.017 4.31889 6.04153 4.243 6.087Z" fill="#6F6F71"/>
</svg>
