<svg width="14" height="16" fill="none"
    xmlns="http://www.w3.org/2000/svg">
    <rect x=".6" y=".6" width="12.8" height="14.8" rx="3.4" stroke="#424242" stroke-width="1.2"/>
    <path d="M3.772 7.16h.984c.371 0 .652.075.844.224.195.147.292.361.292.644 0 .293-.108.519-.324.676-.213.157-.513.236-.9.236h-.4V10h-.496V7.16zm.496 1.364h.424c.243 0 .42-.04.532-.12.112-.08.168-.204.168-.372 0-.157-.052-.273-.156-.348-.104-.075-.266-.112-.488-.112h-.48v.952zM7.093 7.16c.554 0 .972.119 1.252.356.282.235.424.585.424 1.052 0 .29-.064.544-.192.76a1.294 1.294 0 0 1-.536.5c-.23.115-.495.172-.796.172H6.26V7.16h.832zm.12 2.396c.344 0 .604-.083.78-.248.178-.165.268-.405.268-.72 0-.333-.09-.58-.272-.74-.182-.163-.46-.244-.836-.244h-.384v1.952h.444zm2.532-1.964v.796h1.168v.432H9.745V10h-.496V7.16h1.728v.432H9.745z" fill="#424242"/>
</svg>
