<svg width="17" height="17" fill="none"
    xmlns="http://www.w3.org/2000/svg">
    <path fill-rule="evenodd" clip-rule="evenodd" d="M7 13.381a.34.34 0 0 1 .34-.34h7.48a.34.34 0 0 1 0 .68H7.34a.34.34 0 0 1-.34-.34z" fill="#979797"/>
    <path fill-rule="evenodd" clip-rule="evenodd" d="M7 12.02c0-.563.457-1.02 1.02-1.02h6.12c.563 0 1.02.457 1.02 1.02v3.4a1.02 1.02 0 0 1-1.02 1.02H8.02A1.02 1.02 0 0 1 7 15.42v-3.4zm1.02-.34a.34.34 0 0 0-.34.34v3.4c0 .188.152.34.34.34h6.12a.34.34 0 0 0 .34-.34v-3.4a.34.34 0 0 0-.34-.34H8.02zM10.654 5.207A3.21 3.21 0 0 0 7.448 2 3.21 3.21 0 0 0 4.24 5.205a3.2 3.2 0 0 0 3.188 3.208h.02a3.21 3.21 0 0 0 3.206-3.206zm-5.551 0a2.347 2.347 0 0 1 2.345-2.345A2.347 2.347 0 0 1 9.79 5.207 2.347 2.347 0 0 1 7.448 7.55v.431l-.018-.43a2.339 2.339 0 0 1-2.327-2.345zM7.61 9.715H4.81a2.143 2.143 0 1 0 0 4.286h1.434l.32-1H4.808a1.143 1.143 0 0 1 0-2.286H7.29l.32-1zM8.661 14h1.34-1.34z" fill="#979797"/>
</svg>
