<svg width="17" height="22" fill="none"
    xmlns="http://www.w3.org/2000/svg">
    <path d="M0 16.414c0 2.133.838 3.666 2.491 4.558C3.791 21.673 5.593 22 8.164 22c2.57 0 4.373-.327 5.673-1.028 1.653-.892 2.491-2.425 2.491-4.558 0-3.375-2.06-7.45-5.055-9.236a1.684 1.684 0 0 0-.682-2.677l1.402-3.032a.43.43 0 0 0-.198-.564l-1.718-.86a.43.43 0 0 0-.385 0L8.166.81 6.639.045a.43.43 0 0 0-.384 0l-1.719.86a.43.43 0 0 0-.198.565l1.405 3.032a1.684 1.684 0 0 0-.68 2.671C2.064 8.957 0 13.035 0 16.414zM5.293 1.487 6.447.91l1.527.763a.43.43 0 0 0 .384 0L9.884.91l1.154.577-1.286 2.782a7.543 7.543 0 0 0-3.17.001L5.293 1.487zm.784 3.808a6.693 6.693 0 0 1 4.184 0 .82.82 0 0 1 .196 1.465 5.79 5.79 0 0 0-2.293-.487 5.79 5.79 0 0 0-2.286.484.823.823 0 0 1 .199-1.462zm2.087 1.838a4.99 4.99 0 0 1 2.125.493c2.856 1.337 5.18 5.279 5.18 8.788 0 1.818-.667 3.061-2.04 3.802-1.17.63-2.842.925-5.265.925-2.422 0-4.095-.294-5.265-.925-1.372-.74-2.04-1.984-2.04-3.802 0-4.105 3.334-9.281 7.305-9.281z" fill="#fff"/>
    <path d="M8.164 15.984c-.183 0-.381-.115-.558-.325a.43.43 0 1 0-.657.553c.23.274.5.464.786.56v.501a.43.43 0 1 0 .859 0v-.503c.5-.177.86-.655.86-1.215 0-.711-.579-1.29-1.29-1.29a.43.43 0 0 1 0-.859c.152 0 .313.078.465.225a.43.43 0 1 0 .598-.618 1.66 1.66 0 0 0-.633-.395v-.5a.43.43 0 1 0-.86 0v.503a1.29 1.29 0 0 0 .43 2.504.43.43 0 0 1 0 .86z" fill="#fff"/>
    <circle cx="8" cy="15" r="4.5" stroke="#fff"/>
</svg>
