<svg width="16" height="17" viewBox="0 0 16 17" fill="none"
    xmlns="http://www.w3.org/2000/svg">
    <path d="M12.544 13.0209L12.2199 13.3742L12.5593 13.7128L14.949 16.0976C14.9491 16.0976 14.9491 16.0977 14.9492 16.0977C14.9783 16.127 14.9773 16.1722 14.9498 16.1997L14.9474 16.2021C14.9351 16.2146 14.9183 16.222 14.8979 16.222C14.8793 16.222 14.8609 16.2151 14.8458 16.2002C14.8458 16.2001 14.8457 16.2001 14.8457 16.2L12.4274 13.7885L12.1108 13.4728L11.7618 13.7523C10.5745 14.7031 9.07042 15.2717 7.43507 15.2717C3.61158 15.2717 0.5 12.1601 0.5 8.33665C0.5 4.51323 3.61151 1.40234 7.43507 1.40234C11.2586 1.40234 14.3694 4.51316 14.3694 8.33665C14.3694 10.1405 13.6777 11.7852 12.544 13.0209ZM7.43507 1.54749C3.69073 1.54749 0.645149 4.59216 0.645149 8.33665C0.645149 12.0811 3.69065 15.1266 7.43507 15.1266C11.1788 15.1266 14.2242 12.081 14.2242 8.33665C14.2242 4.5922 11.1787 1.54749 7.43507 1.54749Z" fill="#061DDB" stroke="#6F6F71"/>
</svg>
