<svg xmlns="http://www.w3.org/2000/svg" width="21" height="23" fill="none" viewBox="0 0 21 23">
    <path fill="#ffffff" fill-rule="evenodd" d="M12.003 14.64c1.233 0 2.237.997 2.237 2.222v3.15c0 .264.211.475.482.481h1.952c1.539 0 2.79-1.235 2.79-2.753V8.803c-.008-.523-.257-1.014-.684-1.341l-6.754-5.386c-.906-.718-2.174-.718-3.084.002L2.234 7.46c-.443.337-.692.829-.697 1.36v8.92c0 1.518 1.25 2.753 2.789 2.753h1.97c.279 0 .504-.22.504-.49 0-.06.007-.12.02-.176v-2.965c0-1.218.997-2.214 2.221-2.222h2.962zm4.671 7.39h-1.97c-1.13-.027-2-.913-2-2.017v-3.151c0-.378-.315-.686-.701-.686H9.046c-.378.003-.69.31-.69.686v3.14c0 .077-.01.151-.032.22-.11 1.015-.977 1.808-2.027 1.808H4.326C1.94 22.03 0 20.105 0 17.74V8.813c.01-1.018.48-1.95 1.29-2.564L7.984.876c1.474-1.168 3.528-1.168 5-.002l6.742 5.378c.791.603 1.26 1.534 1.274 2.54v8.948c0 2.365-1.94 4.29-4.326 4.29z" clip-rule="evenodd"/>
</svg>
