<svg width="20" height="20" viewBox="0 0 20 20" fill="none"
    xmlns="http://www.w3.org/2000/svg">
    <path fill-rule="evenodd" clip-rule="evenodd" d="M11.228 3.612a.656.656 0 0 1 .075.052c1.127.885 1.21 2.53 1.213 5.815v.313c0 3.495-.051 5.216-1.213 6.129a.59.59 0 0 1-.076.05c-.345.197-.695.28-1.045.28-1.16 0-2.309-.912-3.204-1.622-.404-.32-1.015-.806-1.226-.827-.239-.019-.445-.026-.628-.031-.665-.024-1.19-.042-1.81-.552-.743-.613-.811-1.827-.814-2.897v-.35l.002-.18-.001-.18-.001-.35c.003-1.07.07-2.284.815-2.897.62-.51 1.146-.528 1.812-.55.182-.008.388-.014.627-.032.21-.022.82-.507 1.224-.828 1.165-.926 2.763-2.19 4.25-1.343zm-1.055.976c-.723 0-1.648.734-2.418 1.346-.74.588-1.326 1.053-1.91 1.096-.258.018-.48.027-.674.033-.623.021-.78.035-1.061.267-.322.265-.358 1.244-.36 1.979v.297l.002.184v.003l-.001.184v.298c0 .735.037 1.714.359 1.98.28.23.437.244 1.058.267.196.005.419.014.678.033.583.043 1.168.508 1.909 1.095.92.73 2.058 1.633 2.812 1.258.612-.53.695-1.907.7-4.82v-.296c0-3.117-.068-4.568-.7-5.116a.874.874 0 0 0-.394-.088zm5.645 1.822a6.826 6.826 0 0 1 0 6.765.624.624 0 1 1-1.084-.622 5.573 5.573 0 0 0 0-5.522.626.626 0 0 1 1.084-.621z" fill="#fff"/>
</svg>
