<svg width="48" height="48" viewBox="0 0 48 48" fill="none" xmlns="http://www.w3.org/2000/svg">
    <path d="m42.474 10.577-18-6a1.501 1.501 0 0 0-.948 0l-17.971 5.99-.002.001-.027.01c-.006.001-.01.004-.015.006-.065.022-.129.049-.19.08l-.021.01a1.499 1.499 0 0 0-.365.27l-.012.014a1.516 1.516 0 0 0-.124.147l-.024.031a1.5 1.5 0 0 0-.106.174l-.014.028c-.03.06-.054.121-.076.184l-.006.017a1.49 1.49 0 0 0-.05.204l-.006.043c-.01.07-.016.142-.017.214v15a1.5 1.5 0 1 0 3 0V14.081l6.297 2.1a11.995 11.995 0 0 0 3.83 16.48 17.978 17.978 0 0 0-8.715 7.02 1.5 1.5 0 1 0 2.513 1.638 15.006 15.006 0 0 1 25.15 0 1.499 1.499 0 1 0 2.513-1.638 17.978 17.978 0 0 0-8.716-7.02 11.995 11.995 0 0 0 3.83-16.48l8.272-2.758a1.5 1.5 0 0 0 0-2.846zM33 22.5a9 9 0 1 1-16.247-5.334l6.773 2.257c.308.103.64.103.948 0l6.773-2.257A8.973 8.973 0 0 1 33 22.5zM31.257 14l-.012.004L24 16.419l-7.246-2.415a.123.123 0 0 0-.01-.004l-6-2L24 7.581 37.257 12l-6 2z" fill="#000"/>
</svg>
