<svg width="48" height="48" viewBox="0 0 48 48" fill="none" xmlns="http://www.w3.org/2000/svg">
    <path d="M6 26A18 18 0 1 0 24 8M9 8l4 4m11-4H9h15zM9 8l4-4-4 4z" stroke="#fff" stroke-width="1.8" stroke-linecap="round" stroke-linejoin="round"/>
    <path d="M21.286 30h-1.654v-7.991l-2.44.834V21.44l3.882-1.428h.212V30zm3.903-4.936.54-5.017h5.346v1.435H27.11l-.273 2.38c.46-.265.98-.397 1.558-.397.948 0 1.684.303 2.209.909.528.606.793 1.422.793 2.447 0 1.012-.292 1.819-.875 2.42-.584.597-1.384.896-2.4.896-.911 0-1.668-.258-2.27-.773-.596-.52-.92-1.203-.97-2.05h1.606c.064.483.237.854.52 1.114.282.255.652.383 1.107.383.51 0 .907-.183 1.19-.547.287-.365.43-.862.43-1.49 0-.607-.157-1.085-.471-1.436-.315-.356-.748-.533-1.3-.533-.3 0-.555.04-.765.123-.21.077-.437.232-.683.465l-1.326-.329z" fill="#fff"/>
</svg>
