<svg width="20" height="20" viewBox="0 0 20 20" fill="none"
    xmlns="http://www.w3.org/2000/svg">
    <path d="M0 2.857A2.857 2.857 0 0 1 2.857 0h2.857a.714.714 0 1 1 0 1.429H2.857A1.429 1.429 0 0 0 1.43 2.857v2.857a.714.714 0 1 1-1.429 0V2.857zM13.571.714A.715.715 0 0 1 14.286 0h2.857A2.857 2.857 0 0 1 20 2.857v2.857a.714.714 0 0 1-1.429 0V2.857a1.429 1.429 0 0 0-1.428-1.428h-2.857a.714.714 0 0 1-.715-.715zM.714 13.571a.714.714 0 0 1 .715.715v2.857a1.429 1.429 0 0 0 1.428 1.428h2.857a.714.714 0 0 1 0 1.429H2.857A2.857 2.857 0 0 1 0 17.143v-2.857a.714.714 0 0 1 .714-.715zm18.572 0a.715.715 0 0 1 .714.715v2.857A2.857 2.857 0 0 1 17.143 20h-2.857a.715.715 0 0 1 0-1.429h2.857a1.429 1.429 0 0 0 1.428-1.428v-2.857a.715.715 0 0 1 .715-.715z" fill="#fff"/>
</svg>
