<svg xmlns="http://www.w3.org/2000/svg" width="15" height="15" fill="none" viewBox="0 0 15 15">
    <g fill="#41A703" clip-path="url(#clip0)">
        <path d="M11.467 6.43l-.001-.008-.008-.04V6.38l-.013-.038-.005-.01-.013-.026-.006-.012-.004-.006-.016-.022c0-.002-.002-.003-.003-.005l-.027-.03-.005-.006-.027-.023-.007-.005c-.012-.009-.024-.017-.037-.024l-5-2.842 2.879-1.813L14 4.262l-2.033 1.28c-.158.1-.206.31-.106.468.1.159.31.206.468.106l2.512-1.582c.101-.063.162-.175.159-.294-.003-.12-.068-.229-.172-.288L9.333.83c-.109-.062-.243-.06-.349.007L5.456 3.058l-.002.001-1.763 1.11-.002.002-3.53 2.223c-.101.063-.162.175-.159.295.003.119.068.228.172.287L5.667 10.1c.052.03.11.044.168.044.063 0 .125-.017.18-.052L8.529 8.51c.158-.1.206-.31.106-.468-.1-.159-.31-.206-.468-.106l-2.34 1.473L1 6.666l2.879-1.813L9.026 7.78v3.875c0 .124.067.238.175.297.051.028.108.042.164.042.063 0 .126-.017.18-.052l1.766-1.111c.099-.062.159-.17.159-.287V6.47v-.006l-.003-.034zm-1.763 4.61V7.581c0-.122-.065-.235-.171-.295L4.53 4.443l1.114-.701 4.826 2.743-.423.266c-.158.1-.206.31-.106.468.064.103.175.159.287.159.062 0 .125-.017.18-.052l.383-.241v3.27l-1.087.684z"/>
        <path d="M14.48 5.317l-2.512 1.582c-.159.1-.207.31-.107.468.065.102.175.158.288.158.062 0 .124-.017.18-.052l2.512-1.582c.16-.1.207-.31.107-.468-.1-.158-.31-.206-.468-.106zM8.166 9.293l-2.34 1.474L.507 7.744c-.163-.093-.37-.036-.463.127-.092.163-.035.37.128.463l5.495 3.123c.052.03.11.045.168.045.063 0 .126-.018.18-.053l2.513-1.581c.158-.1.206-.31.106-.468-.1-.159-.31-.207-.468-.107zM14.48 6.675l-2.512 1.582c-.159.1-.207.31-.107.468.065.103.175.159.288.159.062 0 .124-.017.18-.052l2.512-1.582c.16-.1.207-.31.107-.468-.1-.159-.31-.207-.468-.107z"/>
        <path d="M8.166 10.65l-2.34 1.474L.507 9.101c-.163-.093-.37-.036-.463.127-.092.163-.035.37.128.463l5.495 3.124c.052.03.11.044.168.044.063 0 .126-.017.18-.052l2.513-1.582c.158-.1.206-.31.106-.468-.1-.159-.31-.206-.468-.106zM14.48 8.033l-2.512 1.582c-.159.1-.207.309-.107.468.065.102.175.158.288.158.062 0 .124-.017.18-.052l2.512-1.582c.16-.1.207-.31.107-.468-.1-.159-.31-.206-.468-.106z"/>
        <path d="M8.166 12.008l-2.34 1.474-5.319-3.023c-.163-.093-.37-.036-.463.127-.092.163-.035.37.128.463l5.495 3.123c.052.03.11.045.168.045.063 0 .126-.018.18-.053l2.513-1.582c.158-.1.206-.309.106-.468-.1-.158-.31-.206-.468-.106z"/>
    </g>
    <defs>
        <clipPath id="clip0">
            <path fill="#fff" d="M0 0H15V15H0z"/>
        </clipPath>
    </defs>
</svg>
