<svg xmlns="http://www.w3.org/2000/svg" width="16" height="16" fill="none" viewBox="0 0 16 16">
    <path fill="#061DDB" d="M8.157 16h-.159c-1.254.003-2.413-.03-3.54-.098-1.033-.063-1.976-.42-2.727-1.032-.725-.591-1.22-1.39-1.471-2.375-.22-.858-.23-1.7-.242-2.513C.01 9.397.002 8.705 0 8.002c.002-.707.01-1.4.018-1.984.011-.814.023-1.655.242-2.513.25-.985.746-1.784 1.47-2.375C2.483.518 3.426.16 4.459.098 5.585.029 6.744-.002 8.001 0c1.255-.002 2.413.03 3.54.098 1.033.062 1.976.42 2.728 1.032.725.591 1.22 1.39 1.47 2.375.22.858.231 1.7.242 2.513.008.585.017 1.277.018 1.98v.003c-.001.704-.01 1.396-.018 1.98-.01.815-.022 1.656-.241 2.514-.251.985-.746 1.784-1.471 2.375-.752.612-1.695.97-2.728 1.032-1.08.066-2.188.098-3.384.098zm-.159-1.25c1.234.003 2.367-.028 3.467-.095.781-.048 1.459-.301 2.014-.754.513-.418.866-.995 1.05-1.715.182-.714.192-1.48.203-2.222.007-.58.016-1.267.017-1.964-.001-.697-.01-1.384-.018-1.965-.01-.74-.02-1.507-.202-2.22-.184-.72-.537-1.298-1.05-1.716-.555-.453-1.232-.706-2.014-.754-1.1-.067-2.233-.098-3.464-.095-1.233-.003-2.366.028-3.467.095-.781.048-1.458.301-2.013.754-.513.418-.867.995-1.05 1.715-.182.714-.193 1.48-.203 2.221-.008.581-.016 1.269-.018 1.966.002.695.01 1.383.018 1.963.01.742.02 1.508.203 2.222.183.72.537 1.297 1.05 1.715.555.453 1.232.706 2.013.754 1.1.067 2.234.098 3.464.095zm-.03-2.844c-2.153 0-3.906-1.752-3.906-3.906s1.753-3.906 3.906-3.906c2.154 0 3.907 1.752 3.907 3.906s-1.753 3.906-3.907 3.906zm0-6.562C6.504 5.344 5.312 6.535 5.312 8s1.192 2.656 2.656 2.656c1.465 0 2.657-1.191 2.657-2.656S9.433 5.344 7.968 5.344zm4.344-2.5c-.518 0-.937.42-.937.937 0 .518.42.938.937.938.518 0 .938-.42.938-.938s-.42-.937-.938-.937z"/>
</svg>
