<svg xmlns="http://www.w3.org/2000/svg" width="21" height="16" fill="none" viewBox="0 0 21 16">
    <path fill="#6F6F71" d="M10 16c.552 0 1-.448 1-1s-.448-1-1-1-1 .448-1 1 .448 1 1 1zM10 10c-1.295 0-2.539.502-3.47 1.4-.191.184-.301.437-.306.702-.005.266.096.522.28.713.185.191.437.3.703.306.265.004.522-.097.712-.28.568-.52 1.31-.81 2.08-.81s1.513.29 2.08.81c.191.183.448.284.713.28.265-.005.518-.115.703-.306.184-.19.285-.447.28-.713-.005-.265-.115-.518-.306-.702-.931-.898-2.175-1.4-3.47-1.4zm0-5c-1.208 0-2.404.245-3.515.717-1.112.473-2.117 1.164-2.956 2.033-.09.097-.162.21-.21.334-.047.124-.07.257-.066.39.004.132.034.263.088.384.054.121.132.23.228.322.195.184.456.284.724.276.133-.003.263-.033.385-.088.12-.054.23-.131.321-.228.653-.677 1.436-1.216 2.302-1.584.866-.368 1.798-.558 2.739-.558.94 0 1.872.19 2.738.558.866.368 1.649.907 2.301 1.584.093.095.204.17.325.221.122.052.253.079.386.08.195-.002.386-.06.549-.168.163-.108.29-.261.367-.441.076-.18.099-.378.064-.57-.035-.193-.126-.37-.26-.512-.844-.874-1.856-1.568-2.974-2.04-1.12-.473-2.322-.715-3.537-.71z"/>
    <path fill="#6F6F71" d="M19.72 3.93C17.11 1.413 13.626.006 10 .006 6.374.006 2.89 1.413.28 3.93c-.169.188-.26.432-.256.685.004.252.103.493.277.676.175.182.412.291.664.306.252.015.5-.066.695-.227C3.897 3.207 6.888 1.998 10 1.998s6.102 1.21 8.34 3.372c.185.179.432.279.69.28.135 0 .268-.028.392-.081.123-.054.235-.131.328-.229.182-.191.281-.447.276-.711-.006-.264-.116-.516-.306-.699z"/>
</svg>
