<svg xmlns="http://www.w3.org/2000/svg" width="23" height="21" fill="none" viewBox="0 0 23 21">
    <path fill="#6F6F71" fill-rule="evenodd" d="M8.366 13.177c3.592 0 8.367.404 8.367 3.903 0 3.686-5.564 3.907-7.95 3.92h-.867C5.37 20.987 0 20.767 0 17.102c0-3.69 5.564-3.911 7.95-3.925h.417zm0 1.653c-3.062 0-6.713.393-6.713 2.272 0 1.49 2.26 2.246 6.713 2.246 4.455 0 6.714-.764 6.714-2.268 0-1.493-2.26-2.25-6.714-2.25zm10.045-2.168c2.982.446 3.607 1.827 3.607 2.906 0 .803-.348 1.89-2.004 2.518-.096.036-.195.054-.293.054-.334 0-.648-.204-.772-.533-.162-.427.052-.905.479-1.066.937-.355.937-.788.937-.973 0-.625-.74-1.053-2.198-1.27-.452-.068-.763-.489-.696-.94.068-.452.497-.755.94-.696zM8.366 0c3.12 0 5.66 2.539 5.66 5.659.006 1.503-.577 2.922-1.64 3.991-1.06 1.07-2.476 1.662-3.982 1.668h-.038c-3.12 0-5.66-2.54-5.66-5.66C2.707 2.54 5.247 0 8.367 0zm7.81 1.238c2.166.355 3.738 2.208 3.738 4.404-.005 2.21-1.654 4.107-3.838 4.413-.039.006-.078.008-.116.008-.406 0-.76-.298-.818-.712-.063-.451.251-.87.703-.933 1.376-.193 2.414-1.386 2.416-2.777 0-1.382-.99-2.548-2.35-2.77-.451-.075-.757-.5-.683-.95.074-.451.5-.754.949-.683zm-7.81.415c-2.21 0-4.006 1.797-4.006 4.006 0 2.208 1.797 4.006 4.006 4.006h.035c1.062-.005 2.063-.423 2.813-1.18.752-.754 1.163-1.758 1.158-2.823 0-2.212-1.797-4.009-4.006-4.009z" clip-rule="evenodd"/>
</svg>
