<svg xmlns="http://www.w3.org/2000/svg" width="12" height="12" fill="none" viewBox="0 0 12 12">
    <path fill="#6F6F71" d="M11.315 8.158c.246-.314.364-.65.349-.996-.015-.382-.186-.68-.326-.863.163-.407.225-1.047-.32-1.544-.398-.364-1.076-.527-2.014-.481-.66.03-1.212.153-1.235.158h-.002c-.126.022-.259.05-.394.08-.01-.16.017-.56.313-1.458.352-1.07.332-1.887-.065-2.434C7.205.045 6.54 0 6.344 0c-.188 0-.362.078-.485.22-.278.325-.245.922-.21 1.198-.332.888-1.26 3.066-2.045 3.671-.016.01-.028.023-.04.035-.232.244-.387.507-.492.738-.149-.08-.317-.125-.497-.125H1.044C.467 5.737 0 6.206 0 6.78v4.078c0 .577.47 1.044 1.044 1.044h1.53c.224 0 .432-.07.603-.19l.59.07c.09.012 1.696.216 3.345.183.298.023.58.035.84.035.45 0 .841-.035 1.167-.105.768-.163 1.293-.49 1.559-.969.203-.366.203-.73.17-.961.5-.452.587-.951.57-1.303-.01-.203-.055-.376-.103-.504zM1.044 11.225c-.203 0-.366-.166-.366-.367v-4.08c0-.203.165-.366.366-.366h1.53c.204 0 .367.165.367.366v4.078c0 .203-.166.366-.366.366H1.044v.003zm9.628-3.36c-.105.11-.125.278-.045.409 0 .002.103.178.116.419.017.328-.14.62-.472.868-.118.09-.166.246-.115.386 0 .003.107.334-.068.648-.168.3-.542.517-1.11.637-.454.098-1.07.116-1.829.055h-.035c-1.613.035-3.244-.175-3.262-.178h-.003l-.253-.03c.015-.07.023-.146.023-.22V6.777c0-.108-.018-.213-.048-.311.045-.168.17-.542.467-.861 1.126-.893 2.228-3.907 2.276-4.038.02-.052.025-.11.015-.168-.043-.28-.028-.625.032-.727.133.002.492.04.708.338.256.354.246.986-.03 1.825-.422 1.277-.457 1.95-.123 2.246.166.148.386.155.547.097.153-.035.299-.065.437-.087l.032-.008c.77-.168 2.15-.271 2.63.166.407.371.118.863.085.916-.092.14-.065.323.06.436.003.003.267.251.28.585.01.223-.096.452-.315.677z"/>
</svg>
