<svg width="17" height="17" fill="none" xmlns="http://www.w3.org/2000/svg">
    <path fill-rule="evenodd" clip-rule="evenodd" d="M8.678 1.416c3.222 0 5.843 2.641 5.843 5.888 0 3.992-4.573 7.925-5.843 7.925-1.271 0-5.844-3.933-5.844-7.925 0-3.247 2.622-5.888 5.844-5.888zm0 1.063c-2.637 0-4.782 2.165-4.782 4.825 0 3.386 3.984 6.684 4.782 6.86.797-.177 4.781-3.475 4.781-6.86 0-2.66-2.145-4.825-4.781-4.825zm0 2.479A2.305 2.305 0 0 1 10.98 7.26a2.304 2.304 0 0 1-2.302 2.302A2.304 2.304 0 0 1 6.376 7.26a2.305 2.305 0 0 1 2.302-2.302zm0 1.062a1.24 1.24 0 1 0 .002 2.478 1.24 1.24 0 0 0-.002-2.478z" fill="#979797"/>
</svg>
