<svg xmlns="http://www.w3.org/2000/svg" width="18" height="21" fill="none" viewBox="0 0 18 21">
    <path fill="#424242" fill-rule="evenodd" d="M8.793.002c3.066 0 5.562 2.497 5.562 5.565v1.656c1.864.648 3.205 2.423 3.205 4.505v4.503c0 2.63-2.139 4.769-4.769 4.769H4.77C2.139 21 0 18.861 0 16.231v-4.503c0-2.082 1.34-3.856 3.204-4.505V5.567c.007-1.511.591-2.907 1.647-3.952C5.907.568 7.3-.038 8.793.002zm3.998 8.532H4.77c-1.762 0-3.194 1.432-3.194 3.194v4.503c0 1.762 1.432 3.194 3.194 3.194h8.022c1.76 0 3.194-1.432 3.194-3.194v-4.503c0-1.762-1.433-3.194-3.194-3.194zM8.78 12.026c.434 0 .787.353.787.788v2.331c0 .435-.353.788-.787.788-.435 0-.788-.353-.788-.788v-2.331c0-.435.353-.788.788-.788zm.01-10.45h-.017c-1.064 0-2.06.41-2.813 1.157-.758.75-1.177 1.75-1.18 2.817l-.002 1.409h8.002V5.567c0-2.2-1.79-3.99-3.99-3.99z" clip-rule="evenodd"/>
</svg>
