<svg width="16" height="16" viewBox="0 0 16 16" fill="none" xmlns="http://www.w3.org/2000/svg">
    <path fill-rule="evenodd" clip-rule="evenodd" d="M7.538 1.333a2.96 2.96 0 0 1 2.958 2.957v.622a.5.5 0 0 1-1 0V4.29c0-1.08-.878-1.957-1.958-1.957h-3.25A1.958 1.958 0 0 0 2.333 4.29v7.42c0 1.079.877 1.956 1.955 1.956h3.258c1.074 0 1.95-.874 1.95-1.949v-.629a.5.5 0 0 1 1 0v.629a2.953 2.953 0 0 1-2.95 2.95H4.288a2.96 2.96 0 0 1-2.955-2.957V4.29a2.96 2.96 0 0 1 2.955-2.957h3.25zm5.387 4.37 1.952 1.943a.497.497 0 0 1 .047.054l-.047-.054a.49.49 0 0 1 .147.354l-.003.041-.001.026v.004L15.023 8a.499.499 0 0 1-.151.358l-1.948 1.94a.498.498 0 0 1-.707-.002.5.5 0 0 1 .002-.706l1.093-1.09H6.497a.5.5 0 0 1 0-1h6.817L12.22 6.41a.5.5 0 1 1 .705-.708z" fill="#061DDB"/>
</svg>
