<svg width="62" height="77" viewBox="0 0 62 77" fill="none"
    xmlns="http://www.w3.org/2000/svg">
    <path d="M33.0998 0.797852C34.1346 0.797852 34.7796 0.797851 35.7472 0.81129C35.9353 0.81129 36.1369 0.81129 36.325 0.81129C37.6286 0.865044 38.8918 0.985992 40.155 1.2682C44.6973 2.2761 48.7423 4.23813 52.2229 7.34245C57.249 11.8175 60.1114 17.4348 61.1058 24.0601C61.1865 24.5976 61.173 25.1486 61.2133 25.6861C61.2133 26.0355 61.2133 26.6134 61.2133 26.9628C61.1999 27.151 61.2402 27.3391 61.2133 27.5138C61.2133 28.0917 61.2133 28.6695 61.2133 29.2608C61.2402 29.449 61.1999 29.6371 61.2133 29.8252C61.173 30.4703 61.1327 31.1153 61.1058 31.7604C61.0118 32.3114 61.0118 32.8758 60.9177 33.4268C60.6086 35.2947 60.2861 37.1493 59.856 38.9904C59.09 42.2425 56.8458 43.8551 53.728 44.1911C49.8577 44.6077 46.1352 45.535 42.4396 46.6638C39.7653 47.4836 37.0507 47.9539 34.2421 47.7389C31.4871 47.5239 28.8263 46.8385 26.2192 45.9381C25.7757 45.7903 25.3188 45.629 24.8485 45.4678C24.5125 45.3468 24.1765 45.6693 24.2841 46.0053C24.5663 46.9326 24.9425 47.7792 25.3323 48.6124C26.4477 50.9507 27.8453 53.0875 29.982 54.6463C33.4492 57.1728 37.5748 57.1594 41.0689 54.6866C42.453 53.7056 43.6625 52.5634 44.6973 51.2195C45.1005 50.6954 45.1811 50.6954 45.4902 51.2867C46.2965 52.8321 46.3234 54.4851 46.0143 56.138C45.4633 59.1214 44.1732 61.6747 41.6736 63.4486C41.1361 63.8383 40.155 64.2684 39.51 64.4565C39.2143 64.5506 39.1203 64.7253 39.2009 65.0747C39.4697 66.2573 39.5234 67.4533 39.4428 68.6494C39.2278 71.5521 38.1796 73.9979 35.5187 75.503C34.8334 75.8928 34.1077 76.1212 33.3417 76.3094C32.8579 76.4303 32.7235 76.3497 32.7369 75.839C32.8041 74.2264 32.7369 72.6137 32.5219 71.0011C32.0112 67.2383 30.2642 64.2415 27.1734 62.0107C24.9022 60.3712 22.4027 59.1079 20.0106 57.67C15.2264 54.8076 11.047 51.2867 8.06366 46.4891C5.72534 42.7263 4.32773 38.6275 3.72299 34.2331C3.37359 31.7066 3.29296 29.1667 3.49454 26.6268C3.66924 24.4901 3.99176 22.3802 4.63682 20.3241C4.75776 19.9479 4.71745 19.6388 4.52931 19.3162C3.88426 18.1874 3.25264 17.0451 2.60759 15.9163C1.69376 14.2768 0.954639 12.5701 0.712745 10.6752C0.712745 10.6215 0.699306 10.5812 0.685868 10.5408C0.672429 10.4065 0.645552 10.2049 0.632113 10.057C0.605236 9.64045 0.605236 9.45231 0.605236 9.11635C0.605236 8.96852 0.605235 8.83414 0.591797 8.68631C0.739622 7.83968 0.833693 7.75905 1.81471 7.85312C3.15857 7.9875 4.50243 8.01438 5.83285 8.06814C9.73005 8.2294 13.3853 7.26182 16.9063 5.60887C20.3869 3.9828 23.9078 2.42392 27.6571 1.49666C29.1488 1.13382 30.5868 1.01287 32.1994 0.878483" fill="#2B4697"/>
    <path d="M33.0998 0.797852C34.1346 0.797852 34.7796 0.797851 35.7472 0.81129C35.9353 0.81129 36.1369 0.81129 36.325 0.81129C37.6286 0.865044 38.8918 0.985992 40.155 1.2682C44.6973 2.2761 48.7423 4.23813 52.2229 7.34245C57.249 11.8175 60.1114 17.4348 61.1058 24.0601C61.1865 24.5976 61.173 25.1486 61.2133 25.6861C61.2133 26.0355 61.2133 26.6134 61.2133 26.9628C61.1999 27.151 61.2402 27.3391 61.2133 27.5138C61.2133 28.0917 61.2133 28.6695 61.2133 29.2608C61.2402 29.449 61.1999 29.6371 61.2133 29.8252C61.173 30.4703 61.1327 31.1153 61.1058 31.7604C61.0118 32.3114 61.0118 32.8758 60.9177 33.4268C60.6086 35.2947 60.2861 37.1493 59.856 38.9904C59.09 42.2425 56.8458 43.8551 53.728 44.1911C49.8577 44.6077 46.1352 45.535 42.4396 46.6638C39.7653 47.4836 37.0507 47.9539 34.2421 47.7389C31.4871 47.5239 28.8263 46.8385 26.2192 45.9381C25.7757 45.7903 25.3188 45.629 24.8485 45.4678C24.5125 45.3468 24.1765 45.6693 24.2841 46.0053C24.5663 46.9326 24.9425 47.7792 25.3323 48.6124C26.4477 50.9507 27.8453 53.0875 29.982 54.6463C33.4492 57.1728 37.5748 57.1594 41.0689 54.6866C42.453 53.7056 43.6625 52.5634 44.6973 51.2195C45.1005 50.6954 45.1811 50.6954 45.4902 51.2867C46.2965 52.8321 46.3234 54.4851 46.0143 56.138C45.4633 59.1214 44.1732 61.6747 41.6736 63.4486C41.1361 63.8383 40.155 64.2684 39.51 64.4565C39.2143 64.5506 39.1203 64.7253 39.2009 65.0747C39.4697 66.2573 39.5234 67.4533 39.4428 68.6494C39.2278 71.5521 38.1796 73.9979 35.5187 75.503C34.8334 75.8928 34.1077 76.1212 33.3417 76.3094C32.8579 76.4303 32.7235 76.3497 32.7369 75.839C32.8041 74.2264 32.7369 72.6137 32.5219 71.0011C32.0112 67.2383 30.2642 64.2415 27.1734 62.0107C24.9022 60.3712 22.4027 59.1079 20.0106 57.67C15.2264 54.8076 11.047 51.2867 8.06366 46.4891C5.72534 42.7263 4.32773 38.6275 3.72299 34.2331C3.37359 31.7066 3.29296 29.1667 3.49454 26.6268C3.66924 24.4901 3.99176 22.3802 4.63682 20.3241C4.75776 19.9479 4.71745 19.6388 4.52931 19.3162C3.88426 18.1874 3.25264 17.0451 2.60759 15.9163C1.69376 14.2768 0.954639 12.5701 0.712745 10.6752C0.712745 10.6215 0.699306 10.5812 0.685868 10.5408C0.672429 10.4065 0.645552 10.2049 0.632113 10.057C0.605236 9.64045 0.605236 9.45231 0.605236 9.11635C0.605236 8.96852 0.605235 8.83414 0.591797 8.68631C0.739622 7.83968 0.833693 7.75905 1.81471 7.85312C3.15857 7.9875 4.50243 8.01438 5.83285 8.06814C9.73005 8.2294 13.3853 7.26182 16.9063 5.60887C20.3869 3.9828 23.9078 2.42392 27.6571 1.49666C29.1488 1.13382 30.5868 1.01287 32.1994 0.878483" fill="#2B4697"/>
    <path d="M41.1771 43.0756C34.068 43.8819 27.6444 42.6187 22.4168 37.3507C19.1646 34.0717 17.337 29.9864 16.7054 25.3232C16.1544 21.2916 16.6382 17.4213 18.318 13.7525C20.952 8.05458 25.3598 4.66805 31.3266 3.56608C38.4893 2.2491 44.7517 4.33208 50.1541 9.30437C52.788 11.7368 54.7904 14.6529 56.0133 18.1067C56.7658 20.2165 57.0481 22.4473 57.2631 24.6916C57.4781 26.9089 57.5856 29.1263 57.384 31.3437C57.2093 33.3191 56.9002 35.2543 56.1074 37.0954C55.2607 39.0574 53.7422 39.8503 51.7936 40.025C48.9311 40.2669 46.4047 39.2321 43.9589 37.8883C43.045 37.391 42.185 36.8132 41.2846 36.2891C40.6126 35.8859 39.9004 35.5903 39.0941 35.6037C37.7099 35.644 36.9036 36.746 37.2396 38.1436C37.4277 38.923 37.8174 39.5815 38.3012 40.1863C38.7312 40.7104 39.1344 41.2614 39.6047 41.7452C40.0751 42.1886 40.5992 42.5783 41.1771 43.0756Z" fill="url(#paint0_linear_3519_5722)"/>
    <path d="M40.7053 43.0888C33.7307 43.8548 27.4414 42.6587 22.3079 37.673C19.1095 34.5687 17.3222 30.7118 16.704 26.304C16.1665 22.5008 16.6368 18.8321 18.2898 15.3784C20.87 9.9895 25.1972 6.79111 31.043 5.75634C38.0579 4.51999 44.2128 6.48202 49.5076 11.1855C52.1013 13.4835 54.0633 16.2384 55.2593 19.504C55.9985 21.5064 56.2672 23.6162 56.4823 25.7261C56.6973 27.8225 56.8048 29.9189 56.6032 32.0154C56.4285 33.8833 56.1329 35.711 55.3534 37.4446C54.5202 39.2991 53.0285 40.0516 51.1203 40.2129C48.325 40.4414 45.8389 39.4604 43.4334 38.1971C42.5464 37.7268 41.6864 37.1892 40.8129 36.692C40.1544 36.3157 39.4556 36.0335 38.6627 36.0469C37.3054 36.0873 36.5125 37.122 36.835 38.4525C37.0232 39.1781 37.3995 39.8098 37.8698 40.3742C38.2864 40.8714 38.6896 41.3955 39.1465 41.8524C39.6168 42.2421 40.1275 42.605 40.7053 43.0888Z" fill="white"/>
    <path d="M30.4259 25.8473C30.95 26.1429 31.4472 26.5058 32.0385 26.6939C33.6511 27.1911 34.8203 26.116 34.4575 24.4497C34.3903 24.1674 34.2962 23.8852 34.2156 23.603C35.8685 23.2267 37.7768 24.2346 38.5831 25.9145C39.5507 27.9168 39.0266 30.3626 37.3333 31.7468C35.7341 33.0504 33.342 33.1041 31.716 31.8678C30.0362 30.5508 29.4717 27.9571 30.4259 25.8473Z" fill="#C7405D"/>
    <g opacity="0.33">
        <path opacity="0.33" d="M44.1461 58.3146C43.8774 58.879 43.5414 59.3762 43.1786 59.7659C43.0039 59.9675 42.8157 60.1422 42.6276 60.29C42.4394 60.4379 42.2647 60.5722 42.09 60.6798C41.7406 60.8948 41.4315 61.0157 41.2031 61.056C40.9746 61.0964 40.8268 61.0695 40.773 60.9888C40.7193 60.8948 40.773 60.7604 40.8805 60.5723C41.0015 60.3841 41.1762 60.1557 41.3912 59.8869C41.8213 59.3359 42.3588 58.5833 42.8023 57.6561C43.2457 56.7423 43.4876 55.8419 43.6489 55.1565C43.7295 54.8205 43.7967 54.5383 43.8639 54.3233C43.9311 54.1217 44.0117 53.9874 44.1193 53.9739C44.2133 53.9605 44.3343 54.0545 44.4418 54.2696C44.5493 54.4711 44.6434 54.7937 44.6971 55.1968C44.724 55.3984 44.7374 55.6269 44.7374 55.8553C44.7374 56.0972 44.7106 56.3525 44.6702 56.6213C44.5762 57.1723 44.4149 57.7502 44.1461 58.3146Z" fill="white"/>
    </g>
    <g opacity="0.33">
        <path opacity="0.33" d="M59.5065 35.2808C59.3721 35.8184 59.1705 36.3156 58.9286 36.7322C58.6867 37.1488 58.4179 37.4848 58.1626 37.7401C58.1357 37.767 58.0954 37.8073 58.0685 37.8342C58.0416 37.8611 58.0013 37.8879 57.9744 37.9148C57.9073 37.9686 57.8535 38.0223 57.7997 38.0626C57.6788 38.1433 57.5847 38.2105 57.4907 38.2642C57.3025 38.3583 57.1816 38.3852 57.1412 38.3314C57.0875 38.2777 57.1144 38.1567 57.195 37.982C57.2353 37.8879 57.2891 37.7939 57.3563 37.6729C57.3831 37.6192 57.4235 37.552 57.4503 37.4848C57.4638 37.4579 57.4907 37.4176 57.5041 37.3907C57.5175 37.3504 57.5444 37.3235 57.5578 37.2832C57.7057 37.001 57.8804 36.665 58.0416 36.2887C58.2029 35.9125 58.3507 35.4824 58.4582 35.0255C58.5658 34.5686 58.6329 34.1251 58.6733 33.7085C58.7136 33.2919 58.7136 32.9157 58.7136 32.5931C58.7136 32.5528 58.7136 32.5125 58.7136 32.4722C58.7136 32.4319 58.7136 32.3915 58.7136 32.3647C58.7136 32.2975 58.7136 32.2168 58.7136 32.1631C58.7136 32.0959 58.7136 32.0421 58.7136 31.975C58.7136 31.9481 58.7136 31.9212 58.7136 31.8943C58.7136 31.8674 58.7136 31.8406 58.7136 31.8137C58.7136 31.6255 58.7539 31.5046 58.8211 31.4777C58.8883 31.4508 58.9823 31.5315 59.1033 31.7062C59.1167 31.7331 59.1302 31.7465 59.1436 31.7734C59.1571 31.8003 59.1705 31.8271 59.1839 31.854C59.2108 31.9078 59.2377 31.9615 59.278 32.0287C59.3049 32.0959 59.3318 32.1631 59.3586 32.2437C59.3721 32.284 59.3855 32.3244 59.399 32.3647C59.4124 32.405 59.4258 32.4453 59.4393 32.4856C59.5468 32.835 59.6274 33.2516 59.6408 33.7354C59.6946 34.2058 59.6408 34.7433 59.5065 35.2808Z" fill="white"/>
        <path opacity="0.33" d="M56.6176 40.253C56.5773 40.3068 56.537 40.3605 56.4966 40.4143C56.4563 40.468 56.416 40.5218 56.3757 40.5621C56.3354 40.6024 56.2951 40.6427 56.2547 40.683C56.2144 40.7234 56.1741 40.7502 56.1338 40.7771C55.9725 40.8846 55.8382 40.9115 55.771 40.8577C55.7038 40.804 55.7038 40.6562 55.7575 40.4949C55.771 40.4546 55.7844 40.4143 55.8113 40.3605C55.8247 40.3202 55.8516 40.2665 55.8785 40.2127C55.9053 40.1589 55.9322 40.1186 55.9591 40.0649C55.986 40.0111 56.0129 39.9574 56.0532 39.9036C56.08 39.8499 56.1204 39.7961 56.1472 39.7558C56.1741 39.702 56.2144 39.6617 56.2413 39.6214C56.2682 39.5811 56.3085 39.5408 56.3354 39.5005C56.3623 39.4601 56.4026 39.4333 56.4294 39.3929C56.5504 39.272 56.6713 39.2048 56.752 39.2451C56.8326 39.2854 56.8729 39.4064 56.846 39.5945C56.846 39.6483 56.8326 39.6886 56.8192 39.7423C56.8057 39.7961 56.7923 39.8499 56.7654 39.9036C56.752 39.9574 56.7251 40.0246 56.6848 40.0783C56.6848 40.1321 56.6579 40.1858 56.6176 40.253Z" fill="white"/>
    </g>
    <g opacity="0.33">
        <path opacity="0.33" d="M4.82464 9.62694C5.12029 9.74788 5.4025 9.89571 5.63096 10.057C5.73847 10.1376 5.84598 10.2182 5.94005 10.3123C5.98036 10.3526 6.03412 10.3929 6.07443 10.4333C6.11475 10.4736 6.15507 10.5139 6.18194 10.5542C6.24914 10.6348 6.30289 10.7155 6.35665 10.7961C6.38352 10.8364 6.39696 10.8767 6.4104 10.9036C6.42384 10.9439 6.43728 10.9708 6.45071 11.0111C6.49103 11.1455 6.47759 11.253 6.42384 11.3202C6.37008 11.3874 6.26257 11.4143 6.12819 11.4143C6.10131 11.4143 6.061 11.4143 6.02068 11.4008C5.98036 11.4008 5.94005 11.3874 5.89973 11.3874C5.8191 11.374 5.73847 11.3471 5.6444 11.3202C5.60408 11.3068 5.55033 11.2933 5.51001 11.2799C5.45626 11.2664 5.41594 11.253 5.36219 11.2261C5.26812 11.1858 5.14717 11.1589 5.03966 11.1186C4.81121 11.038 4.58275 10.9439 4.32742 10.8498C4.07208 10.7558 3.84363 10.6617 3.62861 10.5676C3.5211 10.5273 3.41359 10.4736 3.31952 10.4333C3.26577 10.4064 3.22545 10.3929 3.1717 10.3661C3.13138 10.3392 3.07763 10.3257 3.03731 10.2989C2.95668 10.2586 2.87605 10.2182 2.80885 10.1645C2.76854 10.1376 2.74166 10.1242 2.71478 10.0973C2.68791 10.0704 2.66103 10.057 2.63415 10.0301C2.54008 9.94946 2.48633 9.85539 2.48633 9.76132C2.48633 9.66725 2.55352 9.58662 2.67447 9.51943C2.70134 9.50599 2.74166 9.47911 2.76854 9.46567C2.80885 9.45223 2.84917 9.4388 2.88949 9.42536C2.97012 9.39848 3.07763 9.3716 3.1717 9.35816C3.22545 9.34473 3.2792 9.34473 3.3464 9.34473C3.40015 9.34473 3.46735 9.34473 3.53454 9.34473C3.65549 9.34473 3.78987 9.35816 3.9377 9.3716C4.21991 9.4388 4.51556 9.50599 4.82464 9.62694Z" fill="white"/>
    </g>
    <path opacity="0.07" d="M32.8578 76.2959C31.7155 74.8714 35.8949 66.8083 25.1037 60.3577C1.73395 49.0962 3.76318 31.29 3.76318 31.29C3.76318 31.29 7.45879 48.5855 19.5804 55.5601C21.1796 56.568 24.1361 57.791 26.7701 59.2961C29.0278 60.5727 30.936 62.4004 32.3471 64.5774C32.6965 65.115 33.019 65.6257 33.2878 66.0691C33.9597 67.1442 34.4435 68.3268 34.7123 69.5632C34.7795 69.8723 34.8198 70.1545 34.8332 70.356C34.8601 70.9742 34.8332 74.1995 34.8332 74.1995C34.8332 74.1995 40.8672 72.2374 39.2142 64.8193C40.1012 66.0557 39.913 70.813 38.6095 72.7212C37.9913 74.2801 34.9407 76.2018 32.8578 76.2959Z" fill="#020203"/>
    <defs>
        <linearGradient id="paint0_linear_3519_5722" x1="16.4949" y1="23.2366" x2="57.5059" y2="23.2366" gradientUnits="userSpaceOnUse">
            <stop stop-color="#E8E7F4" stop-opacity="0.9725"/>
            <stop offset="0.5176" stop-color="#2B4697" stop-opacity="0.5"/>
            <stop offset="1" stop-color="white"/>
        </linearGradient>
    </defs>
</svg>
