<svg xmlns="http://www.w3.org/2000/svg" width="20" height="20" fill="none" viewBox="0 0 20 20">
    <path fill="#061DDB" d="M2 4c0-.265.105-.52.293-.707C2.48 3.105 2.735 3 3 3h14c.265 0 .52.105.707.293.188.187.293.442.293.707 0 .265-.105.52-.293.707C17.52 4.895 17.265 5 17 5H3c-.265 0-.52-.105-.707-.293C2.105 4.52 2 4.265 2 4zM2 16c0-.265.105-.52.293-.707C2.48 15.105 2.735 15 3 15h14c.265 0 .52.105.707.293.188.187.293.442.293.707 0 .265-.105.52-.293.707-.187.188-.442.293-.707.293H3c-.265 0-.52-.105-.707-.293C2.105 16.52 2 16.265 2 16zM9 9c-.265 0-.52.105-.707.293C8.105 9.48 8 9.735 8 10c0 .265.105.52.293.707.187.188.442.293.707.293h8c.265 0 .52-.105.707-.293.188-.187.293-.442.293-.707 0-.265-.105-.52-.293-.707C17.52 9.105 17.265 9 17 9H9z"/>
</svg>
