<svg xmlns="http://www.w3.org/2000/svg" width="19" height="17" fill="none" viewBox="0 0 19 17">
    <path fill="#424242" fill-rule="evenodd" d="M13.651 0c2.904 0 5.093 2.369 5.093 5.51v5.987c0 1.608-.569 3.06-1.602 4.09-.927.924-2.129 1.413-3.477 1.413h-8.59c-1.345 0-2.546-.488-3.474-1.412C.568 14.558 0 13.105 0 11.498V5.51C0 2.369 2.19 0 5.092 0h8.56zm0 1.308H5.092c-2.192 0-3.784 1.767-3.784 4.202v5.987c0 1.258.432 2.382 1.217 3.164.676.676 1.56 1.031 2.553 1.031h8.587c.995 0 1.877-.355 2.554-1.031.785-.782 1.217-1.906 1.217-3.164V5.51c0-2.435-1.592-4.202-3.785-4.202zm1.374 4.035c.228.28.185.691-.095.92l-3.874 3.149c-.49.389-1.076.583-1.66.583-.584 0-1.165-.193-1.652-.578l-3.91-3.152c-.281-.227-.325-.64-.1-.92.228-.28.64-.325.92-.099l3.907 3.15c.49.388 1.182.388 1.677-.004l3.867-3.144c.28-.23.692-.186.92.095z" clip-rule="evenodd"/>
</svg>
