<svg xmlns="http://www.w3.org/2000/svg" width="12" height="12" fill="none" viewBox="0 0 12 12">
    <path fill="#BABABA" d="M10.173 0H1.827C1.342 0 .877.192.535.535.192.878 0 1.342 0 1.827v8.346c0 .485.192.95.535 1.292.343.342.807.535 1.292.535h8.346c.485 0 .95-.193 1.292-.535.342-.343.535-.807.535-1.292V1.827c0-.485-.193-.95-.535-1.292C11.122.192 10.658 0 10.173 0zM2.667 5.333H1.333V4h1.334v1.333zM1.333 6.667h1.334V8H1.333V6.667zM4 1.333h4v9.334H4V1.333zm6.667 4H9.333V4h1.334v1.333zM9.333 6.667h1.334V8H9.333V6.667zm1.334-4.84v.84H9.333V1.333h.84c.065 0 .13.013.19.038.059.025.113.061.16.107.045.046.081.1.106.16.025.06.038.124.038.189zm-8.84-.494h.84v1.334H1.333v-.84c0-.065.013-.13.038-.19.025-.059.061-.113.107-.16.046-.045.1-.081.16-.106.06-.025.124-.038.189-.038zm-.494 8.84v-.84h1.334v1.334h-.84c-.065 0-.13-.013-.19-.038-.059-.025-.113-.061-.16-.107-.045-.046-.081-.1-.106-.16-.025-.06-.038-.124-.038-.189zm9.334 0c0 .131-.052.257-.145.35-.092.092-.218.144-.349.144h-.84V9.333h1.334v.84z"/>
</svg>
