<svg xmlns="http://www.w3.org/2000/svg" width="16" height="20" fill="none" viewBox="0 0 16 20">
    <path fill="#fff" d="M7.513.048C7.4.005 7.278-.01 7.157.006c-.12.015-.235.059-.334.128-.1.069-.181.16-.237.268C6.529.509 6.5.629 6.5.75v12.127c-.693-.555-1.55-.864-2.438-.877-.888-.014-1.755.268-2.465.801S.375 14.09.141 14.945c-.234.856-.176 1.766.164 2.586.34.82.943 1.504 1.714 1.943.772.44 1.667.61 2.546.485.879-.125 1.691-.54 2.308-1.177.618-.638 1.006-1.463 1.103-2.345.016-.061.024-.124.024-.187V6.832l6.987 2.62c.113.042.236.056.356.042.12-.015.235-.06.334-.128.1-.07.181-.161.237-.269.057-.107.086-.226.086-.347V5.483c0-.662-.202-1.308-.579-1.852-.376-.544-.91-.96-1.53-1.192L7.513.048zM6.5 16c0 .663-.263 1.299-.732 1.767-.47.47-1.105.733-1.768.733s-1.299-.264-1.768-.733C1.763 17.3 1.5 16.663 1.5 16c0-.663.263-1.3.732-1.768.47-.469 1.105-.732 1.768-.732s1.299.263 1.768.732c.469.469.732 1.105.732 1.768zm8-8.332L8 5.23V1.832l5.364 2.012c.334.125.621.349.824.641.203.293.312.641.312.998v2.185z"/>
</svg>
