<svg xmlns="http://www.w3.org/2000/svg" width="22" height="21" fill="none" viewBox="0 0 22 21">
    <path fill="#fff" fill-rule="evenodd" d="M8.357 13.215h.406c2.379.013 7.95.23 7.95 3.905 0 3.407-4.576 3.863-8.135 3.88H7.95C5.572 20.987 0 20.77 0 17.096c0-3.48 4.769-3.881 8.357-3.881zm0 1.59c-4.489 0-6.766.772-6.766 2.291 0 1.535 2.277 2.313 6.766 2.313 4.488 0 6.765-.771 6.765-2.29 0-1.535-2.277-2.313-6.765-2.313zm9.895-8.526c.439 0 .796.357.796.796v1.33l1.374.001c.44 0 .796.357.796.796 0 .44-.357.796-.796.796l-1.375-.001v1.333c0 .44-.356.796-.795.796-.44 0-.796-.357-.796-.796V9.997h-1.373c-.439 0-.795-.356-.795-.795 0-.44.356-.796.795-.796h1.373V7.075c0-.44.357-.796.796-.796zM8.357 0c3.111 0 5.642 2.531 5.642 5.642 0 3.11-2.53 5.642-5.642 5.642h-.033c-1.506-.006-2.917-.597-3.974-1.662C3.29 8.556 2.71 7.141 2.716 5.64 2.716 2.53 5.246 0 8.356 0zm0 1.591c-2.232 0-4.05 1.818-4.05 4.05-.004 1.082.412 2.095 1.17 2.86.76.764 1.772 1.187 2.85 1.191l.03.787v-.787c2.233 0 4.05-1.817 4.05-4.05 0-2.233-1.817-4.05-4.05-4.05z" clip-rule="evenodd"/>
</svg>
