<svg width="80" height="120" viewBox="0 0 80 120" fill="none" xmlns="http://www.w3.org/2000/svg">
    <path d="M.573 12.684c1.641-.467 2.665-.758 4.206-1.173l.916-.26c2.093-.503 4.151-.881 6.283-1.003 7.66-.45 14.963.839 21.884 4.194 9.992 4.832 17.067 12.453 21.632 22.515.37.817.598 1.697.904 2.532l.576 2.025c.064.304.213.585.249.874.26.917.52 1.834.788 2.772.127.286.148.603.254.895.227 1.042.454 2.083.702 3.119.1.916.354 1.812.453 2.728.352 3.103.677 6.19.825 9.305.252 5.505-2.581 9.076-7.376 11.015-5.952 2.406-11.44 5.556-16.794 9.014-3.872 2.506-7.967 4.477-12.52 5.402-4.467.902-8.998 1.015-13.54.762-.77-.035-1.568-.084-2.387-.128-.587-.04-.975.623-.653 1.107.866 1.344 1.845 2.518 2.84 3.664 2.823 3.206 6.004 5.966 10.097 7.475 6.64 2.445 13.18.563 17.607-4.936 1.754-2.18 3.157-4.538 4.193-7.137.403-1.013.531-1.05 1.288-.251 1.976 2.088 2.764 4.698 3.02 7.46.47 4.982-.424 9.614-3.59 13.556-.677.86-2.04 1.985-2.978 2.575-.426.282-.497.602-.211 1.12.96 1.755 1.584 3.628 1.996 5.562.968 4.702.408 9.055-3.135 12.642-.911.928-1.96 1.618-3.09 2.262-.713.41-.962.342-1.171-.474a45.795 45.795 0 0 0-2.523-7.578c-2.508-5.739-6.63-9.706-12.54-11.851-4.343-1.577-8.878-2.453-13.321-3.656-8.881-2.383-17.1-6.084-23.996-12.35-5.407-4.915-9.473-10.787-12.414-17.486a57.934 57.934 0 0 1-3.793-11.964c-.686-3.468-1.126-6.961-1.03-10.514.022-.651-.181-1.124-.625-1.55-1.533-1.5-3.05-3.028-4.583-4.528-2.189-2.189-4.131-4.563-5.37-7.46-.024-.085-.063-.143-.103-.2-.082-.208-.215-.516-.303-.744a19.75 19.75 0 0 1-.467-1.48c-.067-.235-.127-.448-.215-.677-.148-1.41-.035-1.58 1.564-1.873 2.193-.393 4.337-.956 6.472-1.471 6.255-1.502 11.618-4.685 16.458-8.896 4.788-4.15 9.671-8.21 15.201-11.372 2.203-1.249 4.43-2.089 6.928-3.03" fill="#fff" fill-opacity=".1"/>
    <path d="M.573 12.684c1.641-.467 2.665-.758 4.206-1.173l.916-.26c2.093-.503 4.151-.881 6.283-1.003 7.66-.45 14.963.839 21.884 4.194 9.992 4.832 17.067 12.453 21.632 22.515.37.817.598 1.697.904 2.532l.576 2.025c.064.304.213.585.249.874.26.917.52 1.834.788 2.772.127.286.148.603.254.895.227 1.042.454 2.083.702 3.119.1.916.354 1.812.453 2.728.352 3.103.677 6.19.825 9.305.252 5.505-2.581 9.076-7.376 11.015-5.952 2.406-11.44 5.556-16.794 9.014-3.872 2.506-7.967 4.477-12.52 5.402-4.467.902-8.998 1.015-13.54.762-.77-.035-1.568-.084-2.387-.128-.587-.04-.975.623-.653 1.107.866 1.344 1.845 2.518 2.84 3.664 2.823 3.206 6.004 5.966 10.097 7.475 6.64 2.445 13.18.563 17.607-4.936 1.754-2.18 3.157-4.538 4.193-7.137.403-1.013.531-1.05 1.288-.251 1.976 2.088 2.764 4.698 3.02 7.46.47 4.982-.424 9.614-3.59 13.556-.677.86-2.04 1.985-2.978 2.575-.426.282-.497.602-.211 1.12.96 1.755 1.584 3.628 1.996 5.562.968 4.702.408 9.055-3.135 12.642-.911.928-1.96 1.618-3.09 2.262-.713.41-.962.342-1.171-.474a45.795 45.795 0 0 0-2.523-7.578c-2.508-5.739-6.63-9.706-12.54-11.851-4.343-1.577-8.878-2.453-13.321-3.656-8.881-2.383-17.1-6.084-23.996-12.35-5.407-4.915-9.473-10.787-12.414-17.486a57.934 57.934 0 0 1-3.793-11.964c-.686-3.468-1.126-6.961-1.03-10.514.022-.651-.181-1.124-.625-1.55-1.533-1.5-3.05-3.028-4.583-4.528-2.189-2.189-4.131-4.563-5.37-7.46-.024-.085-.063-.143-.103-.2-.082-.208-.215-.516-.303-.744a19.75 19.75 0 0 1-.467-1.48c-.067-.235-.127-.448-.215-.677-.148-1.41-.035-1.58 1.564-1.873 2.193-.393 4.337-.956 6.472-1.471 6.255-1.502 11.618-4.685 16.458-8.896 4.788-4.15 9.671-8.21 15.201-11.372 2.203-1.249 4.43-2.089 6.928-3.03" fill="#fff" fill-opacity=".1"/>
    <path d="M7.628 53.63c.965.232 1.917.584 2.94.615 2.783.062 4.153-2.17 2.825-4.65-.233-.418-.51-.824-.765-1.235 2.453-1.342 5.934-.604 7.971 1.697 2.438 2.74 2.71 6.857.648 9.817-1.95 2.789-5.72 3.953-8.857 2.725-3.26-1.332-5.324-5.192-4.762-8.97z" fill="#fff" fill-opacity=".1"/>
    <path opacity=".33" d="M44.042 98.951c-.172 1.017-.48 1.957-.88 2.739a6.57 6.57 0 0 1-.638 1.08 9.64 9.64 0 0 1-.677.861c-.457.499-.893.83-1.238.997-.344.167-.59.191-.712.087-.128-.125-.103-.362-.017-.709.107-.353.28-.794.5-1.318.434-1.068.948-2.504 1.233-4.175.292-1.65.27-3.188.216-4.348-.024-.569-.044-1.047-.035-1.418.016-.35.083-.6.248-.67.143-.064.377.031.645.324.261.271.556.74.823 1.356.134.307.258.664.361 1.026.11.384.182.801.239 1.246.1.916.104 1.906-.068 2.922z" fill="#fff" fill-opacity=".1"/>
    <g opacity=".33" fill="#fff" fill-opacity=".1">
        <path opacity=".33" d="M58.022 55.48a9.311 9.311 0 0 1-.262 2.563 8.13 8.13 0 0 1-.76 1.944l-.108.192c-.03.055-.082.116-.113.17-.082.116-.143.226-.21.314-.156.182-.275.331-.4.459-.256.234-.435.331-.523.264-.11-.06-.122-.265-.073-.579.022-.167.065-.34.117-.563.018-.097.052-.222.064-.34.01-.05.034-.125.043-.174.003-.07.034-.125.037-.195.107-.514.232-1.126.319-1.796.086-.67.126-1.418.09-2.191a16.356 16.356 0 0 0-.252-2.187 18.483 18.483 0 0 0-.44-1.788 192.597 192.597 0 0 0-.102-.362l-.091-.32-.085-.298-.036-.128-.037-.128c-.084-.299-.075-.509.02-.582.094-.073.28.013.55.236.034.036.061.051.094.088l.1.11c.068.073.135.146.229.234.073.095.146.19.225.305l.118.174.119.174c.328.505.644 1.13.883 1.891.298.722.455 1.6.484 2.513zM55.677 64.673l-.12.31c-.039.104-.079.207-.125.29l-.137.246c-.046.082-.098.143-.15.204-.207.243-.408.346-.539.291-.13-.055-.197-.29-.184-.57.003-.07.006-.14.024-.237.003-.07.022-.167.04-.264.019-.098.043-.174.061-.271.019-.098.037-.195.077-.299.018-.097.058-.2.082-.277.019-.097.065-.18.089-.255.024-.076.07-.158.095-.235.024-.076.076-.136.1-.212.138-.247.3-.408.445-.38.147.027.265.2.307.511.025.086.021.156.024.247.003.091.006.183-.012.28a.84.84 0 0 1-.05.314c.025.085.007.182-.027.307z"/>
    </g>
    <path opacity=".07" d="M34.237 132.569c-2.455-1.745.539-16.422-19.49-21.788-42.154-7.327-46.966-36.49-46.966-36.49s13.664 25.771 36.04 31.369c2.991.878 8.233 1.485 13.09 2.685 4.158 1.007 8.01 3.046 11.23 5.863a94.91 94.91 0 0 1 2.166 1.943 18.152 18.152 0 0 1 3.835 4.9c.246.46.438.89.55 1.204.321.968 1.733 6.097 1.733 6.097s8.688-5.834 2.72-16.857c1.965 1.561 3.812 9.193 2.604 12.809-.277 2.752-4.25 7.176-7.512 8.265z" fill="#fff" fill-opacity=".1"/>
</svg>
