<svg width="39" height="21" viewBox="0 0 39 21" fill="none" xmlns="http://www.w3.org/2000/svg">
<path d="M14.881 10.4771L15.1229 11.0146C15.3648 11.6328 15.4857 12.3451 15.4857 13.1648C15.4857 13.6352 15.4588 14.0383 15.3916 14.3608L15.3782 14.5087L15.3513 14.8178C15.3244 15.3015 15.3379 15.7316 15.3782 16.1079C15.4051 16.2691 15.4319 16.4438 15.4723 16.6185C15.5126 16.7932 15.5798 17.0217 15.6873 17.277C15.9426 18.0161 16.3458 18.379 16.8833 18.379H17.2193V19.8841H16.6011C15.9426 19.8841 15.3782 19.5885 14.881 18.9837C14.5316 18.4999 14.3031 17.8818 14.1687 17.1158C13.5237 18.2849 12.4755 19.1987 11.0106 19.8572C9.72054 20.4082 8.26917 20.677 6.66998 20.677C5.66208 20.677 4.68107 20.462 3.72693 20.0319C2.90717 19.6422 2.18149 19.1047 1.53643 18.3924C1.14671 17.9624 0.837626 17.4383 0.60917 16.8201L0.474784 16.4035L0.340398 15.7988C0.313521 15.6644 0.300081 15.53 0.286642 15.3956C0.273204 15.2612 0.259766 15.1134 0.259766 14.9521C0.259766 14.4818 0.31352 14.0383 0.421028 13.6083C0.528537 13.1783 0.70324 12.802 0.931696 12.4391C1.22735 11.9419 1.72457 11.5387 2.42338 11.2297C3.12219 10.9206 3.87475 10.7593 4.68107 10.7593C5.40675 10.7593 6.119 10.8937 6.84468 11.1625L6.7103 11.6597C6.57591 11.5925 6.38777 11.5387 6.14587 11.4984C5.89054 11.4581 5.59489 11.4312 5.25893 11.4312C4.29135 11.4312 3.48503 11.6194 2.85342 11.9957C2.02022 12.5063 1.60363 13.2992 1.60363 14.3743V14.6027L1.64394 14.979C1.65738 15.0462 1.65738 15.1537 1.68426 15.2747C1.6977 15.3956 1.73801 15.5434 1.79177 15.7047C2.02022 16.511 2.55777 17.1964 3.41784 17.7608C4.08977 18.2177 4.94984 18.5537 6.01149 18.7821C6.41465 18.8493 6.81781 18.8762 7.2344 18.8762C8.14823 18.8762 9.04861 18.7284 9.96244 18.4193C10.8763 18.1102 11.7363 17.6533 12.5292 17.0217C12.8114 16.6589 13.0533 16.1751 13.2549 15.5569L13.4296 14.6565C13.4565 14.5221 13.4699 14.3743 13.4968 14.1996C13.5505 13.8502 13.5774 13.4739 13.5774 13.0842C13.5774 11.9016 13.2683 11.0281 12.6636 10.4771C12.0589 9.91267 11.1316 9.63046 9.90868 9.63046C9.16956 9.63046 8.48419 9.72453 7.8257 9.89923C7.26128 10.0471 6.76405 10.2621 6.33401 10.5174L7.63756 7.22495C8.10791 7.1712 8.55138 7.06369 8.96798 6.91586C9.38458 6.76804 9.82805 6.55302 10.3118 6.27081C11.4138 5.65264 12.2873 4.87319 12.9189 3.94593C13.6984 2.83052 14.0881 1.5673 14.0881 0.15625H16.077C16.077 1.93015 15.6067 3.47558 14.6525 4.77912C13.9537 5.7467 12.9458 6.59333 11.6154 7.30558C10.8359 7.70874 9.90868 8.05814 8.84704 8.34035C9.37114 8.25972 9.88181 8.20597 10.3522 8.20597C11.8842 8.20597 13.1071 8.60913 13.994 9.41544C14.3837 9.73797 14.666 10.0874 14.881 10.4771ZM7.79882 5.37043C7.73163 5.16885 7.75851 5.00758 7.86602 4.90007C7.98696 4.77913 8.18854 4.64474 8.49763 4.4566C9.26363 4.02657 9.88181 3.47558 10.3253 2.83053C10.8628 2.03765 11.145 1.16414 11.145 0.183121H12.5561C12.5561 1.43291 12.2201 2.508 11.5616 3.40838C11.0644 4.09375 10.3522 4.68505 9.42489 5.18228C8.88735 5.46449 8.49763 5.62576 8.25574 5.6392C8.01384 5.66607 7.86602 5.572 7.79882 5.37043Z" fill="#2B4697"/>
<path d="M23.3877 19.8841H22.4066C21.7213 19.8841 21.1837 19.6825 20.7806 19.2659C20.5118 18.9568 20.2968 18.4192 20.149 17.6532C20.0011 18.3117 19.692 18.8627 19.2486 19.2659C18.7917 19.6825 18.2541 19.8841 17.6359 19.8841H16.8027V18.4058H17.2865C17.8644 18.4058 18.3482 18.0564 18.7379 17.371C19.1545 16.605 19.3561 15.6375 19.3561 14.4817V13.9308L19.3158 13.5545V13.2723L19.2754 13.0707L19.1679 12.4659L19.1411 12.1703L19.047 11.8612L18.9126 11.2699L18.7513 10.6517H20.579C20.6865 11.0414 20.7806 11.4446 20.8746 11.8746C20.9553 12.3047 21.009 12.6944 21.009 13.0438L21.1434 15.2746C21.1434 15.6778 21.1837 16.0406 21.2509 16.3631C21.3181 16.726 21.4122 17.0351 21.5331 17.2904C21.8153 18.0295 22.2454 18.3924 22.8367 18.3924H23.3877V19.8841ZM17.8509 6.29762L17.9853 6.28418C18.2407 6.28418 18.4691 6.41856 18.6976 6.70077C18.8723 6.95611 18.9798 7.25176 19.0201 7.58773C19.0201 7.97745 18.9529 8.29997 18.832 8.54186C18.7782 8.66281 18.6841 8.78376 18.5363 8.91814C18.4154 9.01221 18.2944 9.05253 18.1735 9.05253C17.9719 9.05253 17.8106 9.02565 17.6897 8.98534C17.5687 8.94502 17.4478 8.83751 17.3268 8.67625C17.1118 8.39404 16.9909 8.07151 16.9909 7.70867C16.9909 7.33239 17.0581 7.0233 17.179 6.78141C17.3403 6.53951 17.5687 6.36481 17.8509 6.29762Z" fill="#2B4697"/>
<path d="M31.2889 19.8837L30.8858 20.1256L30.617 20.26C30.3751 20.3675 30.1332 20.4615 29.8779 20.5556C29.3941 20.7034 28.9372 20.7841 28.5071 20.7841C27.7949 20.7841 27.1229 20.6094 26.4913 20.26C26.021 19.9778 25.6716 19.6687 25.4431 19.3058C25.1609 19.494 24.8653 19.6552 24.5696 19.7627C24.2336 19.8568 23.8574 19.8971 23.4273 19.8971H22.7285V18.3786H23.8036L24.153 18.3651C24.2202 18.3651 24.3277 18.3382 24.4621 18.2845C24.5965 18.2307 24.7577 18.1367 24.9324 18.0023L24.7981 17.6529L24.6906 17.2363L24.6234 16.7928L24.5965 16.309C24.5965 15.4355 24.8115 14.6695 25.2415 13.9976C25.6716 13.3391 26.3166 12.9359 27.1767 12.8015L27.338 12.7881L27.4724 12.7747C28.0905 12.7747 28.6281 12.9762 29.0581 13.3928C29.5016 13.8094 29.7166 14.3604 29.7166 15.0458V15.2205L29.7032 15.328C29.7032 15.6102 29.6225 15.9193 29.4613 16.2418C29.3 16.5643 29.0447 16.9272 28.6953 17.3438C28.1443 17.962 27.553 18.3786 26.9214 18.5936C27.1229 18.7548 27.3917 18.9161 27.7142 19.0639C28.104 19.158 28.3727 19.1983 28.5474 19.1983C29.4209 19.1983 30.2004 18.7817 30.9126 17.9485C31.598 17.1422 31.934 16.2956 31.934 15.3818V15.2474L31.9071 15.0055C31.9071 14.5351 31.8265 14.1051 31.6652 13.6885C31.5039 13.2719 31.262 12.8956 30.9664 12.5596C30.4288 11.9549 29.6897 11.6055 28.7625 11.498L28.4265 11.4711L28.0771 11.4577C27.0826 11.4577 26.1554 11.7802 25.3356 12.4253C24.6771 12.9628 24.1799 13.7288 23.8305 14.7233L23.8036 14.132C23.8036 12.7747 24.274 11.6996 25.2281 10.8798C26.1016 10.1273 27.1767 9.75098 28.4265 9.75098L29.0312 9.77786C29.085 9.77786 29.1387 9.77786 29.2059 9.77786C29.2597 9.80473 29.3 9.81817 29.3269 9.81817L29.6628 9.89881C30.6439 10.1541 31.4905 10.6379 32.1893 11.3367C32.8881 12.0355 33.3316 12.9359 33.5466 14.0379L33.6004 14.5082L33.6272 15.0323C33.6272 15.5833 33.5735 16.1074 33.466 16.6047C33.3585 17.0885 33.1838 17.5454 32.9687 17.9351L33.4928 18.2307C33.6541 18.2845 33.8557 18.3114 34.0976 18.3114H35.1189V19.8434H33.8691C33.5466 19.8434 33.2375 19.7762 32.9419 19.6283L32.5521 19.373L32.3774 19.2252L32.2162 19.0371C32.0818 19.1849 31.934 19.3327 31.7593 19.494L31.5174 19.6821L31.2889 19.8837ZM27.1901 14.3604L27.0558 14.347C26.6929 14.347 26.3973 14.5486 26.1554 14.9248C25.9135 15.3146 25.806 15.7715 25.806 16.309C25.806 16.8869 25.9269 17.2632 26.1688 17.4647C26.5988 17.3707 27.0154 17.1422 27.3917 16.8062C27.7949 16.43 28.0636 15.9462 28.1846 15.3414C28.1846 14.9786 28.0636 14.7233 27.8352 14.5754L27.6739 14.4814L27.5395 14.4276C27.4455 14.3873 27.3245 14.3604 27.1901 14.3604Z" fill="#2B4697"/>
<path d="M34.3796 6.55347L34.514 6.54004C34.7693 6.54004 34.9978 6.67442 35.2262 6.95663C35.4009 7.21197 35.5084 7.50761 35.5488 7.84358C35.5488 8.2333 35.4816 8.55583 35.3606 8.79772C35.3069 8.91867 35.2128 9.03962 35.065 9.174C34.944 9.26807 34.8231 9.30839 34.7021 9.30839C34.5005 9.30839 34.3393 9.28151 34.2183 9.2412C34.0974 9.20088 33.9764 9.09337 33.8555 8.93211C33.6405 8.6499 33.5195 8.32737 33.5195 7.96453C33.5195 7.58825 33.5867 7.27916 33.7077 7.03726C33.8689 6.79537 34.084 6.62067 34.3796 6.55347ZM34.1915 19.898V18.2719L35.28 18.2988C35.6025 18.2988 35.9385 18.1913 36.2879 17.9897C36.6373 17.7881 36.8926 17.4656 37.0673 17.0356C37.2017 16.5518 37.2689 16.0546 37.2689 15.5439C37.2689 15.1407 37.242 14.7376 37.1883 14.3344C37.1748 14.1329 37.1614 13.9985 37.1614 13.9313C37.1479 13.8641 37.1345 13.77 37.1076 13.6491C37.0942 13.4744 37.0808 13.3534 37.0673 13.2862C37.0539 13.219 37.0136 13.0712 36.9598 12.8562C36.8926 12.453 36.812 12.0767 36.7045 11.7273L36.3551 10.6388H38.3037C38.559 11.8617 38.7471 12.9099 38.8546 13.7969L38.9487 14.9392L38.9756 15.8395C38.9756 16.3502 38.9487 16.7265 38.895 16.955L38.8681 17.0893L38.8143 17.2372C38.6665 17.8553 38.3843 18.3929 37.9677 18.8498C37.363 19.5352 36.5835 19.8711 35.6025 19.8711H34.7693H34.4602C34.3258 19.8711 34.2452 19.8846 34.1915 19.898Z" fill="#2B4697"/>
</svg>
