<svg xmlns="http://www.w3.org/2000/svg" width="22" height="21" fill="none" viewBox="0 0 22 21">
    <path fill="#6F6F71" d="M0 10.16v-.03C.267 6.683 1.515 4.1 3.683 2.465 5.822.803 8.14.001 10.663.001c2.644-.03 5.11.861 7.307 2.643 2.228 1.753 3.327 4.367 3.327 7.753v.208c0 3.415-1.099 5.97-3.327 7.722-2.227 1.783-4.693 2.674-7.336 2.674h-.12c-2.583-.03-4.96-.921-7.158-2.703C1.158 16.545.03 13.842 0 10.159zm10.01-4.664V.803h-.713c-.148.178-.267.386-.386.564-.119.178-.238.356-.357.564-.118.179-.267.416-.356.594-.119.179-.208.357-.297.565-.178.297-.327.594-.446.861-.148.268-.267.535-.356.772.178.12.386.268.624.357.267.089.534.178.802.238.297.059.564.089.802.118.267.03.505.06.683.06zM11.257.803v4.663c.149 0 .327.03.505 0 .179 0 .386-.03.565-.06.326-.059.713-.148 1.01-.237.326-.119.623-.267.831-.446-.356-.86-.742-1.544-1.128-2.198-.386-.653-.832-1.217-1.307-1.693v-.03h-.476zM8.05 1.07v-.03c-.208.09-.416.238-.654.327-.208.09-.475.208-.683.327-.416.208-.832.445-1.248.713-.386.267-.772.564-1.099.861.12.119.268.238.386.327.12.089.268.208.416.327.12.059.268.148.416.267.149.089.327.208.505.327.238-.535.475-1.1.772-1.604.297-.535.624-1.04.95-1.486.03-.059.06-.118.12-.178.03-.03.06-.119.119-.178zm9.089 2.198v-.03c-.743-.564-1.396-1.04-2.05-1.336-.653-.297-1.307-.594-1.9-.832.474.475.89 1.07 1.158 1.634.297.594.594 1.218.831 1.812.119-.06.267-.12.446-.238.148-.09.356-.178.534-.267.179-.12.327-.238.505-.357.179-.148.357-.267.476-.386zm-.505 6.624h3.415c0-1.1-.237-2.139-.683-3.208-.415-1.04-1.01-1.901-1.752-2.644v-.03c-.149.238-.357.446-.565.595-.237.148-.445.267-.683.386-.148.089-.297.208-.445.267-.149.09-.357.149-.505.238.119.237.237.505.356.742.09.268.238.565.297.832.178.475.297.98.416 1.485.09.446.149.921.149 1.337zM5.88 5.496v-.03c-.237-.119-.505-.208-.713-.327-.208-.148-.416-.297-.594-.416-.178-.089-.356-.207-.505-.326-.148-.12-.267-.238-.386-.357-.772.743-1.336 1.575-1.693 2.555-.386.98-.653 2.079-.772 3.267H4.87c0-.832.12-1.634.327-2.436.178-.831.446-1.455.683-1.93zm4.129 4.366V6.446c-.238.03-.535.03-.802 0-.297-.03-.594-.119-.861-.208-.238-.06-.535-.118-.773-.208-.267-.059-.534-.178-.742-.297-.179.297-.327.654-.446 1.04-.148.356-.237.743-.327 1.099-.059.356-.089.743-.118 1.07-.03.326-.06.653-.06.92h4.129zm1.247-3.356v3.356h4.396c0-.178 0-.386-.03-.624-.059-.208-.088-.475-.118-.713-.09-.356-.178-.742-.297-1.099-.119-.326-.238-.653-.386-.92-.06-.149-.119-.327-.178-.446-.09-.148-.179-.237-.238-.327-.327.238-.772.387-1.307.505-.505.12-1.099.238-1.634.268h-.208zm-6.386 4.336H1.218c0 .505.089 1.07.237 1.753.149.713.446 1.366.773 2.079.148.356.326.713.505 1.07.208.326.445.683.683 1.01.178-.12.356-.209.505-.298.178-.089.386-.208.564-.297.208-.089.416-.178.654-.297.208-.089.475-.208.742-.327-.237-.742-.505-1.455-.683-2.257-.208-.772-.327-1.545-.327-2.406v-.03zm5.139 3.476v-3.476H5.88c0 .238.03.594.09.95.029.357.118.743.178 1.13.118.415.207.831.326 1.188.12.356.238.653.357.92.534-.207 1.069-.356 1.425-.445.387-.119.743-.208 1.1-.238h.326c.119-.03.238-.03.327-.03zm1.247-3.476v3.446c.208.03.446.06.684.089.267.03.594.09.861.148l.446.09c.148.059.326.089.475.118.178.06.356.09.534.149.149.06.298.089.416.148.386-.98.624-1.782.772-2.465.15-.653.208-1.218.208-1.693v-.03h-4.396zm8.792.03v-.03h-3.415v.178c-.03.565-.12 1.218-.238 1.902-.119.653-.386 1.425-.743 2.376.476.237.921.475 1.278.713.356.237.683.505.92.742.505-.505.951-1.188 1.337-2.079.386-.861.654-1.752.802-2.703.03-.178.03-.356.06-.535v-.564zm-10.04 9.03v-4.634c-.742.119-1.365.267-1.84.386-.476.119-.832.238-1.07.357.178.445.356.831.535 1.188.178.326.386.683.564.98.06.119.178.238.267.386.09.119.149.267.238.386.09.149.178.327.267.505.12.149.208.327.327.446h.713zm1.248 0h.684c.267-.208.534-.505.742-.832.238-.327.505-.713.683-1.04.208-.386.416-.742.594-1.099.179-.356.327-.683.446-.92-.327-.12-.772-.238-1.218-.357-.445-.119-1.07-.237-1.93-.356v4.604zm5.882-2.436v-.03c-.06-.089-.179-.208-.268-.297-.089-.089-.237-.208-.386-.297-.119-.089-.267-.178-.445-.267-.179-.09-.416-.208-.624-.327-.119.238-.327.654-.624 1.218-.267.564-.742 1.248-1.337 1.99.743-.119 1.396-.386 1.99-.742.654-.327 1.218-.773 1.694-1.248zm-11.05-.95v-.03c-.208.119-.535.267-.861.416-.357.148-.743.326-1.1.564.209.178.417.357.595.475.178.149.386.268.564.386.327.208.713.416 1.1.595.385.178.86.356 1.455.534-.208-.238-.357-.534-.505-.772-.149-.238-.327-.475-.476-.713-.148-.238-.267-.505-.386-.743-.148-.237-.267-.475-.386-.712z"/>
</svg>
