<svg xmlns="http://www.w3.org/2000/svg" width="280" height="211" fill="none" viewBox="0 0 280 211">
    <path fill="#D8DCFF" fill-opacity=".51" d="M29.33 197.567C8.327 183.743-2.12 155.792.764 129.97c1.272-11.36 4.813-22.512 4.545-33.926-.164-7.113-1.795-14.104-2.227-21.198C1.427 47.57 18.767 21.273 42.235 9.384c23.467-11.888 51.717-10.66 76.054-.918 9.632 3.857 18.989 9.017 29.205 10.288 17.188 2.136 33.774-6.954 51.005-8.67 32.442-3.237 63.624 21.77 75.214 53.707 11.591 31.936 6.146 68.576-8.104 99.308-7.8 16.842-19.549 33.464-36.755 38.459-6.085 1.771-12.51 1.947-18.862 1.941-32.764-.042-65.966-4.746-98.244 3.091-25.353 6.163-59.663 5.957-82.418-9.023z" opacity=".8"/>
    <g opacity=".8">
        <path fill="#D7D2FF" d="M167.398 67.88l-3.65-11.402-5.354.797c-.707-.966-1.49-1.874-2.343-2.714l1.679-5.19-10.641-5.476-3.31 4.478c-1.137-.182-2.286-.274-3.438-.273l-2.537-4.965-11.402 3.65.822 5.513c-.937.67-1.82 1.413-2.641 2.22l-5.287-1.715-5.476 10.647 4.381 3.25c-.208 1.177-.318 2.37-.329 3.565l-4.831 2.446 3.651 11.402 5.208-.773c.727 1.037 1.541 2.01 2.434 2.908l-1.613 4.977 10.642 5.476 3.042-4.125c1.289.233 2.596.347 3.906.34l2.324 4.552 11.402-3.65-.748-5.05c1.064-.76 2.059-1.611 2.975-2.544l4.868 1.576 5.476-10.642-4.199-3.115c.197-1.247.291-2.51.28-3.772l4.709-2.391zm-23.12 15.04c-2.456.785-5.09.824-7.569.112-2.478-.712-4.69-2.143-6.355-4.112-1.665-1.97-2.709-4.388-3-6.95-.291-2.562.185-5.153 1.367-7.445 1.181-2.292 3.016-4.182 5.272-5.432 2.256-1.249 4.832-1.801 7.402-1.587 2.569.215 5.018 1.187 7.035 2.793 2.018 1.606 3.514 3.774 4.299 6.23.521 1.632.716 3.351.572 5.059-.144 1.707-.623 3.37-1.409 4.892-.787 1.522-1.866 2.875-3.175 3.98-1.31 1.105-2.824 1.94-4.457 2.46h.018z"/>
        <path fill="#E8E6FC" d="M157.7 68.743l-2.348-7.301-3.444.51c-.455-.62-.96-1.205-1.509-1.745l1.083-3.335-6.845-3.529-2.129 2.872c-.731-.117-1.469-.176-2.209-.176l-1.63-3.188-7.302 2.342.524 3.547c-.601.431-1.169.907-1.698 1.424l-3.401-1.095-3.523 6.839L126.086 68c-.132.757-.203 1.524-.213 2.293l-3.097 1.582 2.343 7.338 3.352-.499c.466.665.987 1.29 1.558 1.868l-1.041 3.2 6.845 3.523 1.966-2.647c.829.147 1.67.22 2.512.22l1.491 2.926 7.301-2.348-.48-3.25c.686-.487 1.327-1.035 1.916-1.636l3.14 1.016 3.523-6.845-2.702-2.032c.129-.805.19-1.619.183-2.434l3.017-1.533zm-14.882 9.674c-1.58.506-3.276.532-4.871.075-1.595-.458-3.019-1.378-4.092-2.645-1.072-1.266-1.745-2.823-1.932-4.472-.188-1.649.118-3.317.878-4.792.76-1.475 1.941-2.692 3.393-3.496 1.451-.804 3.109-1.16 4.763-1.022 1.654.138 3.23.764 4.528 1.797 1.299 1.034 2.261 2.43 2.766 4.01.677 2.12.485 4.42-.533 6.398-1.019 1.977-2.782 3.469-4.9 4.147z"/>
        <path fill="#C3B7FC" d="M119.399 86.138V66.261l-8.877-1.46c-.627-1.885-1.404-3.716-2.324-5.476l5.281-7.356-14.055-14.055-7.495 5.385c-1.706-.861-3.475-1.588-5.294-2.172L85.138 32H65.261l-1.497 9.127c-1.82.584-3.592 1.31-5.3 2.172l-7.49-5.385-14.06 14.055 5.287 7.356c-.924 1.759-1.703 3.59-2.33 5.476L31 66.26v19.877l8.628 1.418c.625 2.01 1.417 3.963 2.366 5.841l-5.068 7.052 14.061 14.055 6.912-4.965c1.922 1.012 3.93 1.853 5.999 2.513l1.375 8.372h19.878l1.369-8.372c2.07-.659 4.077-1.5 5.999-2.513l6.918 4.965 14.054-14.055-5.08-7.052c.945-1.877 1.726-3.83 2.336-5.84l8.652-1.419zM75.197 98.21c-4.283 0-8.47-1.27-12.03-3.65-3.562-2.379-6.337-5.76-7.976-9.718-1.64-3.957-2.068-8.31-1.233-12.51.836-4.201 2.898-8.06 5.927-11.088 3.028-3.029 6.887-5.09 11.087-5.926 4.2-.836 8.555-.407 12.511 1.232 3.957 1.639 7.339 4.414 9.718 7.975 2.38 3.561 3.65 7.748 3.65 12.03 0 2.844-.559 5.66-1.647 8.288s-2.683 5.015-4.694 7.026c-2.01 2.011-4.398 3.606-7.026 4.694-2.627 1.088-5.444 1.648-8.287 1.647z"/>
        <path fill="#D7D2FF" d="M75.197 104.197c-5.536 0-10.947-1.642-15.55-4.717-4.602-3.076-8.19-7.447-10.308-12.56-2.118-5.115-2.673-10.742-1.593-16.171 1.08-5.43 3.746-10.417 7.66-14.33 3.914-3.915 8.901-6.58 14.33-7.66 5.43-1.08 11.057-.526 16.171 1.592 5.114 2.118 9.485 5.706 12.56 10.308 3.076 4.603 4.717 10.014 4.717 15.55-.009 7.42-2.961 14.533-8.208 19.78-5.246 5.246-12.36 8.198-19.78 8.208zm0-46.85c-3.731 0-7.378 1.106-10.48 3.179-3.101 2.072-5.519 5.018-6.946 8.465-1.428 3.446-1.801 7.239-1.074 10.897.728 3.66 2.525 7.02 5.162 9.658 2.638 2.637 5.999 4.434 9.658 5.162 3.659.728 7.45.354 10.897-1.074 3.447-1.427 6.393-3.845 8.465-6.947 2.073-3.101 3.179-6.748 3.179-10.478 0-2.478-.487-4.931-1.434-7.22-.948-2.29-2.337-4.37-4.088-6.121-1.752-1.752-3.831-3.142-6.12-4.09-2.289-.949-4.742-1.437-7.22-1.437v.006zM237.86 89.099V74.107l-6.693-1.095c-.475-1.422-1.063-2.803-1.758-4.132l3.985-5.549-10.599-10.61-5.653 4.058c-1.288-.648-2.624-1.195-3.997-1.637l-1.132-6.875h-14.985l-1.132 6.887c-1.371.44-2.706.988-3.991 1.637l-5.653-4.07-10.605 10.598 3.986 5.55c-.694 1.327-1.279 2.709-1.753 4.13l-6.692 1.096v14.991l6.504 1.071c.47 1.509 1.065 2.976 1.776 4.387l-3.821 5.318 10.605 10.605 5.215-3.748c1.448.762 2.961 1.395 4.52 1.892l1.041 6.316h14.985l1.035-6.316c1.559-.497 3.072-1.13 4.52-1.892l5.221 3.748 10.599-10.605-3.821-5.318c.711-1.41 1.306-2.878 1.776-4.387l6.517-1.058zm-33.336 9.126c-3.23 0-6.388-.958-9.073-2.752-2.686-1.794-4.779-4.345-6.015-7.329-1.236-2.984-1.559-6.267-.929-9.435.63-3.168 2.185-6.078 4.469-8.362 2.284-2.283 5.194-3.839 8.362-4.469 3.167-.63 6.451-.307 9.435.93 2.984 1.235 5.534 3.329 7.329 6.014 1.794 2.686 2.752 5.843 2.752 9.073-.005 4.328-1.728 8.477-4.79 11.535-3.062 3.059-7.212 4.777-11.54 4.777v.018z"/>
        <path fill="#C3B7FC" d="M204.524 102.715c-4.176 0-8.258-1.239-11.73-3.559-3.472-2.32-6.178-5.617-7.776-9.475-1.598-3.858-2.016-8.102-1.201-12.198.814-4.095 2.825-7.857 5.778-10.81 2.953-2.953 6.714-4.963 10.81-5.778 4.095-.815 8.34-.397 12.198 1.201 3.858 1.598 7.155 4.304 9.475 7.776 2.32 3.472 3.558 7.554 3.558 11.73-.006 5.597-2.232 10.964-6.19 14.922s-9.325 6.184-14.922 6.191zm0-35.332c-2.814-.001-5.565.832-7.906 2.395-2.34 1.562-4.164 3.784-5.241 6.383-1.078 2.6-1.36 5.46-.811 8.22.548 2.76 1.903 5.296 3.893 7.286 1.99 1.99 4.525 3.344 7.285 3.893 2.76.549 5.621.267 8.22-.81 2.6-1.078 4.821-2.903 6.384-5.243 1.563-2.34 2.396-5.091 2.395-7.905-.005-3.77-1.505-7.384-4.17-10.05-2.666-2.665-6.28-4.164-10.049-4.17z"/>
    </g>
</svg>
