<svg xmlns="http://www.w3.org/2000/svg" width="17" height="17" fill="none" viewBox="0 0 17 17">
    <path fill="#6F6F71" fill-rule="evenodd" d="M8.946 1.669c1.279-.809 2.978-1.032 4.446-.562 3.194 1.03 4.185 4.511 3.298 7.281-1.368 4.35-7.21 7.596-7.459 7.732-.088.049-.185.073-.283.073-.097 0-.194-.024-.282-.072-.246-.134-6.047-3.331-7.46-7.732h-.001c-.888-2.772.1-6.253 3.29-7.282 1.498-.484 3.13-.271 4.45.562zm-4.089.562c-2.58.832-3.229 3.608-2.528 5.798 1.103 3.431 5.46 6.206 6.618 6.893 1.162-.694 5.551-3.5 6.619-6.89.7-2.192.05-4.968-2.535-5.801-1.252-.402-2.713-.158-3.722.623-.21.162-.503.165-.716.005C7.525 2.055 6.13 1.82 4.857 2.23zm7.419 1.562c1.072.347 1.824 1.297 1.916 2.42.025.324-.216.609-.54.635l-.05.002c-.304 0-.562-.233-.587-.542-.052-.647-.485-1.193-1.1-1.392-.312-.1-.482-.433-.382-.742.102-.31.431-.479.743-.381z" clip-rule="evenodd"/>
</svg>
