<svg xmlns="http://www.w3.org/2000/svg" width="11" height="10" fill="none" viewBox="0 0 11 10">
    <path fill="#fff" fill-rule="evenodd" d="M9.9 9.208c.219 0 .396.177.396.396 0 .219-.177.396-.396.396H6.07c-.218 0-.395-.177-.395-.396 0-.219.177-.396.396-.396H9.9zM7.453.345l.91.707c.321.191.572.533.667.937.094.4.026.813-.194 1.162l-.008.012-.004.005c-.036.047-.192.244-.976 1.226-.007.013-.015.025-.024.037-.013.017-.028.033-.043.047l-.17.213-.12.15L6.6 5.96l-.18.224-2.645 3.31c-.242.302-.605.478-.996.483L.858 10H.851c-.183 0-.343-.126-.386-.305L.034 7.863c-.09-.38 0-.772.243-1.076L5.25.567l.005-.008c.546-.652 1.532-.748 2.197-.214zM4.696 2.528l-3.8 4.754c-.091.113-.124.259-.091.399l.36 1.523 1.604-.02c.153-.002.293-.07.387-.186L4.864 6.86l.22-.276.22-.275 1.642-2.055-2.25-1.728zm1.17-1.463l-.675.844 2.25 1.727.744-.934c.086-.14.12-.339.075-.53-.047-.196-.169-.362-.345-.468-.037-.026-.927-.717-.954-.738-.335-.269-.823-.222-1.095.099z" clip-rule="evenodd"/>
</svg>
