<svg xmlns="http://www.w3.org/2000/svg" width="17" height="21" fill="none" viewBox="0 0 17 21">
    <path fill="#979797" fill-rule="evenodd" d="M16.74 17.114c0 3.483-4.776 3.886-8.369 3.886h-.257C5.826 20.994 0 20.85 0 17.093c0-3.412 4.585-3.868 8.15-3.886h.478c2.289.006 8.113.15 8.113 3.907zm-8.369-2.322c-4.503 0-6.786.774-6.786 2.3 0 1.542 2.283 2.323 6.786 2.323 4.502 0 6.784-.774 6.784-2.301 0-1.54-2.281-2.322-6.784-2.322zM8.371 0c3.095 0 5.611 2.517 5.611 5.612 0 3.094-2.516 5.61-5.61 5.61h-.035c-3.088-.009-5.59-2.527-5.579-5.613C2.758 2.517 5.276 0 8.371 0zm0 1.51c-2.262 0-4.103 1.84-4.103 4.102-.008 2.255 1.82 4.094 4.073 4.103l.03.754v-.754c2.262 0 4.102-1.841 4.102-4.103 0-2.263-1.84-4.103-4.102-4.103z" clip-rule="evenodd"/>
</svg>
