<svg xmlns="http://www.w3.org/2000/svg" width="20" height="20" fill="none" viewBox="0 0 20 20">
    <path fill="#fff" fill-rule="evenodd" d="M10 0c5.514 0 10 4.486 10 10s-4.486 10-10 10S0 15.514 0 10 4.486 0 10 0zm0 1.463c-4.707 0-8.537 3.83-8.537 8.537 0 4.707 3.83 8.537 8.537 8.537 4.707 0 8.537-3.83 8.537-8.537 0-4.707-3.83-8.537-8.537-8.537zm-.409 5.133c.507.212 4.067 2.036 4.067 3.4 0 1.278-3.204 3.065-4.022 3.406-.32.133-.683.258-1.024.258-.263 0-.513-.075-.717-.278-.157-.155-.576-.57-.578-3.3-.001-2.9.435-3.331.578-3.475.51-.505 1.342-.159 1.696-.01zm-.68 1.293c-.173.977-.176 3.31-.003 4.236.857-.302 2.712-1.522 3.212-2.126-.498-.586-2.33-1.78-3.209-2.11z" clip-rule="evenodd"/>
</svg>
