<svg xmlns="http://www.w3.org/2000/svg" width="15" height="15" fill="none" viewBox="0 0 15 15">
    <path fill="#E15A55" fill-rule="evenodd" d="M10.77 0C13.3 0 15 1.776 15 4.42v6.16c0 2.644-1.7 4.42-4.23 4.42H4.23C1.7 15 0 13.224 0 10.58V4.42C0 1.776 1.7 0 4.23 0h6.54zm0 1.047H4.23c-1.933 0-3.183 1.323-3.183 3.373v6.16c0 2.05 1.25 3.373 3.184 3.373h6.538c1.935 0 3.184-1.323 3.184-3.373V4.42c0-2.05-1.249-3.373-3.184-3.373zM7.5 4.414c.289 0 .523.235.523.524V6.97h2.035c.289 0 .523.234.523.523 0 .289-.234.523-.523.523H8.023v2.034c0 .288-.234.523-.523.523-.289 0-.523-.235-.523-.524V8.017H4.942c-.29 0-.523-.234-.523-.523 0-.289.233-.523.523-.523h2.035V4.938c0-.29.234-.524.523-.524z" clip-rule="evenodd"/>
</svg>
