<svg xmlns="http://www.w3.org/2000/svg" width="18" height="21" fill="none" viewBox="0 0 18 21">
    <path fill="#6F6F71" fill-rule="evenodd" d="M8.751 0c1.17 0 7.302 2.106 8.114 2.917.677.677.667 1.224.62 3.844-.02 1.05-.045 2.481-.045 4.462 0 7.1-8.12 9.64-8.465 9.744-.073.023-.148.033-.224.033-.075 0-.15-.01-.224-.033-.345-.104-8.464-2.644-8.464-9.744 0-1.977-.026-3.408-.045-4.459C.01 6.296.003 5.894 0 5.545v-.393c.009-1.293.13-1.727.638-2.235C1.448 2.106 7.581 0 8.751 0zm0 1.547c-.875 0-6.394 1.944-7.03 2.475-.188.19-.195.517-.155 2.714.018 1.058.044 2.496.044 4.487 0 5.366 5.903 7.748 7.14 8.186 1.236-.44 7.142-2.836 7.142-8.186 0-1.993.026-3.432.046-4.49.039-2.195.032-2.523-.168-2.721-.624-.52-6.144-2.465-7.019-2.465zm3.84 6.025c.302.302.302.792 0 1.094L8.569 12.69c-.115.116-.265.191-.425.217l-.122.01c-.205 0-.402-.082-.547-.227l-1.952-1.954c-.301-.303-.301-.794 0-1.095.302-.302.793-.302 1.095 0l1.404 1.406 3.475-3.474c.302-.303.791-.303 1.094 0z" clip-rule="evenodd"/>
</svg>
