<svg xmlns="http://www.w3.org/2000/svg" width="21" height="21" fill="none" viewBox="0 0 21 21">
    <path fill="#fff" fill-rule="evenodd" d="M7.98 12.568c3.425 0 7.98.385 7.98 3.723 0 3.515-5.307 3.726-7.584 3.738H7.55C5.123 20.017 0 19.807 0 16.311c0-3.519 5.307-3.73 7.583-3.743h.397zm0 1.576c-2.921 0-6.403.375-6.403 2.167 0 1.422 2.154 2.143 6.403 2.143 4.248 0 6.403-.729 6.403-2.163 0-1.425-2.155-2.147-6.403-2.147zm9.58-2.067c2.844.425 3.44 1.742 3.44 2.771 0 .766-.331 1.804-1.91 2.402-.092.035-.187.052-.28.052-.319 0-.618-.195-.737-.51-.155-.406.05-.862.457-1.016.893-.338.893-.751.893-.928 0-.596-.705-1.004-2.095-1.21-.431-.066-.729-.467-.665-.897.066-.431.474-.72.897-.664zM7.98 0c2.975 0 5.397 2.422 5.397 5.397.006 1.434-.55 2.788-1.563 3.807-1.011 1.02-2.362 1.585-3.799 1.59H7.98c-2.977 0-5.399-2.421-5.399-5.397C2.581 2.422 5.003 0 7.98 0zm7.45 1.181c2.065.339 3.563 2.105 3.563 4.2-.004 2.108-1.577 3.918-3.66 4.21-.037.005-.074.007-.11.007-.388 0-.725-.285-.78-.679-.06-.43.239-.83.67-.89 1.312-.184 2.302-1.322 2.304-2.649 0-1.318-.944-2.43-2.242-2.642-.43-.072-.721-.476-.65-.906.07-.43.476-.72.904-.65zm-7.45.396c-2.108 0-3.822 1.714-3.822 3.82 0 2.107 1.714 3.82 3.822 3.82h.032c1.014-.003 1.968-.402 2.684-1.124.716-.72 1.109-1.677 1.104-2.693 0-2.11-1.714-3.823-3.82-3.823z" clip-rule="evenodd"/>
</svg>
