<svg xmlns="http://www.w3.org/2000/svg" width="15" height="15" fill="none" viewBox="0 0 15 15">
    <path fill="#6F6F71" d="M13.612 4.047c.661.693 1.11 1.561 1.292 2.501.182.94.09 1.913-.264 2.803-.355.89-.958 1.658-1.737 2.215-.779.557-1.701.878-2.658.926l-.249.006H5.881l1.435 1.435c.103.104.167.24.18.386.014.145-.025.291-.108.411l-.072.087c-.104.103-.24.167-.386.18-.146.014-.291-.025-.412-.108l-.086-.072-2.502-2.502c-.103-.104-.167-.24-.18-.386-.013-.146.025-.292.109-.412l.07-.086 2.503-2.502c.11-.11.258-.176.414-.183.156-.008.31.044.43.144.12.1.197.241.218.396.021.155-.017.312-.106.44l-.072.088-1.435 1.433h4.115c.957 0 1.877-.365 2.572-1.02.696-.656 1.115-1.553 1.171-2.508l.007-.22c.001-.987-.388-1.934-1.082-2.636-.115-.115-.18-.27-.18-.433-.003-.162.059-.318.17-.436.112-.118.265-.187.428-.194.162-.007.32.05.441.157l.09.09zM8.477.11l.087.071 2.501 2.502.072.088c.072.104.111.228.111.355 0 .127-.038.25-.11.355l-.073.087-2.5 2.501-.088.073c-.105.072-.228.11-.355.11-.127 0-.25-.038-.355-.11l-.088-.073-.07-.087c-.073-.105-.112-.228-.112-.355 0-.127.04-.25.111-.355l.071-.088L9.114 3.75H4.997c-.956 0-1.876.365-2.572 1.021-.696.656-1.115 1.554-1.17 2.508l-.007.22c0 1.025.411 1.952 1.076 2.63.105.12.16.276.154.436-.006.16-.073.31-.187.422-.115.112-.267.176-.427.178-.16.003-.315-.056-.432-.164C.757 10.314.295 9.446.102 8.502c-.194-.944-.11-1.923.24-2.82.35-.898.953-1.675 1.734-2.238.782-.564 1.71-.89 2.671-.938l.25-.006 4.117-.001L7.68 1.065 7.61.978c-.083-.12-.12-.266-.107-.41.013-.146.077-.282.18-.385.103-.103.239-.167.384-.18.145-.014.29.024.41.106z"/>
</svg>
