<svg xmlns="http://www.w3.org/2000/svg" width="21" height="21" fill="none" viewBox="0 0 21 21">
    <path fill="#6F6F71" fill-rule="evenodd" d="M15.077 0C18.62 0 21 2.487 21 6.188v8.624C21 18.513 18.62 21 15.077 21H5.923C2.38 21 0 18.513 0 14.812V6.188C0 2.487 2.38 0 5.923 0h9.154zm0 1.465H5.923c-2.708 0-4.458 1.853-4.458 4.723v8.624c0 2.87 1.75 4.723 4.458 4.723h9.154c2.708 0 4.458-1.853 4.458-4.723V6.188c0-2.87-1.75-4.723-4.458-4.723zM10.5 6.18c.404 0 .733.328.733.733v2.845h2.848c.405 0 .733.328.733.732 0 .405-.328.733-.733.733h-2.848v2.846c0 .405-.329.733-.733.733-.404 0-.733-.328-.733-.733v-2.846H6.92c-.406 0-.733-.328-.733-.733 0-.404.327-.732.733-.732h2.848V6.913c0-.405.329-.733.733-.733z" clip-rule="evenodd"/>
</svg>
