<svg xmlns="http://www.w3.org/2000/svg" width="24" height="21" fill="none" viewBox="0 0 24 21">
    <path fill="#6F6F71" fill-rule="evenodd" d="M11.563 0c1.178 0 2.233.61 2.817 1.634l8.298 14.508c.58 1.015.577 2.226-.01 3.24C22.08 20.394 21.03 21 19.86 21H3.252c-1.171 0-2.22-.605-2.809-1.619-.587-1.013-.59-2.224-.01-3.239l8.314-14.51C9.331.61 10.383 0 11.562 0h.002zm0 1.732c-.55 0-1.04.284-1.315.761l-8.311 14.51c-.27.473-.268 1.037.005 1.51.274.472.764.755 1.31.755H19.86c.545 0 1.035-.283 1.309-.755.274-.473.277-1.037.004-1.51l-8.296-14.51c-.274-.477-.764-.76-1.315-.76zm-.008 12.701c.638 0 1.154.516 1.154 1.155 0 .638-.516 1.155-1.154 1.155-.639 0-1.161-.517-1.161-1.155 0-.639.512-1.155 1.149-1.155h.012zm-.003-6.853c.478 0 .866.388.866.866v3.58c0 .478-.388.866-.866.866s-.866-.388-.866-.867v-3.58c0-.477.388-.865.866-.865z" clip-rule="evenodd"/>
</svg>
