<svg xmlns="http://www.w3.org/2000/svg" width="21" height="21" fill="none" viewBox="0 0 21 21">
    <path fill="#fff" fill-rule="evenodd" d="M9.482 12.727l3.939 6.39c.172.28.441.276.55.261.109-.015.37-.082.465-.4l4.925-16.633c.087-.294-.072-.494-.143-.565-.069-.071-.266-.223-.551-.142L2.02 6.512c-.315.092-.384.357-.4.466-.014.111-.019.386.26.561l6.463 4.042 5.71-5.77c.313-.317.825-.32 1.143-.007.318.314.32.826.006 1.143l-5.72 5.78zM13.887 21c-.75 0-1.436-.381-1.841-1.036L7.87 13.189 1.025 8.908C.287 8.446-.098 7.623.021 6.758c.119-.864.712-1.551 1.546-1.796L18.212.088c.766-.224 1.587-.012 2.15.55.565.568.775 1.397.547 2.166l-4.925 16.632c-.247.837-.936 1.428-1.799 1.544-.1.012-.199.02-.298.02z" clip-rule="evenodd"/>
</svg>
