<svg xmlns="http://www.w3.org/2000/svg" width="21" height="21" fill="none" viewBox="0 0 21 21">
    <path fill="#6F6F71" fill-rule="evenodd" d="M10.5 0C16.29 0 21 4.71 21 10.5S16.29 21 10.5 21 0 16.29 0 10.5 4.71 0 10.5 0zm0 1.575c-4.921 0-8.925 4.004-8.925 8.925 0 4.921 4.004 8.925 8.925 8.925 4.921 0 8.925-4.004 8.925-8.925 0-4.921-4.004-8.925-8.925-8.925zm.004 11.86c.58 0 1.05.47 1.05 1.05 0 .581-.47 1.05-1.05 1.05-.58 0-1.055-.469-1.055-1.05 0-.58.465-1.05 1.045-1.05h.01zm-.01-7.708c.434 0 .787.353.787.787v4.64c0 .435-.353.788-.787.788-.435 0-.788-.353-.788-.788v-4.64c0-.434.353-.787.788-.787z" clip-rule="evenodd"/>
</svg>
