<svg xmlns="http://www.w3.org/2000/svg" width="21" height="21" fill="none" viewBox="0 0 21 21">
    <path fill="#fff" fill-rule="evenodd" d="M4.577 11.846c4.382 0 4.577 1.486 4.577 4.577 0 1.549 0 2.65-.65 3.457-.75.93-2.111 1.12-3.927 1.12-1.816 0-3.178-.19-3.927-1.12C0 19.073 0 17.973 0 16.45l.808-.027H0c0-3.09.195-4.577 4.577-4.577zm11.846 0c4.382 0 4.577 1.486 4.577 4.577 0 1.549 0 2.65-.65 3.457-.749.93-2.111 1.12-3.927 1.12-1.816 0-3.178-.19-3.926-1.12-.65-.807-.65-1.907-.65-3.43l.807-.027h-.808c0-3.09.195-4.577 4.577-4.577zM4.8 13.462h-.222c-2.81 0-2.954.201-2.961 2.56v.918c.005.938.041 1.616.291 1.928.286.353 1.133.517 2.67.517s2.384-.165 2.67-.518c.291-.363.291-1.225.291-2.418 0-2.693 0-2.974-2.74-2.987zm11.846 0h-.222c-2.81 0-2.954.201-2.961 2.56v.918c.005.938.041 1.616.291 1.928.286.353 1.133.517 2.67.517s2.384-.165 2.67-.518c.292-.363.292-1.225.292-2.418 0-2.693 0-2.974-2.74-2.987zM4.577 0c4.382 0 4.577 1.486 4.577 4.577 0 1.549 0 2.65-.65 3.457-.75.93-2.111 1.12-3.927 1.12-1.816 0-3.178-.19-3.927-1.12C0 7.227 0 6.127 0 4.604l.808-.027H0C0 1.487.195 0 4.577 0zm11.846 0C20.805 0 21 1.486 21 4.577c0 1.549 0 2.65-.65 3.457-.749.93-2.111 1.12-3.927 1.12-1.816 0-3.178-.19-3.926-1.12-.65-.807-.65-1.907-.65-3.43l.807-.027h-.808c0-3.09.195-4.577 4.577-4.577zM4.8 1.616h-.222c-2.81 0-2.954.201-2.961 2.56v.918c.005.938.041 1.616.291 1.928.286.353 1.133.516 2.67.516s2.384-.164 2.67-.518c.291-.362.291-1.224.291-2.417 0-2.693 0-2.974-2.74-2.987zm11.846 0h-.222c-2.81 0-2.954.201-2.961 2.56v.918c.005.938.041 1.616.291 1.928.286.353 1.133.516 2.67.516s2.384-.164 2.67-.518c.292-.362.292-1.224.292-2.417 0-2.693 0-2.974-2.74-2.987z" clip-rule="evenodd"/>
</svg>
