<svg xmlns="http://www.w3.org/2000/svg" width="24" height="21" fill="none" viewBox="0 0 24 21">
    <path fill="#fff" fill-rule="evenodd" d="M19.003 12.822c2.266 0 4.11 1.834 4.11 4.089 0 2.255-1.844 4.089-4.11 4.089-2.268 0-4.113-1.834-4.113-4.09 0-2.254 1.845-4.088 4.113-4.088zm0 1.981c-1.176 0-2.132.946-2.132 2.108 0 1.163.956 2.108 2.132 2.108 1.174 0 2.129-.944 2.129-2.108 0-1.162-.955-2.108-2.13-2.108zM9.35 15.972c.547 0 .99.443.99.99 0 .547-.443.99-.99.99H1.03c-.547 0-.99-.443-.99-.99 0-.547.443-.99.99-.99h8.322zM4.111 0C6.38 0 8.224 1.836 8.224 4.09c0 2.255-1.844 4.088-4.111 4.088C1.845 8.178 0 6.345 0 4.09 0 1.836 1.845 0 4.112 0zm0 1.981c-1.174 0-2.13.946-2.13 2.11 0 1.162.956 2.106 2.13 2.106 1.176 0 2.13-.944 2.13-2.107 0-1.163-.954-2.109-2.13-2.109zm17.273 1.19c.547 0 .991.443.991.99 0 .547-.444.99-.99.99h-8.321c-.547 0-.99-.443-.99-.99 0-.547.443-.99.99-.99h8.32z" clip-rule="evenodd"/>
</svg>
