<svg xmlns="http://www.w3.org/2000/svg" width="20" height="21" fill="none" viewBox="0 0 20 21">
    <path fill="#6F6F71" fill-rule="evenodd" d="M10.406 0c.725 0 1.43.298 1.936.816.505.52.784 1.235.762 1.96.002.163.056.352.154.517.16.273.415.466.717.545.302.075.618.034.887-.125 1.297-.74 2.948-.297 3.689.99l.631 1.094c.016.03.03.058.043.087.67 1.268.223 2.864-1.024 3.593-.181.104-.328.25-.43.427-.157.272-.2.597-.121.895.08.303.274.556.547.712.615.354 1.074.95 1.258 1.638.183.687.083 1.433-.275 2.048l-.673 1.12c-.74 1.274-2.392 1.715-3.676.973-.17-.099-.368-.152-.565-.157h-.006c-.293 0-.594.124-.813.342-.222.222-.344.518-.342.832-.007 1.489-1.218 2.693-2.7 2.693h-1.27c-1.488 0-2.7-1.21-2.7-2.699-.001-.183-.054-.374-.152-.539-.16-.278-.417-.476-.714-.555-.295-.08-.618-.036-.883.118-.637.355-1.386.441-2.07.248-.685-.193-1.276-.663-1.622-1.287L.36 15.195c-.74-1.285-.3-2.932.983-3.674.364-.21.59-.6.59-1.02 0-.42-.226-.812-.59-1.022C.06 8.733-.38 7.082.36 5.797l.687-1.128c.73-1.27 2.383-1.719 3.671-.979.175.104.366.157.56.16.63 0 1.159-.522 1.169-1.162-.004-.707.275-1.385.782-1.896C7.738.28 8.415 0 9.136 0h1.27zm0 1.52h-1.27c-.314 0-.608.123-.83.344-.221.222-.342.517-.34.83C7.945 4.177 6.734 5.37 5.267 5.37c-.47-.005-.923-.131-1.316-.367-.553-.314-1.274-.12-1.597.442l-.687 1.128c-.314.546-.121 1.266.438 1.591.83.48 1.348 1.377 1.348 2.338 0 .96-.518 1.855-1.35 2.337-.556.322-.749 1.038-.426 1.596l.64 1.102c.157.285.416.49.715.575.298.083.626.048.9-.104.402-.237.87-.36 1.34-.36.232 0 .465.03.692.091.685.184 1.28.643 1.632 1.258.23.386.356.837.36 1.297 0 .659.529 1.187 1.18 1.187h1.27c.647 0 1.176-.525 1.18-1.173-.005-.715.275-1.395.787-1.907.504-.505 1.21-.808 1.915-.788.462.012.907.136 1.3.36.564.322 1.284.13 1.61-.428l.674-1.121c.15-.259.193-.583.113-.882-.079-.3-.277-.559-.545-.712-.626-.36-1.073-.942-1.259-1.64-.183-.683-.083-1.43.275-2.046.233-.405.575-.746.984-.982.55-.32.742-1.04.423-1.599-.014-.022-.026-.045-.036-.07l-.594-1.03c-.323-.562-1.043-.755-1.607-.434-.61.36-1.336.464-2.033.28-.696-.18-1.28-.62-1.644-1.243-.233-.39-.36-.842-.364-1.303.01-.347-.112-.658-.333-.886-.22-.227-.53-.356-.846-.356zm-.63 5.548c1.891 0 3.43 1.54 3.43 3.433 0 1.892-1.539 3.43-3.43 3.43-1.893 0-3.433-1.538-3.433-3.43 0-1.893 1.54-3.433 3.432-3.433zm0 1.52c-1.055 0-1.912.859-1.912 1.913s.857 1.91 1.911 1.91 1.912-.856 1.912-1.91c0-1.054-.858-1.913-1.912-1.913z" clip-rule="evenodd"/>
</svg>
