<svg xmlns="http://www.w3.org/2000/svg" width="20" height="24" fill="none" viewBox="0 0 20 24">
    <path fill="#6F6F71" d="M15.996 15.458c-1.216 0-2.287.65-2.96 1.64l-5.818-3.242c.097-.358.165-.73.165-1.122 0-.531-.1-1.037-.273-1.502l6.088-3.988c.678.866 1.674 1.427 2.798 1.427 2.036 0 3.691-1.802 3.691-4.018 0-2.216-1.655-4.018-3.69-4.018-2.037 0-3.692 1.802-3.692 4.018 0 .51.096.995.257 1.445l-6.107 4c-.677-.84-1.659-1.382-2.764-1.382C1.656 8.716 0 10.518 0 12.734c0 2.216 1.656 4.019 3.691 4.019 1.236 0 2.326-.67 2.996-1.688l5.799 3.232c-.107.375-.181.766-.181 1.179 0 2.216 1.655 4.018 3.691 4.018 2.036 0 3.691-1.802 3.691-4.018 0-2.216-1.655-4.018-3.69-4.018z"/>
</svg>
