<svg xmlns="http://www.w3.org/2000/svg" width="20" height="21" fill="none" viewBox="0 0 20 21">
    <path fill="#6F6F71" d="M15.996 13.617c-1.215 0-2.296.59-2.969 1.5l-5.794-2.961c.097-.33.15-.68.15-1.04 0-.49-.096-.957-.27-1.385l6.073-3.649c.678.795 1.686 1.3 2.81 1.3 2.036 0 3.691-1.655 3.691-3.69 0-2.036-1.655-3.692-3.69-3.692-2.036 0-3.692 1.656-3.692 3.691 0 .47.088.92.25 1.335L6.467 8.684c-.678-.772-1.67-1.26-2.776-1.26C1.656 7.424 0 9.08 0 11.115c0 2.036 1.656 3.692 3.691 3.692 1.236 0 2.331-.61 3.002-1.545l5.777 2.952c-.107.346-.165.714-.165 1.095 0 2.035 1.656 3.691 3.691 3.691 2.036 0 3.691-1.656 3.691-3.691 0-2.036-1.655-3.692-3.69-3.692zm0-12.387c1.357 0 2.461 1.104 2.461 2.461 0 1.357-1.104 2.461-2.46 2.461-1.358 0-2.462-1.104-2.462-2.46 0-1.358 1.104-2.462 2.461-2.462zM3.691 13.576c-1.357 0-2.46-1.104-2.46-2.46 0-1.358 1.103-2.462 2.46-2.462s2.461 1.104 2.461 2.461c0 1.357-1.104 2.461-2.46 2.461zm12.305 6.194c-1.357 0-2.46-1.104-2.46-2.461 0-1.357 1.103-2.461 2.46-2.461s2.461 1.104 2.461 2.46c0 1.358-1.104 2.462-2.46 2.462z"/>
</svg>
