<svg width="16" height="16" viewBox="0 0 16 16" fill="none" xmlns="http://www.w3.org/2000/svg">
    <path d="M11.947 9.547a.734.734 0 0 0-.213.647l.593 3.28a.72.72 0 0 1-.3.72.734.734 0 0 1-.78.053l-2.953-1.54a.753.753 0 0 0-.333-.087H7.78a.54.54 0 0 0-.18.06l-2.953 1.547c-.146.073-.312.1-.474.073a.74.74 0 0 1-.593-.847l.593-3.28a.746.746 0 0 0-.212-.653L1.553 7.187a.72.72 0 0 1-.18-.753.749.749 0 0 1 .594-.5l3.313-.481a.741.741 0 0 0 .587-.406l1.46-2.993a.694.694 0 0 1 .133-.18l.06-.047a.447.447 0 0 1 .107-.087l.073-.026.113-.047h.28c.252.026.472.176.588.4l1.479 2.98c.107.218.314.37.553.406l3.314.48c.28.04.514.234.606.5a.724.724 0 0 1-.193.754l-2.493 2.36z" fill="#F5AF19"/>
</svg>
