<svg width="315" height="292" viewBox="0 0 315 292" fill="none" xmlns="http://www.w3.org/2000/svg">
<path d="M133.619 18.0243C90.9077 18.6693 24.8246 32.5442 5.8033 68.2011C-0.839693 80.6547 -0.390556 98.9628 0.508894 135.579C0.773438 146.342 1.21199 162.028 4.29011 181.491C10.6862 221.923 15.04 249.448 31.517 265.475C72.8047 305.634 221.949 304.473 285.637 232.174C320.379 192.733 325.724 136.63 293.956 90.2623C258.981 39.2135 190.8 17.1614 133.619 18.0243Z" fill="#F4F7FA"/>
<path d="M158.614 47.9004H79.5532C75.3836 47.9004 72 51.2813 72 55.4568V226.258C72 230.429 75.3795 233.814 79.5532 233.814H158.614C162.783 233.814 166.167 230.433 166.167 226.258V55.4568C166.163 51.2854 162.783 47.9004 158.614 47.9004Z" fill="#D8D8D8"/>
<path d="M171.325 55.4568V226.258C171.325 230.429 167.942 233.814 163.772 233.814H84.7114C80.5377 233.814 77.1582 230.429 77.1582 226.258V55.4568C77.1582 51.2854 80.5336 47.9004 84.7114 47.9004H163.772C167.942 47.9045 171.325 51.2854 171.325 55.4568Z" fill="white"/>
<path d="M74.7386 69.332C74.114 69.332 73.6094 69.8369 73.6094 70.4618V99.1769C73.6094 99.8017 74.114 100.307 74.7386 100.307C75.3632 100.307 75.8678 99.8017 75.8678 99.1769V70.4618C75.8678 69.8369 75.3632 69.332 74.7386 69.332Z" fill="white"/>
<path d="M168.099 55.5893V226.266C168.099 226.444 168.086 226.622 168.066 226.796C168.008 227.326 167.855 227.814 167.635 228.265C166.945 229.651 165.575 230.595 163.995 230.595H84.8106C83.7062 230.595 82.7011 230.131 81.9565 229.382C81.1871 228.596 80.7031 227.487 80.7031 226.27V55.5893C80.7031 54.7534 80.9224 53.9754 81.3195 53.3174C81.6793 52.6967 82.1881 52.1836 82.7796 51.8277C83.3794 51.4677 84.0743 51.2607 84.8065 51.2607H163.991C166.047 51.2607 167.747 52.854 168.049 54.9313C168.061 55.0224 168.078 55.1134 168.078 55.2127C168.082 55.2458 168.082 55.279 168.09 55.3038C168.094 55.3948 168.099 55.49 168.099 55.5893Z" fill="#C7D9FF"/>
<path d="M128.884 204.654C130.528 203.008 130.528 200.341 128.884 198.696C127.239 197.051 124.573 197.051 122.929 198.696C121.284 200.341 121.284 203.008 122.929 204.654C124.573 206.299 127.239 206.299 128.884 204.654Z" fill="white"/>
<path d="M100.608 199.632H110.726C111.09 199.632 111.388 199.334 111.388 198.97C111.388 198.606 111.09 198.308 110.726 198.308H100.608C100.244 198.308 99.9463 198.606 99.9463 198.97C99.9463 199.334 100.244 199.632 100.608 199.632Z" fill="white"/>
<path d="M110.726 201.01H100.608C100.244 201.01 99.9463 201.308 99.9463 201.672C99.9463 202.036 100.244 202.334 100.608 202.334H110.726C111.09 202.334 111.388 202.036 111.388 201.672C111.388 201.308 111.09 201.01 110.726 201.01Z" fill="white"/>
<path d="M110.726 203.712H100.608C100.244 203.712 99.9463 204.01 99.9463 204.374C99.9463 204.738 100.244 205.036 100.608 205.036H110.726C111.09 205.036 111.388 204.738 111.388 204.374C111.388 204.01 111.09 203.712 110.726 203.712Z" fill="white"/>
<path d="M143.462 198.312V205.028C143.462 205.38 143.863 205.582 144.149 205.376L148.686 202.015C148.918 201.842 148.918 201.494 148.686 201.324L144.149 197.964C143.863 197.757 143.462 197.96 143.462 198.312Z" fill="white"/>
<path d="M187.316 232.991C188.297 232.561 188.421 231.687 188.839 230.86C188.868 230.806 189.029 229.614 189.029 229.519C189.033 229.109 190.22 228.017 190.77 228.873C191.858 230.558 193.054 227.926 192.992 228.629C192.806 230.723 193.765 234.1 192.983 234.328C191.325 234.816 183.573 235.383 183.424 234.568C183.341 234.079 185.62 233.736 187.316 232.991Z" fill="#404859"/>
<path d="M203.982 232.991C204.962 232.561 205.086 231.687 205.504 230.86C205.533 230.806 205.694 229.614 205.694 229.519C205.698 229.109 206.885 228.017 207.44 228.873C208.528 230.558 209.723 227.926 209.661 228.629C209.475 230.723 210.435 234.1 209.653 234.328C207.994 234.816 200.242 235.383 200.093 234.568C200.002 234.079 202.286 233.736 203.982 232.991Z" fill="#404859"/>
<path d="M206.141 156.157C204.185 151.828 189.294 146.217 185.364 145.29C185.078 149.648 183.068 152.362 180.69 157.063C177.368 163.635 186.464 229.772 186.464 229.772H194.613L192.57 168.348L203.225 229.772H211.043C211.047 229.768 208.388 161.119 206.141 156.157Z" fill="#7F635D"/>
<path d="M190.158 124.648C190.757 132.42 179.477 150.827 170.166 150.731C165.008 150.682 162.402 141.967 161.198 135.246C160.065 128.911 159.436 124.263 161.231 124.065C164.011 123.758 171.63 140.084 171.63 140.084C171.63 140.084 181.393 125.534 186.377 123.419C190.679 121.594 190.038 123.072 190.158 124.648Z" fill="#FF867A"/>
<path d="M190.158 124.648C190.038 123.071 190.171 120.928 185.869 122.757C182.266 124.288 176.285 132.196 173.24 136.467C173.782 138.403 175.466 142.778 180.098 145.256C185.931 139.219 190.547 129.692 190.158 124.648Z" fill="#D8D8D8"/>
<path d="M207.143 161.963L182.229 162.542C182.229 162.542 188.305 166.072 198.431 166.854C202.336 167.156 205.389 167.322 207.668 167.409C207.498 165.377 207.32 163.54 207.143 161.963Z" fill="#514240"/>
<path d="M207.681 146.73C208.338 137.174 210.067 131.898 209.157 128.637C207.987 124.458 201.877 121.606 198.378 121.122C195.499 120.721 188.434 120.965 185.873 122.761C181.766 125.637 179.362 161.275 179.362 161.275C179.362 161.275 182.733 163.506 192.14 164.706C204.396 166.27 208.545 164.706 208.545 164.706C208.545 164.706 206.899 158.06 207.681 146.73Z" fill="#EAEAEA"/>
<path d="M196.119 138.346L193.165 138.578C192.892 138.598 192.69 138.838 192.71 139.107L193.372 147.529C193.393 147.802 193.633 148.004 193.902 147.984L196.859 147.752C197.132 147.731 197.335 147.491 197.314 147.222L196.652 138.801C196.632 138.528 196.392 138.321 196.119 138.346Z" fill="#434A59"/>
<path d="M196.983 147.243L196.946 146.78L196.321 138.83V138.822C196.301 138.549 196.061 138.346 195.792 138.367L192.838 138.598C192.565 138.619 192.363 138.859 192.383 139.128L192.387 139.174L193.004 147.016L193.008 147.086L193.045 147.549C193.066 147.823 193.306 148.025 193.575 148.005L196.528 147.773C196.801 147.756 197.004 147.516 196.983 147.243Z" fill="#54678C"/>
<path d="M208.515 127.16C208.515 127.16 223.953 147.955 219.721 156.252C215.171 165.178 195.341 148.782 196.627 145.29C197.595 142.662 211.911 149.271 211.911 149.271C211.911 149.271 204.602 137.775 204.929 132.37C205.21 127.702 208.515 127.16 208.515 127.16Z" fill="#FF867A"/>
<path d="M198.729 144.71C198.729 144.71 197.91 143.783 197.562 142.881C197.285 142.153 197.115 140.477 196.826 141.027C196.536 141.577 196.979 143.539 196.578 143.717C196.176 143.895 193.116 141.925 192.632 142.297C192.148 142.67 192.408 144.578 194.017 145.625C195.63 146.671 196.979 147.47 197.872 146.738C198.77 146.005 198.729 144.71 198.729 144.71Z" fill="#FF867A"/>
<path d="M216.061 139.269C212.656 132.738 208.516 127.16 208.516 127.16C208.516 127.16 204.822 127.702 204.541 132.37C204.379 135.019 206.584 140.655 208.334 144.156C209.835 143.953 214.22 141.876 216.061 139.269Z" fill="#EAEAEA"/>
<path d="M208.512 144.408C208.421 144.408 208.326 144.363 208.272 144.28C205.488 139.98 204.259 133.173 204.247 133.103C204.218 132.949 204.322 132.8 204.479 132.771C204.636 132.742 204.781 132.846 204.81 133.003C204.822 133.069 206.03 139.769 208.752 143.97C208.839 144.102 208.801 144.276 208.669 144.363C208.619 144.396 208.566 144.408 208.512 144.408Z" fill="#B6B9BA"/>
<path d="M205.385 136.939C205.339 136.939 205.29 136.927 205.248 136.902C204.293 136.368 203.279 134.576 203.234 134.502C203.155 134.365 203.205 134.191 203.341 134.113C203.478 134.034 203.651 134.084 203.73 134.22C203.999 134.7 204.851 136.024 205.525 136.405C205.662 136.48 205.711 136.653 205.633 136.79C205.579 136.889 205.484 136.939 205.385 136.939Z" fill="#B6B9BA"/>
<path d="M170.038 142.401C169.989 142.401 169.939 142.388 169.898 142.363C169.761 142.285 169.716 142.111 169.794 141.974C170.762 140.303 171.453 139.864 171.482 139.847C171.614 139.765 171.792 139.806 171.875 139.938C171.958 140.071 171.916 140.245 171.784 140.327C171.767 140.34 171.159 140.75 170.287 142.26C170.233 142.347 170.138 142.401 170.038 142.401Z" fill="#C66C67"/>
<path d="M216.681 153.11C216.577 153.11 216.474 153.052 216.424 152.953C215.444 150.992 211.841 149.547 211.804 149.531C211.659 149.473 211.585 149.307 211.643 149.163C211.701 149.018 211.866 148.943 212.011 149.001C212.168 149.063 215.854 150.541 216.933 152.697C217.004 152.837 216.946 153.007 216.805 153.077C216.768 153.102 216.722 153.11 216.681 153.11Z" fill="#C66C67"/>
<path d="M192.267 113.881C192.267 113.881 191.221 111.513 193.086 110.748C193.438 108.112 195.973 109.457 197.086 110.98C198.199 111.712 199.034 111.782 198.89 114.025C198.782 115.722 197.893 117.423 197.893 117.423C197.893 117.423 193.157 116.206 192.267 113.881Z" fill="#CE4949"/>
<path d="M197.484 114.961L199.006 121.305C198.973 122.099 195.85 123.581 194.65 122.513C194.298 122.203 194.542 116.637 194.542 116.637L197.484 114.961Z" fill="#FF867A"/>
<path d="M197.223 113.438L196.561 115.904C196.847 117.013 197.082 118.296 195.982 118.606C195.101 118.859 194.53 118.867 193.401 118.743C192.458 118.643 191.966 117.745 191.949 116.512C191.928 114.911 192.363 113.433 192.64 112.655C192.933 111.824 193.463 111.265 194.116 111.207C194.327 111.89 195.693 112.904 197.223 113.438Z" fill="#FF867A"/>
<path d="M193.103 114.895C192.772 114.961 191.937 114.108 191.767 115.081C191.722 115.346 191.643 117.282 191.97 118.338C192.239 119.203 192.822 119.798 193.587 119.902C194.352 120.005 196.069 119.571 196.516 119.066C197.281 118.201 197.438 117.1 197.285 116.397C197.132 115.693 197.078 115.429 197.008 115.16C196.938 114.891 198.059 113.061 197.223 113.028C196.888 113.016 196.665 115.304 195.341 115.064C194.762 114.965 194.311 114.646 193.103 114.895Z" fill="#CE4949"/>
<path d="M194.386 115.449C194.386 115.449 193.438 115.619 192.23 115.416C192.23 115.416 192.259 116.488 193.128 116.682C193.699 116.811 194.212 116.045 194.386 115.449Z" fill="white"/>
<path d="M196.665 114.753C196.781 114.588 197.075 114.012 197.153 113.822C197.306 113.462 197.488 112.928 197.906 113.462C198.518 114.236 197.617 115.643 197.042 115.568C196.76 115.535 196.372 115.167 196.665 114.753Z" fill="#FF867A"/>
<path d="M162.307 125.31C162.39 124.809 162.125 124.317 161.662 124.11C160.392 123.535 157.774 122.512 156.119 123.026C155.147 123.328 152.475 123.526 152.669 123.953C152.86 124.383 155.346 124.023 155.366 124.151C155.387 124.279 155.267 125.484 156.4 126.175C157.53 126.866 160.979 127.71 161.629 127.127C162.001 126.787 162.204 125.955 162.307 125.31Z" fill="#FF867A"/>
<path d="M150.903 53.6492C150.954 53.5731 151.003 53.496 151.053 53.4188C151.091 53.36 151.129 53.3022 151.165 53.2434C151.214 53.1643 151.261 53.0833 151.308 53.0033C151.343 52.9445 151.378 52.8857 151.411 52.8269C151.421 52.8095 151.432 52.7922 151.442 52.7739C151.456 52.7488 151.468 52.7218 151.482 52.6968C151.582 52.5146 151.678 52.3304 151.769 52.1424C151.785 52.1077 151.803 52.074 151.82 52.0393C151.918 51.832 152.01 51.6218 152.097 51.4088C152.116 51.3596 152.135 51.3114 152.154 51.2622C152.24 51.0434 152.323 50.8226 152.396 50.598C152.398 50.5913 152.4 50.5845 152.402 50.5787C152.474 50.3589 152.537 50.1353 152.597 49.9097C152.61 49.8596 152.624 49.8094 152.636 49.7593C152.693 49.5327 152.744 49.3043 152.787 49.0738C152.795 49.0334 152.801 48.9929 152.808 48.9524C152.847 48.7403 152.879 48.5263 152.905 48.3103C152.91 48.2708 152.916 48.2322 152.921 48.1927C152.948 47.9565 152.967 47.7184 152.98 47.4783C152.983 47.4253 152.985 47.3723 152.987 47.3183C152.997 47.0715 153.003 46.8238 152.998 46.5731C152.961 44.6614 152.485 42.8644 151.664 41.2737C151.481 40.9199 151.282 40.5767 151.066 40.2441C150.206 38.9156 149.09 37.7645 147.788 36.8574C147.463 36.6308 147.126 36.4187 146.779 36.223C145.736 35.6359 144.598 35.1953 143.394 34.9264C142.591 34.7471 141.759 34.7528 140.906 34.7345C140.692 34.7297 140.478 34.8454 140.262 34.8454C140.054 34.8454 139.849 34.7548 139.644 34.7702C139.576 34.775 139.509 34.7297 139.441 34.7355C139.306 34.748 139.17 34.7336 139.035 34.7509C138.954 34.7615 138.874 34.7606 138.793 34.7721C138.673 34.7895 138.554 34.8001 138.435 34.8203C138.35 34.8357 138.264 34.8492 138.179 34.8656C138.067 34.8878 137.956 34.9081 137.845 34.9322C137.758 34.9514 137.671 34.9717 137.584 34.9939C137.477 35.0199 137.37 35.0469 137.265 35.0758C137.177 35.0999 137.09 35.125 137.003 35.15C136.9 35.1809 136.797 35.2117 136.695 35.2455C136.608 35.2734 136.522 35.3024 136.436 35.3322C136.336 35.3669 136.236 35.4036 136.136 35.4412C136.051 35.473 135.967 35.5048 135.883 35.5386C135.851 35.5511 135.819 35.5617 135.788 35.5752C135.789 35.5761 135.79 35.5771 135.791 35.5771C131.135 37.4879 127.892 42.0565 127.991 47.2961C128.12 54.0927 133.822 59.4393 140.728 59.2388C142.639 59.1839 144.443 58.7086 146.048 57.9075C147.848 57.009 149.397 55.6988 150.575 54.1081C150.575 54.1091 150.576 54.1101 150.576 54.1101C150.592 54.0879 150.608 54.0648 150.624 54.0416C150.678 53.9683 150.73 53.8941 150.782 53.8199C150.823 53.7659 150.864 53.708 150.903 53.6492Z" fill="url(#paint0_linear)"/>
<path d="M126.002 47.2991C125.874 40.5025 131.367 34.831 138.272 34.6305C145.178 34.4299 150.88 39.7775 151.009 46.5741C151.052 48.8155 150.482 50.9345 149.453 52.7749C148.225 54.971 146.342 56.7709 144.06 57.9104C142.454 58.7125 140.651 59.1868 138.739 59.2418C131.833 59.4433 126.131 54.0957 126.002 47.2991Z" fill="url(#paint1_linear)"/>
<g opacity="0.4">
<path opacity="0.4" d="M135.295 37.8523C136.872 41.4424 135.412 44.8841 137.495 47.1737C139.612 49.5 142.263 47.2036 145.197 49.0623C146.331 49.7805 147.604 51.1822 148.586 54.113C150.155 51.9959 151.061 49.3804 151.007 46.5731C150.878 39.7765 145.175 34.4299 138.27 34.6294C136.688 34.6757 135.181 35.0083 133.798 35.5761C134.5 36.331 134.97 37.1128 135.295 37.8523Z" fill="url(#paint2_linear)"/>
</g>
<path d="M136.127 54.1991C135.884 48.3878 135.84 44.1469 135.963 43.6282C135.99 43.5183 136.039 43.3747 136.1 43.1298C136.766 40.4487 136.085 38.7829 136.743 38.1649C137.035 37.8911 137.425 37.9779 137.75 38.0502C139.312 38.3992 140.443 41.006 140.193 43.0671C140.154 43.3881 140.089 43.6378 140.05 43.7728C140.157 43.7699 140.239 43.767 140.322 43.766C141.014 43.7583 141.71 43.6966 142.399 43.7545C143.777 43.8692 144.861 45.268 144.922 46.9735C144.954 47.8874 145.002 48.811 144.932 49.7172C144.819 51.1662 144.125 52.2121 143.188 53.0219C142.645 53.4924 142.058 53.8211 141.427 53.9841C141.06 54.0786 140.774 54.0921 140.625 54.0979C139.004 54.1673 136.479 54.1952 136.127 54.1991Z" fill="white"/>
<path d="M134.83 43.9033C134.886 47.3623 134.942 50.7837 134.998 54.2292C134.402 54.2437 133.816 54.2775 133.23 54.2649C132.96 54.2591 132.785 53.9593 132.775 53.5814C132.758 52.9124 132.75 52.2424 132.74 51.5733C132.703 49.3184 132.667 47.0644 132.631 44.8095C132.622 44.2099 132.816 43.9573 133.295 43.9428C133.802 43.9274 134.31 43.9159 134.83 43.9033Z" fill="white"/>
<path d="M180.972 19.0261C181.022 18.95 181.069 18.8729 181.118 18.7957C181.154 18.7369 181.191 18.6791 181.225 18.6203C181.273 18.5412 181.318 18.4602 181.364 18.3802C181.397 18.3214 181.431 18.2626 181.464 18.2038C181.473 18.1864 181.484 18.1691 181.494 18.1508C181.507 18.1257 181.519 18.0987 181.532 18.0737C181.629 17.8914 181.721 17.7073 181.81 17.5193C181.826 17.4846 181.843 17.4509 181.859 17.4162C181.954 17.2089 182.043 16.9987 182.126 16.7857C182.145 16.7365 182.164 16.6883 182.182 16.6391C182.265 16.4203 182.345 16.1995 182.416 15.9749C182.418 15.9682 182.42 15.9614 182.422 15.9556C182.491 15.7358 182.552 15.5122 182.61 15.2866C182.623 15.2364 182.636 15.1863 182.648 15.1362C182.702 14.9096 182.752 14.6811 182.794 14.4507C182.802 14.4102 182.808 14.3698 182.815 14.3293C182.852 14.1172 182.883 13.9032 182.908 13.6872C182.913 13.6477 182.919 13.6091 182.923 13.5696C182.95 13.3334 182.968 13.0953 182.981 12.8552C182.984 12.8022 182.985 12.7492 182.987 12.6952C182.997 12.4484 183.003 12.2006 182.998 11.95C182.963 10.0383 182.502 8.24126 181.708 6.65057C181.531 6.29676 181.338 5.95355 181.13 5.62096C180.298 4.29249 179.219 3.14141 177.96 2.23423C177.646 2.00768 177.32 1.79559 176.984 1.59989C175.976 1.01278 174.875 0.572211 173.711 0.303239C172.934 0.123925 172.13 0.167299 171.305 0.149946C171.098 0.145126 170.891 0.298414 170.682 0.298414C170.481 0.298414 170.282 0.170191 170.085 0.185616C170.019 0.190436 169.954 0.125851 169.889 0.1326C169.757 0.145132 169.626 0.121025 169.496 0.138378C169.417 0.148983 169.34 0.143202 169.262 0.154771C169.146 0.172124 169.031 0.179835 168.916 0.201044C168.833 0.216469 168.75 0.228998 168.668 0.245387C168.56 0.26756 168.452 0.286847 168.345 0.311913C168.261 0.331194 168.177 0.351439 168.093 0.372648C167.989 0.398678 167.886 0.425668 167.784 0.453626C167.699 0.477727 167.615 0.502794 167.531 0.52786C167.431 0.55871 167.332 0.589558 167.233 0.6233C167.149 0.651258 167.066 0.680182 166.983 0.710068C166.885 0.744773 166.789 0.781408 166.692 0.819006C166.61 0.85082 166.529 0.882635 166.447 0.916377C166.417 0.928909 166.386 0.939514 166.356 0.953011C166.357 0.953975 166.358 0.954941 166.358 0.954941C161.857 2.8657 158.72 7.43435 158.817 12.674C158.941 19.4706 164.455 24.8172 171.133 24.6167C172.981 24.5617 174.725 24.0865 176.277 23.2853C178.018 22.3868 179.516 21.0767 180.655 19.486C180.655 19.487 180.656 19.4879 180.656 19.4879C180.672 19.4658 180.687 19.4426 180.703 19.4195C180.755 19.3462 180.805 19.272 180.855 19.1977C180.895 19.1428 180.934 19.0849 180.972 19.0261Z" fill="url(#paint3_linear)"/>
<path d="M156.892 12.6751C156.767 5.87849 162.079 0.20696 168.757 0.00643655C175.435 -0.194087 180.949 5.15352 181.073 11.9501C181.115 14.1915 180.564 16.3105 179.569 18.1509C178.381 20.347 176.56 22.1469 174.353 23.2864C172.801 24.0885 171.057 24.5628 169.209 24.6178C162.531 24.8192 157.017 19.4716 156.892 12.6751Z" fill="url(#paint4_linear)"/>
<g opacity="0.3">
<path opacity="0.3" d="M165.879 3.22825C167.405 6.81838 165.992 10.26 168.007 12.5497C170.054 14.8759 172.617 12.5796 175.455 14.4383C176.552 15.1565 177.782 16.5582 178.732 19.4889C180.249 17.3719 181.125 14.7564 181.073 11.9491C180.948 5.15249 175.434 -0.19415 168.757 0.00540938C167.227 0.0516839 165.769 0.384289 164.432 0.952117C165.111 1.70697 165.565 2.48882 165.879 3.22825Z" fill="url(#paint5_linear)"/>
</g>
<path d="M175.42 11.0551C175.305 8.29216 173.836 5.97072 172.007 5.67669C170.553 5.44339 169.258 6.49421 168.569 8.19576C167.878 6.4113 166.572 5.19369 165.09 5.24575C163.205 5.3113 161.674 7.49971 161.553 10.3157C161.473 12.1763 162.002 13.8866 162.869 15.0396L168.19 20.5809C168.42 20.82 168.719 20.8306 168.949 20.6089L174.162 15.5524C174.993 14.5016 175.496 12.8801 175.42 11.0551Z" fill="white"/>
<path d="M176.805 90.6052C176.859 90.529 176.91 90.4519 176.962 90.3748C177.002 90.316 177.042 90.2582 177.079 90.1993C177.131 90.1203 177.179 90.0393 177.229 89.9593C177.265 89.9005 177.302 89.8417 177.338 89.7829C177.348 89.7655 177.36 89.7482 177.37 89.7298C177.385 89.7048 177.397 89.6778 177.412 89.6527C177.516 89.4705 177.617 89.2864 177.712 89.0984C177.729 89.0637 177.748 89.0299 177.765 88.9952C177.868 88.788 177.964 88.5778 178.055 88.3647C178.075 88.3156 178.096 88.2674 178.115 88.2182C178.205 87.9994 178.291 87.7786 178.368 87.554C178.371 87.5472 178.372 87.5405 178.375 87.5347C178.45 87.3149 178.516 87.0912 178.579 86.8656C178.592 86.8155 178.606 86.7654 178.619 86.7152C178.679 86.4887 178.732 86.2602 178.778 86.0298C178.786 85.9893 178.792 85.9488 178.8 85.9083C178.84 85.6962 178.873 85.4822 178.901 85.2663C178.906 85.2268 178.912 85.1882 178.917 85.1486C178.946 84.9125 178.965 84.6743 178.979 84.4343C178.982 84.3813 178.984 84.3283 178.987 84.2743C178.997 84.0275 179.003 83.7797 178.998 83.5291C178.96 81.6173 178.461 79.8203 177.602 78.2296C177.411 77.8758 177.202 77.5326 176.977 77.2C176.076 75.8716 174.909 74.7205 173.547 73.8133C173.207 73.5868 172.854 73.3747 172.491 73.179C171.4 72.5918 170.209 72.1513 168.949 71.8823C168.109 71.703 167.239 71.7965 166.346 71.7782C166.123 71.7734 165.898 71.9768 165.672 71.9768C165.455 71.9768 165.241 71.7984 165.026 71.8148C164.955 71.8196 164.885 71.7309 164.814 71.7367C164.672 71.7493 164.53 71.7136 164.389 71.73C164.304 71.7406 164.221 71.729 164.136 71.7406C164.01 71.7579 163.886 71.7628 163.762 71.784C163.672 71.7994 163.582 71.81 163.493 71.8264C163.376 71.8486 163.26 71.8669 163.144 71.8919C163.053 71.9112 162.962 71.9315 162.871 71.9527C162.759 71.9787 162.647 72.0047 162.537 72.0337C162.445 72.0578 162.354 72.0819 162.263 72.1079C162.155 72.1387 162.047 72.1696 161.941 72.2033C161.85 72.2313 161.76 72.2602 161.67 72.2901C161.565 72.3248 161.46 72.3614 161.356 72.399C161.267 72.4308 161.179 72.4627 161.091 72.4964C161.058 72.5089 161.024 72.5195 160.992 72.533C160.993 72.534 160.993 72.535 160.994 72.535C156.124 74.4457 152.73 79.0144 152.834 84.254C152.969 91.0506 158.935 96.3972 166.16 96.1967C168.16 96.1418 170.047 95.6665 171.726 94.8654C173.609 93.9669 175.23 92.6567 176.463 91.066C176.463 91.067 176.464 91.068 176.464 91.068C176.481 91.0458 176.497 91.0227 176.515 90.9995C176.571 90.9262 176.625 90.852 176.679 90.7778C176.722 90.7209 176.763 90.6631 176.805 90.6052Z" fill="url(#paint6_linear)"/>
<path d="M150.751 84.2542C150.617 77.4576 156.364 71.7861 163.589 71.5855C170.814 71.385 176.78 76.7326 176.915 83.5292C176.96 85.7706 176.364 87.8896 175.287 89.73C174.002 91.9261 172.032 93.726 169.644 94.8655C167.964 95.6676 166.077 96.1419 164.078 96.1969C156.853 96.3984 150.887 91.0508 150.751 84.2542Z" fill="url(#paint7_linear)"/>
<g opacity="0.3">
<path opacity="0.3" d="M160.475 74.8083C162.125 78.3985 160.597 81.8401 162.777 84.1298C164.992 86.456 167.765 84.1596 170.835 86.0183C172.022 86.7366 173.353 88.1383 174.38 91.069C176.022 88.952 176.97 86.3365 176.914 83.5292C176.779 76.7326 170.812 71.3859 163.588 71.5855C161.932 71.6318 160.355 71.9644 158.908 72.5322C159.643 73.287 160.134 74.0689 160.475 74.8083Z" fill="url(#paint8_linear)"/>
</g>
<path d="M164 82.676C165.861 82.676 167.37 80.8934 167.37 78.6944C167.37 76.4954 165.861 74.7129 164 74.7129C162.139 74.7129 160.631 76.4954 160.631 78.6944C160.631 80.8934 162.139 82.676 164 82.676Z" fill="white"/>
<path d="M170.872 90.0669C169.605 87.0542 166.975 84.9844 163.935 84.9844C160.895 84.9844 158.265 87.0542 156.999 90.0669C156.917 90.2616 156.926 90.518 157.024 90.7031C157.121 90.8882 157.292 91.0261 157.476 91.0261H170.396C170.58 91.0261 170.751 90.8882 170.849 90.7031C170.945 90.518 170.955 90.2616 170.872 90.0669Z" fill="white"/>
<path opacity="0.7" d="M141.573 133.412C141.573 141.764 135.167 148.777 127.046 149.084C118.673 149.401 111.691 142.509 111.691 133.682C111.691 124.855 118.672 117.837 127.046 118.003C135.167 118.163 141.573 125.06 141.573 133.412Z" fill="url(#paint9_linear)"/>
<path d="M133.763 132.143L123.854 126.177C123.382 125.894 122.788 125.891 122.315 126.171C121.841 126.451 121.537 126.972 121.537 127.537V139.646C121.537 140.211 121.841 140.728 122.315 141C122.788 141.271 123.376 141.258 123.848 140.966L133.759 134.822C134.213 134.54 134.493 134.027 134.493 133.475C134.493 132.923 134.216 132.416 133.763 132.143Z" fill="#F4F7FA"/>
<rect x="101" y="155" width="59" height="10" rx="3" fill="#F4F7FA"/>
<rect x="100" y="155" width="11" height="10" rx="3" fill="#444B8B"/>
<rect x="101" y="155" width="42" height="10" rx="3" fill="url(#paint10_linear)"/>
<rect x="87" y="155" width="11" height="10" rx="3" fill="#444B8B"/>
<rect x="88" y="155" width="11" height="10" rx="3" fill="url(#paint11_linear)"/>
<path d="M94.8308 159.623L92.5364 158.056C92.4272 157.982 92.2897 157.981 92.1801 158.055C92.0703 158.128 92 158.265 92 158.413V161.593C92 161.742 92.0703 161.878 92.1801 161.949C92.2897 162.02 92.4258 162.017 92.535 161.94L94.83 160.326C94.935 160.252 95 160.118 95 159.973C95 159.828 94.9359 159.695 94.8308 159.623Z" fill="#F4F7FA"/>
<defs>
<linearGradient id="paint0_linear" x1="127.99" y1="46.9911" x2="153" y2="46.9911" gradientUnits="userSpaceOnUse">
<stop stop-color="#444B8C"/>
<stop offset="0.9964" stop-color="#26264F"/>
</linearGradient>
<linearGradient id="paint1_linear" x1="151.011" y1="46.9369" x2="126" y2="46.9369" gradientUnits="userSpaceOnUse">
<stop stop-color="#AA80F9"/>
<stop offset="0.9964" stop-color="#6165D7"/>
</linearGradient>
<linearGradient id="paint2_linear" x1="147.92" y1="54.6268" x2="124.621" y2="18.9373" gradientUnits="userSpaceOnUse">
<stop stop-color="#AA80F9"/>
<stop offset="0.9964" stop-color="#6165D7"/>
</linearGradient>
<linearGradient id="paint3_linear" x1="158.815" y1="12.3781" x2="183" y2="12.3781" gradientUnits="userSpaceOnUse">
<stop stop-color="#311944"/>
<stop offset="1" stop-color="#A03976"/>
</linearGradient>
<linearGradient id="paint4_linear" x1="181.076" y1="12.3127" x2="156.89" y2="12.3127" gradientUnits="userSpaceOnUse">
<stop stop-color="#FF9085"/>
<stop offset="1" stop-color="#FB6FBB"/>
</linearGradient>
<linearGradient id="paint5_linear" x1="178.088" y1="20.0026" x2="154.484" y2="-14.9618" gradientUnits="userSpaceOnUse">
<stop stop-color="#FF9085"/>
<stop offset="1" stop-color="#FB6FBB"/>
</linearGradient>
<linearGradient id="paint6_linear" x1="152.831" y1="83.9641" x2="178.999" y2="83.9641" gradientUnits="userSpaceOnUse">
<stop stop-color="#311944"/>
<stop offset="1" stop-color="#A03976"/>
</linearGradient>
<linearGradient id="paint7_linear" x1="1447.46" y1="-1648.92" x2="1511.11" y2="-1710.45" gradientUnits="userSpaceOnUse">
<stop stop-color="#FFC444"/>
<stop offset="0.9964" stop-color="#F36F56"/>
</linearGradient>
<linearGradient id="paint8_linear" x1="1522.01" y1="-1426.85" x2="1507.89" y2="-1415.6" gradientUnits="userSpaceOnUse">
<stop stop-color="#FFC444"/>
<stop offset="0.9964" stop-color="#F36F56"/>
</linearGradient>
<linearGradient id="paint9_linear" x1="111.691" y1="133.547" x2="141.573" y2="133.547" gradientUnits="userSpaceOnUse">
<stop stop-color="#AA80F9"/>
<stop offset="0.9964" stop-color="#6165D7"/>
</linearGradient>
<linearGradient id="paint10_linear" x1="101" y1="160" x2="143" y2="160" gradientUnits="userSpaceOnUse">
<stop stop-color="#AA80F9"/>
<stop offset="0.9964" stop-color="#6165D7"/>
</linearGradient>
<linearGradient id="paint11_linear" x1="88.0001" y1="160" x2="99" y2="160" gradientUnits="userSpaceOnUse">
<stop stop-color="#AA80F9"/>
<stop offset="0.9964" stop-color="#6165D7"/>
</linearGradient>
</defs>
</svg>
