<svg xmlns="http://www.w3.org/2000/svg" width="15" height="15" fill="none" viewBox="0 0 15 15">
    <path fill="#6F6F71" fill-rule="evenodd" d="M10.75 0C13.293 0 15 1.784 15 4.437v6.126C15 13.216 13.292 15 10.749 15H4.248C1.707 15 0 13.216 0 10.563V4.437C0 1.783 1.707 0 4.248 0h6.503zm0 1.125H4.249c-1.897 0-3.123 1.3-3.123 3.312v6.126c0 2.012 1.226 3.312 3.123 3.312h6.501c1.899 0 3.126-1.3 3.126-3.312V4.437c0-2.012-1.227-3.312-3.124-3.312zM5.129 5.549c.881 0 1.626.586 1.868 1.388h4.261c.31 0 .563.252.563.563v1.39c0 .31-.252.562-.563.562-.31 0-.562-.252-.562-.563v-.827h-.997v.827c0 .31-.251.563-.562.563-.31 0-.562-.252-.562-.563v-.827H6.996c-.242.803-.989 1.39-1.87 1.39-1.076 0-1.95-.876-1.95-1.952S4.05 5.55 5.126 5.55zm.001 1.125c-.457 0-.828.37-.828.826 0 .456.37.827.827.827.455 0 .826-.37.826-.827 0-.455-.37-.825-.825-.826z" clip-rule="evenodd"/>
</svg>
