<svg xmlns="http://www.w3.org/2000/svg" width="16" height="16" fill="none" viewBox="0 0 16 16">
    <path fill="#061DDB" d="M13.035 1.998c-.16.012-.318.05-.467.112h-.002c-.142.056-.82.341-1.85.773l-3.69 1.555C4.375 5.553 1.772 6.65 1.772 6.65l.031-.012s-.18.059-.367.187c-.116.074-.215.17-.293.284-.092.135-.166.341-.138.555.045.36.279.577.447.697.17.12.332.177.332.177h.004l2.441.823c.11.351.744 2.437.897 2.918.09.287.177.466.287.603.053.07.115.129.19.176.038.022.08.04.122.053l-.025-.006c.008.002.014.008.02.01.02.005.033.007.058.011.387.117.697-.123.697-.123l.018-.014 1.441-1.312 2.416 1.853.055.024c.504.22 1.014.098 1.283-.12.272-.218.377-.497.377-.497l.018-.045 1.867-9.565c.053-.236.066-.457.008-.671-.06-.217-.2-.404-.39-.524-.161-.097-.347-.144-.534-.135zm-.05 1.025c-.003.032.003.028-.01.089v.005l-1.85 9.465c-.008.014-.022.043-.059.073-.039.03-.07.05-.232-.014l-2.955-2.266-1.785 1.627.375-2.395 4.828-4.5c.199-.185.132-.224.132-.224.014-.227-.3-.066-.3-.066L5.04 8.588l-.002-.01-2.918-.982v-.002l-.008-.002.015-.006.016-.008.016-.005L7.414 5.36l3.69-1.555c1.027-.432 1.786-.748 1.83-.765.04-.016.02-.016.05-.016z"/>
</svg>
