<svg xmlns="http://www.w3.org/2000/svg" width="25" height="25" fill="none" viewBox="0 0 25 25">
    <path fill="#fff" d="M15.626 19.531c-.902 0-1.791-.222-2.586-.649-.796-.426-1.473-1.043-1.971-1.796l1.301-.864c.357.537.84.978 1.409 1.283.568.305 1.202.464 1.847.464s1.28-.16 1.847-.464c.568-.305 1.052-.746 1.408-1.283l1.302.864c-.498.753-1.176 1.37-1.97 1.796-.796.427-1.685.65-2.587.65zM18.75 10.938c-.308 0-.61.091-.867.263-.257.172-.458.416-.576.701-.118.286-.149.6-.089.903.06.303.21.581.428.8.218.218.497.367.8.428.303.06.617.029.903-.09.285-.118.53-.318.7-.575.173-.257.264-.559.264-.868.002-.206-.037-.41-.114-.6-.078-.19-.193-.364-.339-.51-.145-.145-.318-.26-.509-.338-.19-.077-.395-.117-.6-.114zM12.5 10.938c-.31 0-.612.091-.869.263-.257.172-.457.416-.575.701-.118.286-.15.6-.089.903.06.303.21.581.428.8.218.218.497.367.8.428.303.06.617.029.902-.09.286-.118.53-.318.702-.575.171-.257.263-.559.263-.868.002-.206-.037-.41-.115-.6-.077-.19-.192-.364-.338-.51-.146-.145-.319-.26-.51-.338-.19-.077-.394-.117-.6-.114z"/>
    <path fill="#fff" d="M21.874 6.25h-4.687V3.125c0-.414-.165-.811-.458-1.104-.293-.293-.69-.458-1.105-.458h-12.5c-.414 0-.811.165-1.104.458-.293.293-.458.69-.458 1.104v7.813c.003 1.908.704 3.75 1.97 5.177 1.267 1.428 3.012 2.343 4.907 2.573.706 1.656 1.963 3.018 3.557 3.854 1.594.837 3.428 1.097 5.192.736 1.764-.36 3.35-1.318 4.488-2.713 1.139-1.395 1.76-3.14 1.76-4.94V7.812c0-.414-.164-.811-.457-1.104-.293-.293-.69-.458-1.105-.458zm-18.75 4.688V3.125h12.5V6.25h-6.25c-.414 0-.811.165-1.104.458-.293.293-.458.69-.458 1.104v7.813c.002.466.046.932.131 1.39-1.37-.323-2.59-1.099-3.465-2.202-.874-1.103-1.351-2.468-1.354-3.876zm18.75 4.687c0 1.658-.658 3.247-1.83 4.42-1.172 1.171-2.762 1.83-4.42 1.83-1.657 0-3.247-.659-4.42-1.83-1.171-1.173-1.83-2.762-1.83-4.42V7.812h12.5v7.813z"/>
</svg>
