<svg xmlns="http://www.w3.org/2000/svg" width="18" height="18" fill="none" viewBox="0 0 18 18">
    <path fill="#E15A55" fill-rule="evenodd" d="M12.9 0C15.95 0 18 2.14 18 5.324v7.352C18 15.86 15.95 18 12.9 18H5.098C2.048 18 0 15.86 0 12.676V5.324C0 2.14 2.048 0 5.098 0h7.803zm0 1.35H5.099c-2.276 0-3.748 1.56-3.748 3.974v7.352c0 2.414 1.471 3.974 3.748 3.974H12.9c2.278 0 3.75-1.56 3.75-3.974V5.324c0-2.414-1.472-3.974-3.75-3.974zm-.22 5.037c.264.264.264.69 0 .954l-4.27 4.272c-.132.132-.305.198-.478.198-.172 0-.345-.066-.477-.198L5.32 9.477c-.264-.264-.264-.69 0-.954.263-.264.69-.264.954 0l1.66 1.658 3.794-3.794c.263-.263.69-.263.954 0z" clip-rule="evenodd"/>
</svg>
