<svg xmlns="http://www.w3.org/2000/svg" width="19" height="21" fill="none" viewBox="0 0 19 21">
    <path fill="#6F6F71" fill-rule="evenodd" d="M11.601 0c.046 0 .09.004.134.011l.143.001c.215 0 .421.088.572.243l5.355 5.579c.14.147.22.344.22.548v9.715c.017 2.652-2.05 4.808-4.707 4.903H4.713C2.133 20.945.064 18.86 0 16.307V4.747C.062 2.124 2.227.012 4.83.012h6.638C11.51.003 11.556 0 11.6 0zm-.793 1.597H4.833c-1.752 0-3.206 1.42-3.247 3.169v11.331c-.038 1.798 1.378 3.278 3.16 3.317h8.544c1.764-.063 3.16-1.519 3.15-3.312v-8.72h-2.124C12.38 7.379 10.81 5.8 10.81 3.869l-.001-2.27zm-2.203 5.97c.22 0 .417.09.56.233h.002l2.48 2.491c.309.311.308.812-.002 1.12-.31.31-.813.31-1.122-.001l-1.125-1.13v4.467c0 .437-.355.793-.793.793-.437 0-.793-.356-.793-.793v-4.468l-1.124 1.13c-.154.157-.358.234-.561.234-.202 0-.405-.077-.56-.231-.31-.309-.311-.81-.002-1.12L8.043 7.8l.036-.033.047-.039-.083.072c.03-.03.061-.056.095-.08.13-.096.292-.153.467-.153zm3.789-5.08v1.381c0 1.061.863 1.926 1.924 1.93l1.252-.002-3.176-3.31z" clip-rule="evenodd"/>
</svg>
