<svg xmlns="http://www.w3.org/2000/svg" width="15" height="15" fill="none" viewBox="0 0 15 15">
    <path fill="#6F6F71" fill-rule="evenodd" d="M10.75 0C13.293 0 15 1.784 15 4.437v6.126C15 13.216 13.292 15 10.75 15H4.249C1.707 15 0 13.216 0 10.563V4.437C0 1.783 1.707 0 4.249 0h6.502zm0 1.125H4.25c-1.898 0-3.124 1.3-3.124 3.312v6.126c0 2.012 1.226 3.312 3.124 3.312h6.5c1.899 0 3.126-1.3 3.126-3.312V4.437c0-2.012-1.227-3.312-3.124-3.312zm-.289 5.635c.415 0 .75.336.75.75 0 .415-.335.75-.75.75s-.754-.335-.754-.75c0-.414.333-.75.747-.75h.007zm-3.007 0c.415 0 .75.336.75.75 0 .415-.335.75-.75.75S6.7 7.925 6.7 7.51c0-.414.331-.75.746-.75h.007zm-3.007 0c.415 0 .75.336.75.75 0 .415-.335.75-.75.75-.414 0-.753-.335-.753-.75 0-.414.332-.75.747-.75h.006z" clip-rule="evenodd"/>
</svg>
