<svg width="20" height="20" viewBox="0 0 20 20" fill="none" xmlns="http://www.w3.org/2000/svg">
    <path fill-rule="evenodd" clip-rule="evenodd" d="M8.333 18.334a1.667 1.667 0 0 1-1.666-1.667V3.334a1.667 1.667 0 0 1 1.666-1.667H17.5a1.667 1.667 0 0 1 1.667 1.667v13.333a1.667 1.667 0 0 1-1.667 1.667H8.333zm-.416-1.667a.417.417 0 0 0 .416.417H17.5a.416.416 0 0 0 .417-.417V3.334a.416.416 0 0 0-.417-.417H8.333a.417.417 0 0 0-.416.417v13.333zM5.142 3.471a.625.625 0 0 1-.28.838c-.19.095-.245.148-.262.168a.03.03 0 0 0-.007.013.323.323 0 0 0-.01.094v10.833c0 .058.007.085.01.093.001.005.003.01.007.014.017.02.073.072.263.167a.624.624 0 0 1-.08 1.155.625.625 0 0 1-.479-.037c-.227-.113-.483-.262-.675-.498-.212-.262-.296-.566-.296-.894V4.584c0-.328.084-.633.296-.895.192-.235.448-.385.675-.498a.625.625 0 0 1 .838.28zm-3.35 1.216a.625.625 0 0 1-.229.854 1.027 1.027 0 0 0-.266.204c-.047.055-.047.08-.047.089v8.333c0 .008 0 .033.047.088.052.062.141.132.266.204a.624.624 0 1 1-.626 1.082C.608 15.351 0 14.923 0 14.167V5.834c0-.756.608-1.184.937-1.375a.625.625 0 0 1 .854.228z" fill="#6F6F71"/>
</svg>
