<svg xmlns="http://www.w3.org/2000/svg" width="15" height="14" fill="none" viewBox="0 0 15 14">
    <path fill="#061DDB" fill-rule="evenodd" d="M10.642 0C13.045 0 15 1.955 15 4.36v5.215c0 2.404-1.955 4.36-4.358 4.36H4.359C1.956 13.934 0 11.979 0 9.575V4.36C0 1.955 1.956 0 4.36 0h6.282zm0 1.09H4.359c-1.802 0-3.269 1.467-3.269 3.27v5.215c0 1.803 1.467 3.27 3.27 3.27h6.282c1.802 0 3.268-1.467 3.268-3.27v-.203h-2.397c-1.379 0-2.5-1.121-2.502-2.5 0-1.379 1.123-2.5 2.502-2.501h2.397v-.012c0-1.802-1.466-3.269-3.268-3.269zm3.268 4.37h-2.397c-.778.001-1.411.634-1.411 1.412 0 .777.633 1.41 1.411 1.41h2.397V5.46zm-2.064.822c.3 0 .545.244.545.545 0 .301-.245.545-.545.545h-.227c-.301 0-.545-.244-.545-.545 0-.3.244-.545.545-.545h.227zm-4.08-2.984c.3 0 .545.244.545.545 0 .301-.244.545-.545.545H3.842c-.301 0-.545-.244-.545-.545 0-.3.244-.545.545-.545h3.924z" clip-rule="evenodd"/>
</svg>
