<svg xmlns="http://www.w3.org/2000/svg" width="16" height="16" fill="none" viewBox="0 0 16 16">
    <path fill="#061DDB" fill-rule="evenodd" d="M13.603 2.325C12.107.827 10.116.001 7.995 0 3.625 0 .068 3.557.067 7.928c-.001 1.397.364 2.761 1.058 3.964L0 16l4.203-1.102c1.158.631 2.462.964 3.789.965h.003c4.37 0 7.927-3.557 7.928-7.929.001-2.118-.823-4.11-2.32-5.609zM7.995 14.523h-.003c-1.182 0-2.342-.318-3.354-.918l-.24-.143-2.494.654.665-2.431-.156-.25c-.66-1.049-1.008-2.262-1.008-3.507.002-3.633 2.958-6.589 6.593-6.589 1.76 0 3.414.687 4.658 1.933 1.245 1.245 1.93 2.9 1.929 4.662-.002 3.633-2.958 6.59-6.59 6.59zm3.615-4.935c-.198-.1-1.172-.578-1.354-.644-.181-.067-.314-.1-.446.099-.132.198-.511.644-.627.776-.116.133-.231.15-.43.05-.197-.1-.836-.308-1.592-.983-.59-.526-.987-1.174-1.102-1.373-.116-.198-.001-.295.087-.404.214-.266.429-.545.495-.677.066-.133.033-.248-.017-.348-.05-.099-.445-1.074-.61-1.47-.161-.387-.325-.335-.446-.34-.116-.006-.248-.008-.38-.008s-.347.05-.528.248c-.182.199-.694.678-.694 1.653s.71 1.917.81 2.05c.098.132 1.396 2.133 3.383 2.99.473.205.842.327 1.13.418.474.15.906.13 1.248.079.38-.057 1.172-.48 1.337-.943.165-.462.165-.859.115-.942-.05-.082-.181-.132-.38-.23z" clip-rule="evenodd"/>
</svg>
